<svg width="18" height="21" viewBox="0 0 18 21" fill="none" xmlns="http://www.w3.org/2000/svg">
<path d="M8.99384 10.4234C9.51313 10.4234 9.95121 10.2469 10.3081 9.89391C10.6649 9.54094 10.8433 9.10479 10.8433 8.58548C10.8433 8.06618 10.6652 7.62811 10.3089 7.27126C9.95261 6.91442 9.5125 6.73599 8.98856 6.73599C8.46463 6.73599 8.02821 6.91414 7.67929 7.27043C7.33037 7.6267 7.15592 8.06681 7.15592 8.59076C7.15592 9.11469 7.33241 9.55111 7.6854 9.90003C8.03838 10.2489 8.47452 10.4234 8.99384 10.4234ZM8.98772 17.6555C11.0178 15.8316 12.5205 14.2139 13.4959 12.8024C14.4713 11.3908 14.9589 10.0269 14.9589 8.71054C14.9589 6.92606 14.3829 5.46491 13.2308 4.3271C12.0787 3.18928 10.6655 2.62037 8.99129 2.62037C7.31702 2.62037 5.90266 3.18928 4.74821 4.3271C3.59374 5.46491 3.01651 6.92606 3.01651 8.71054C3.01651 10.0269 3.51609 11.3869 4.51526 12.7905C5.51443 14.1941 7.00525 15.8157 8.98772 17.6555ZM8.98772 20.6054C6.24398 18.3216 4.19013 16.2321 2.82619 14.3368C1.46225 12.4416 0.780273 10.5661 0.780273 8.71054C0.780273 6.17743 1.60529 4.15245 3.25533 2.6356C4.90537 1.11877 6.81617 0.360352 8.98772 0.360352C11.1525 0.360352 13.0656 1.11877 14.7269 2.6356C16.3883 4.15245 17.219 6.17743 17.219 8.71054C17.219 10.5661 16.533 12.4416 15.1612 14.3368C13.7893 16.2321 11.7315 18.3216 8.98772 20.6054Z" fill="white"/>
</svg>
