<svg width="24" height="25" viewBox="0 0 24 25" fill="none" xmlns="http://www.w3.org/2000/svg">
<path d="M19.95 21.9316C17.8667 21.9316 15.8083 21.4775 13.775 20.5691C11.7417 19.6608 9.89167 18.3733 8.225 16.7066C6.55833 15.04 5.27083 13.19 4.3625 11.1566C3.45417 9.12331 3 7.06497 3 4.98164C3 4.68164 3.1 4.43164 3.3 4.23164C3.5 4.03164 3.75 3.93164 4.05 3.93164H8.1C8.33333 3.93164 8.54167 4.01081 8.725 4.16914C8.90833 4.32747 9.01667 4.51497 9.05 4.73164L9.7 8.23164C9.73333 8.49831 9.725 8.72331 9.675 8.90664C9.625 9.08997 9.53333 9.24831 9.4 9.38164L6.975 11.8316C7.30833 12.4483 7.70417 13.0441 8.1625 13.6191C8.62083 14.1941 9.125 14.7483 9.675 15.2816C10.1917 15.7983 10.7333 16.2775 11.3 16.7191C11.8667 17.1608 12.4667 17.565 13.1 17.9316L15.45 15.5816C15.6 15.4316 15.7958 15.3191 16.0375 15.2441C16.2792 15.1691 16.5167 15.1483 16.75 15.1816L20.2 15.8816C20.4333 15.9483 20.625 16.0691 20.775 16.2441C20.925 16.4191 21 16.615 21 16.8316V20.8816C21 21.1816 20.9 21.4316 20.7 21.6316C20.5 21.8316 20.25 21.9316 19.95 21.9316ZM6.025 9.93164L7.675 8.28164L7.25 5.93164H5.025C5.10833 6.61497 5.225 7.28997 5.375 7.95664C5.525 8.62331 5.74167 9.28164 6.025 9.93164ZM14.975 18.8816C15.625 19.165 16.2875 19.39 16.9625 19.5566C17.6375 19.7233 18.3167 19.8316 19 19.8816V17.6816L16.65 17.2066L14.975 18.8816Z" fill="white"/>
</svg>
