<svg width="35" height="36" viewBox="0 0 35 36" fill="none" xmlns="http://www.w3.org/2000/svg">
<path d="M11.6974 4.90234C7.69807 4.90234 4.44434 8.15608 4.44434 12.1554V23.7604C4.44434 27.7597 7.69807 31.0135 11.6974 31.0135H23.3024C27.3017 31.0135 30.5554 27.7597 30.5554 23.7604V12.1554C30.5554 8.15608 27.3017 4.90234 23.3024 4.90234H11.6974ZM11.6974 7.80358H23.3024C25.7017 7.80358 27.6542 9.75611 27.6542 12.1554V23.7604C27.6542 26.1597 25.7017 28.1122 23.3024 28.1122H11.6974C9.2981 28.1122 7.34557 26.1597 7.34557 23.7604V12.1554C7.34557 9.75611 9.2981 7.80358 11.6974 7.80358ZM24.753 9.2542C24.3682 9.2542 23.9993 9.40703 23.7272 9.67907C23.4552 9.95112 23.3024 10.3201 23.3024 10.7048C23.3024 11.0895 23.4552 11.4585 23.7272 11.7306C23.9993 12.0026 24.3682 12.1554 24.753 12.1554C25.1377 12.1554 25.5067 12.0026 25.7787 11.7306C26.0508 11.4585 26.2036 11.0895 26.2036 10.7048C26.2036 10.3201 26.0508 9.95112 25.7787 9.67907C25.5067 9.40703 25.1377 9.2542 24.753 9.2542ZM17.4999 10.7048C13.5005 10.7048 10.2468 13.9585 10.2468 17.9579C10.2468 21.9573 13.5005 25.211 17.4999 25.211C21.4992 25.211 24.753 21.9573 24.753 17.9579C24.753 13.9585 21.4992 10.7048 17.4999 10.7048ZM17.4999 13.606C19.8992 13.606 21.8517 15.5586 21.8517 17.9579C21.8517 20.3572 19.8992 22.3098 17.4999 22.3098C15.1006 22.3098 13.148 20.3572 13.148 17.9579C13.148 15.5586 15.1006 13.606 17.4999 13.606Z" fill="#3FBA00"/>
</svg>
