<svg width="24" height="25" viewBox="0 0 24 25" fill="none" xmlns="http://www.w3.org/2000/svg">
<path d="M4 20.9316C3.45 20.9316 2.97917 20.7358 2.5875 20.3441C2.19583 19.9525 2 19.4816 2 18.9316V6.93164C2 6.38164 2.19583 5.91081 2.5875 5.51914C2.97917 5.12747 3.45 4.93164 4 4.93164H20C20.55 4.93164 21.0208 5.12747 21.4125 5.51914C21.8042 5.91081 22 6.38164 22 6.93164V18.9316C22 19.4816 21.8042 19.9525 21.4125 20.3441C21.0208 20.7358 20.55 20.9316 20 20.9316H4ZM12 13.9316L4 8.93164V18.9316H20V8.93164L12 13.9316ZM12 11.9316L20 6.93164H4L12 11.9316ZM4 8.93164V6.93164V18.9316V8.93164Z" fill="white"/>
</svg>
