<svg width="18" height="19" viewBox="0 0 18 19" fill="none" xmlns="http://www.w3.org/2000/svg">
<path d="M16.95 18.3604C14.8667 18.3604 12.8083 17.9062 10.775 16.9979C8.74167 16.0895 6.89167 14.802 5.225 13.1354C3.55833 11.4687 2.27083 9.61868 1.3625 7.58535C0.454167 5.55202 0 3.49369 0 1.41035C0 1.11035 0.1 0.860352 0.3 0.660352C0.5 0.460352 0.75 0.360352 1.05 0.360352H5.1C5.33333 0.360352 5.54167 0.439518 5.725 0.597852C5.90833 0.756185 6.01667 0.943685 6.05 1.16035L6.7 4.66035C6.73333 4.92702 6.725 5.15202 6.675 5.33535C6.625 5.51868 6.53333 5.67702 6.4 5.81035L3.975 8.26035C4.30833 8.87702 4.70417 9.47285 5.1625 10.0479C5.62083 10.6229 6.125 11.177 6.675 11.7104C7.19167 12.227 7.73333 12.7062 8.3 13.1479C8.86667 13.5895 9.46667 13.9937 10.1 14.3604L12.45 12.0104C12.6 11.8604 12.7958 11.7479 13.0375 11.6729C13.2792 11.5979 13.5167 11.577 13.75 11.6104L17.2 12.3104C17.4333 12.377 17.625 12.4979 17.775 12.6729C17.925 12.8479 18 13.0437 18 13.2604V17.3104C18 17.6104 17.9 17.8604 17.7 18.0604C17.5 18.2604 17.25 18.3604 16.95 18.3604ZM3.025 6.36035L4.675 4.71035L4.25 2.36035H2.025C2.10833 3.04368 2.225 3.71868 2.375 4.38535C2.525 5.05202 2.74167 5.71035 3.025 6.36035ZM11.975 15.3104C12.625 15.5937 13.2875 15.8187 13.9625 15.9854C14.6375 16.152 15.3167 16.2604 16 16.3104V14.1104L13.65 13.6354L11.975 15.3104Z" fill="white"/>
</svg>
