<svg width="36" height="36" viewBox="0 0 36 36" fill="none" xmlns="http://www.w3.org/2000/svg">
<path d="M19.0324 24.2305C18.2229 22.6364 17.2707 21.0209 15.4163 21.0209C15.0493 21.0167 14.6854 21.0871 14.3464 21.2278L13.7152 19.9653C14.4819 19.3056 15.723 18.7885 17.2814 18.7885C19.7599 18.7885 21.0331 19.9831 22.0459 21.5095C22.645 20.2078 22.9303 18.4497 22.9303 16.2671C22.9303 10.8251 21.2292 8.06484 17.2529 8.06484C13.33 8.06484 11.6432 10.8608 11.6432 16.2671C11.6432 21.6735 13.3372 24.4445 17.2529 24.4445C17.8287 24.4521 18.4027 24.3777 18.9575 24.2234L19.0324 24.2305ZM20.0024 26.1313C19.1301 26.3657 18.231 26.4855 17.3278 26.4879C12.1104 26.4915 7 22.3261 7 16.2707C7 10.1618 12.1104 6 17.3278 6C22.6307 6 27.6841 10.1368 27.6841 16.2707C27.6972 17.8139 27.3513 19.3389 26.6735 20.7254C25.9958 22.1118 25.0049 23.3216 23.7791 24.259C24.4923 25.3788 25.2983 26.1242 26.3717 26.1242C27.5414 26.1242 28.0122 25.2183 28.0942 24.5087H29.6205C29.7097 25.4537 29.2354 29.3801 24.9737 29.3801C22.3918 29.3801 21.0259 27.8859 20.0024 26.1313Z" fill="#3FBA00"/>
</svg>
