<svg width="35" height="36" viewBox="0 0 35 36" fill="none" xmlns="http://www.w3.org/2000/svg">
<path d="M32.0983 6.35156C30.9668 7.0232 28.6966 7.93854 27.362 8.20255C27.3229 8.2127 27.2909 8.22576 27.2532 8.23591C26.0739 7.07252 24.4579 6.35156 22.6693 6.35156C19.0645 6.35156 16.1415 9.27456 16.1415 12.8793C16.1415 13.0694 16.1255 13.419 16.1415 13.6046C11.2776 13.6046 7.5756 11.0574 4.92097 7.80218C4.6323 8.52749 4.50609 9.67348 4.50609 10.7498C4.50609 12.7821 6.09452 14.7782 8.56782 16.0156C8.11233 16.1331 7.61041 16.2172 7.08819 16.2172C6.24538 16.2172 5.35325 15.9953 4.53655 15.3222C4.53655 15.3468 4.53655 15.3701 4.53655 15.3962C4.53655 18.2365 7.55094 20.1701 10.2317 20.7083C9.6877 21.0289 8.59103 21.0608 8.05575 21.0608C7.67859 21.0608 6.34402 20.8882 5.98717 20.8215C6.73279 23.1497 9.42223 24.4582 11.9855 24.5046C9.98072 26.0771 8.58958 26.6602 4.48433 26.6602H3.08594C5.67964 28.3226 8.9827 29.5629 12.293 29.5629C23.0711 29.5629 29.197 21.348 29.197 13.6046C29.197 13.4799 29.1941 13.2188 29.1898 12.9562C29.1898 12.9301 29.197 12.9055 29.197 12.8793C29.197 12.8402 29.1854 12.8025 29.1854 12.7633C29.1811 12.566 29.1767 12.3818 29.1724 12.286C30.3184 11.4592 31.312 10.4278 32.0983 9.2528C31.0466 9.7199 29.918 10.0332 28.7328 10.1754C29.9427 9.45008 31.6616 7.72095 32.0983 6.35156ZM26.2958 13.6046C26.2958 19.5232 22.0063 25.7884 14.0149 26.5775C15.097 25.8101 16.1415 24.7207 16.1415 24.7207C16.1415 24.7207 11.7896 20.8592 11.4633 15.8139C12.9646 16.2723 14.5284 16.5059 16.1415 16.5059H19.0427V12.8793C19.0456 10.8775 20.6674 9.25425 22.6693 9.25425C24.6726 9.25425 26.2958 10.8775 26.2958 12.8808C26.2958 12.8808 26.2958 13.49 26.2958 13.6046Z" fill="#3FBA00"/>
</svg>
