<svg width="54" height="54" viewBox="0 0 54 54" fill="none" xmlns="http://www.w3.org/2000/svg">
<rect width="54" height="54" rx="4.19417" fill="#3FBA00" fill-opacity="0.11"/>
<rect x="0.262136" y="0.262136" width="53.4757" height="53.4757" rx="3.93204" stroke="#3FBA00" stroke-opacity="0.31" stroke-width="0.524272"/>
<path d="M35.3342 11.1003C33.8103 9.65203 31.8858 8.66383 29.9051 8.00395L29.8154 7.97911C28.02 7.4985 26.1298 7.4985 24.3344 7.97911L24.2448 8.00395C22.2641 8.66383 20.3384 9.65203 18.8156 11.1003C14.2796 15.4117 15.0183 23.2363 19.4345 27.364C20.6721 28.5229 21.2165 30.0176 21.5945 31.6657C21.7089 32.1625 22.3656 37.34 22.1345 37.34H32.0089C31.7799 37.34 32.4409 32.1625 32.5489 31.6657C32.928 30.0176 33.4723 28.5229 34.7089 27.364C39.1315 23.2363 39.8681 15.4117 35.3342 11.1003Z" fill="#F9BB0D"/>
<path d="M25.299 31.6653C24.9199 30.0172 24.3767 28.5225 23.139 27.3637C18.724 23.2359 17.9874 15.4113 22.5212 11.1C24.044 9.65168 25.9686 8.66348 27.9504 8.0036L28.039 7.97876C28.3327 7.89992 28.6297 7.83944 28.9278 7.78652C27.4015 7.51345 25.8338 7.57908 24.3356 7.97876L24.246 8.0036C22.2653 8.66348 20.3396 9.65168 18.8168 11.1C14.2808 15.4113 15.0196 23.2359 19.4357 27.3637C20.6734 28.5225 21.2177 30.0172 21.5957 31.6653C21.7102 32.1621 22.3668 37.3396 22.1357 37.3396H25.8401C26.0712 37.3396 25.4135 32.1621 25.299 31.6653Z" fill="#FFD44D"/>
<path d="M27.0747 37.34V25.2646L29.2012 24.0398C29.3569 23.9498 29.4823 23.8156 29.5616 23.6542C29.6409 23.4928 29.6705 23.3115 29.6467 23.1333C29.6229 22.955 29.5467 22.7879 29.4278 22.653C29.3088 22.5181 29.1526 22.4215 28.9787 22.3756L25.1113 21.355C24.9668 21.3163 24.8379 21.2338 24.7422 21.1189C24.6465 21.004 24.5888 20.8623 24.577 20.7132C24.5651 20.5642 24.5998 20.4151 24.6761 20.2865C24.7524 20.158 24.8667 20.0562 25.0033 19.9952L27.079 19.061V14.957" stroke="#FEFEFE" stroke-width="0.216" stroke-linecap="round" stroke-linejoin="round"/>
<path d="M32.994 37.3593C32.994 37.909 32.697 38.3561 32.3298 38.3561H21.4736C21.1064 38.3561 20.8083 37.909 20.8083 37.3593C20.8083 36.8085 21.1064 36.3613 21.4736 36.3613H32.3298C32.697 36.3613 32.994 36.8085 32.994 37.3593Z" fill="#24285B"/>
<path d="M32.994 39.3533C32.994 39.9041 32.697 40.3501 32.3298 40.3501H21.4736C21.1064 40.3501 20.8083 39.9041 20.8083 39.3533C20.8083 38.8025 21.1064 38.3564 21.4736 38.3564H32.3298C32.697 38.3564 32.994 38.8025 32.994 39.3533Z" fill="#24285B"/>
<path d="M32.994 41.4026C32.994 41.9836 32.697 42.4545 32.3298 42.4545H21.4736C21.1064 42.4545 20.8083 41.9836 20.8083 41.4026C20.8083 40.8205 21.1064 40.3496 21.4736 40.3496H32.3298C32.697 40.3496 32.994 40.8205 32.994 41.4026Z" fill="#24285B"/>
<path d="M26.9018 46.3318C27.411 46.3319 27.9153 46.2317 28.3858 46.037C28.8564 45.8422 29.2839 45.5566 29.644 45.1966C30.0042 44.8365 30.2899 44.4091 30.4848 43.9386C30.6797 43.4681 30.78 42.9638 30.78 42.4546H23.0256C23.0256 43.4827 23.434 44.4687 24.1609 45.1958C24.8877 45.9229 25.8736 46.3315 26.9018 46.3318Z" fill="#24285B"/>
</svg>
