<svg width="87" height="87" viewBox="0 0 87 87" fill="none" xmlns="http://www.w3.org/2000/svg">
<rect width="87" height="87" rx="43.5" fill="#090E8E" fill-opacity="0.12"/>
<path d="M48.0375 49.9625L49.9625 48.0375L44.875 42.95V36.625H42.125V44.05L48.0375 49.9625ZM43.5 57.25C41.5979 57.25 39.8104 56.8891 38.1375 56.1672C36.4646 55.4453 35.0094 54.4656 33.7719 53.2281C32.5344 51.9906 31.5547 50.5354 30.8328 48.8625C30.1109 47.1896 29.75 45.4021 29.75 43.5C29.75 41.5979 30.1109 39.8104 30.8328 38.1375C31.5547 36.4646 32.5344 35.0094 33.7719 33.7719C35.0094 32.5344 36.4646 31.5547 38.1375 30.8328C39.8104 30.1109 41.5979 29.75 43.5 29.75C45.4021 29.75 47.1896 30.1109 48.8625 30.8328C50.5354 31.5547 51.9906 32.5344 53.2281 33.7719C54.4656 35.0094 55.4453 36.4646 56.1672 38.1375C56.8891 39.8104 57.25 41.5979 57.25 43.5C57.25 45.4021 56.8891 47.1896 56.1672 48.8625C55.4453 50.5354 54.4656 51.9906 53.2281 53.2281C51.9906 54.4656 50.5354 55.4453 48.8625 56.1672C47.1896 56.8891 45.4021 57.25 43.5 57.25ZM43.5 54.5C46.5479 54.5 49.1432 53.4286 51.2859 51.2859C53.4286 49.1432 54.5 46.5479 54.5 43.5C54.5 40.4521 53.4286 37.8568 51.2859 35.7141C49.1432 33.5714 46.5479 32.5 43.5 32.5C40.4521 32.5 37.8568 33.5714 35.7141 35.7141C33.5714 37.8568 32.5 40.4521 32.5 43.5C32.5 46.5479 33.5714 49.1432 35.7141 51.2859C37.8568 53.4286 40.4521 54.5 43.5 54.5Z" fill="url(#paint0_linear_299_84)"/>
<defs>
<linearGradient id="paint0_linear_299_84" x1="30.6858" y1="32.89" x2="62.2333" y2="43.0521" gradientUnits="userSpaceOnUse">
<stop stop-color="#090E8E"/>
<stop offset="1" stop-color="#030428"/>
</linearGradient>
</defs>
</svg>
