<svg width="87" height="87" viewBox="0 0 87 87" fill="none" xmlns="http://www.w3.org/2000/svg">
<rect width="87" height="87" rx="43.5" fill="#090E8E" fill-opacity="0.12"/>
<path d="M42.1593 55.875V52.9188C40.9447 52.6438 39.8963 52.1167 39.014 51.3375C38.1317 50.5583 37.4843 49.4583 37.0718 48.0375L39.6155 47.0063C39.9593 48.1063 40.4692 48.9427 41.1452 49.5156C41.8213 50.0885 42.7093 50.375 43.8093 50.375C44.7489 50.375 45.5452 50.163 46.1983 49.7391C46.8515 49.3151 47.178 48.6562 47.178 47.7625C47.178 46.9604 46.9259 46.3245 46.4218 45.8547C45.9176 45.3849 44.7489 44.8521 42.9155 44.2563C40.9447 43.6375 39.5926 42.8984 38.8593 42.0391C38.1259 41.1797 37.7593 40.1313 37.7593 38.8938C37.7593 37.4042 38.2405 36.2469 39.203 35.4219C40.1655 34.5969 41.1509 34.1271 42.1593 34.0125V31.125H44.9093V34.0125C46.0551 34.1958 47.0004 34.6141 47.7452 35.2672C48.49 35.9203 49.0343 36.7167 49.378 37.6562L46.8343 38.7563C46.5593 38.0229 46.1697 37.4729 45.6655 37.1063C45.1614 36.7396 44.4739 36.5563 43.603 36.5563C42.5947 36.5563 41.827 36.7797 41.2999 37.2266C40.7728 37.6734 40.5093 38.2292 40.5093 38.8938C40.5093 39.65 40.853 40.2458 41.5405 40.6813C42.228 41.1167 43.4197 41.575 45.1155 42.0563C46.6968 42.5146 47.8942 43.2422 48.7077 44.2391C49.5213 45.2359 49.928 46.3875 49.928 47.6938C49.928 49.3208 49.4468 50.5583 48.4843 51.4062C47.5218 52.2542 46.3301 52.7812 44.9093 52.9875V55.875H42.1593Z" fill="url(#paint0_linear_299_342)"/>
<defs>
<linearGradient id="paint0_linear_299_342" x1="37.5092" y1="33.951" x2="53.3447" y2="36.6007" gradientUnits="userSpaceOnUse">
<stop stop-color="#090E8E"/>
<stop offset="1" stop-color="#030428"/>
</linearGradient>
</defs>
</svg>
