<svg width="87" height="87" viewBox="0 0 87 87" fill="none" xmlns="http://www.w3.org/2000/svg">
<rect width="87" height="87" rx="43.5" fill="#090E8E" fill-opacity="0.12"/>
<path d="M43.3282 54.5C43.4199 54.5 43.5115 54.4771 43.6032 54.4312C43.6949 54.3854 43.7636 54.3396 43.8095 54.2938L55.0845 43.0188C55.3595 42.7438 55.56 42.4344 55.686 42.0906C55.8121 41.7469 55.8751 41.4031 55.8751 41.0594C55.8751 40.6927 55.8121 40.3432 55.686 40.0109C55.56 39.6786 55.3595 39.3865 55.0845 39.1344L49.2407 33.2906C48.9886 33.0156 48.6964 32.8151 48.3641 32.6891C48.0319 32.563 47.6824 32.5 47.3157 32.5C46.972 32.5 46.6282 32.563 46.2845 32.6891C45.9407 32.8151 45.6313 33.0156 45.3563 33.2906L44.9782 33.6688L47.522 36.2469C47.8657 36.5677 48.1178 36.9344 48.2782 37.3469C48.4386 37.7594 48.5188 38.1948 48.5188 38.6531C48.5188 39.6156 48.1923 40.4234 47.5391 41.0766C46.886 41.7297 46.0782 42.0563 45.1157 42.0563C44.6574 42.0563 44.2162 41.976 43.7923 41.8156C43.3683 41.6552 42.9959 41.4146 42.6751 41.0938L40.097 38.55L34.0813 44.5656C34.0126 44.6344 33.961 44.7089 33.9266 44.7891C33.8923 44.8693 33.8751 44.9552 33.8751 45.0469C33.8751 45.2302 33.9438 45.3964 34.0813 45.5453C34.2188 45.6943 34.3792 45.7688 34.5626 45.7688C34.6542 45.7688 34.7459 45.7458 34.8376 45.7C34.9292 45.6542 34.998 45.6083 35.0438 45.5625L39.7188 40.8875L41.6438 42.8125L37.0032 47.4875C36.9345 47.5562 36.8829 47.6307 36.8485 47.7109C36.8141 47.7911 36.797 47.8771 36.797 47.9688C36.797 48.1521 36.8657 48.3125 37.0032 48.45C37.1407 48.5875 37.3011 48.6562 37.4845 48.6562C37.5761 48.6562 37.6678 48.6333 37.7595 48.5875C37.8511 48.5417 37.9199 48.4958 37.9657 48.45L42.6407 43.8094L44.5657 45.7344L39.9251 50.4094C39.8563 50.4552 39.8048 50.524 39.7704 50.6156C39.736 50.7073 39.7188 50.799 39.7188 50.8906C39.7188 51.074 39.7876 51.2344 39.9251 51.3719C40.0626 51.5094 40.223 51.5781 40.4063 51.5781C40.498 51.5781 40.5839 51.5609 40.6641 51.5266C40.7443 51.4922 40.8188 51.4406 40.8876 51.3719L45.5626 46.7313L47.4876 48.6562L42.8126 53.3313C42.7438 53.4 42.6923 53.4745 42.6579 53.5547C42.6235 53.6349 42.6063 53.7208 42.6063 53.8125C42.6063 53.9958 42.6808 54.1562 42.8298 54.2938C42.9787 54.4312 43.1449 54.5 43.3282 54.5ZM43.2938 57.25C42.4459 57.25 41.6954 56.9693 41.0423 56.4078C40.3891 55.8464 40.0053 55.1417 39.8907 54.2938C39.1115 54.1792 38.4584 53.8583 37.9313 53.3313C37.4042 52.8042 37.0834 52.151 36.9688 51.3719C36.1897 51.2573 35.5423 50.9307 35.0266 50.3922C34.511 49.8536 34.1959 49.2063 34.0813 48.45C33.2105 48.3354 32.5001 47.9573 31.9501 47.3156C31.4001 46.674 31.1251 45.9177 31.1251 45.0469C31.1251 44.5885 31.211 44.1474 31.3829 43.7234C31.5548 43.2995 31.8011 42.9271 32.122 42.6062L40.097 34.6656L44.6001 39.1687C44.6459 39.2375 44.7147 39.2891 44.8063 39.3234C44.898 39.3578 44.9897 39.375 45.0813 39.375C45.2876 39.375 45.4595 39.312 45.597 39.1859C45.7345 39.0599 45.8032 38.8938 45.8032 38.6875C45.8032 38.5958 45.786 38.5042 45.7516 38.4125C45.7173 38.3208 45.6657 38.2521 45.597 38.2063L40.6813 33.2906C40.4292 33.0156 40.1371 32.8151 39.8048 32.6891C39.4725 32.563 39.123 32.5 38.7563 32.5C38.4126 32.5 38.0688 32.563 37.7251 32.6891C37.3813 32.8151 37.072 33.0156 36.797 33.2906L31.9501 38.1719C31.7438 38.3781 31.572 38.6188 31.4345 38.8938C31.297 39.1687 31.2053 39.4438 31.1595 39.7188C31.1136 39.9938 31.1136 40.2745 31.1595 40.5609C31.2053 40.8474 31.297 41.1167 31.4345 41.3688L29.4407 43.3625C29.0511 42.8354 28.7647 42.2568 28.5813 41.6266C28.398 40.9964 28.3292 40.3604 28.3751 39.7188C28.4209 39.0771 28.5813 38.4526 28.8563 37.8453C29.1313 37.238 29.5095 36.6938 29.9907 36.2125L34.8376 31.3656C35.3876 30.8385 36.0006 30.4375 36.6766 30.1625C37.3527 29.8875 38.0459 29.75 38.7563 29.75C39.4667 29.75 40.16 29.8875 40.836 30.1625C41.5121 30.4375 42.1136 30.8385 42.6407 31.3656L43.0188 31.7438L43.397 31.3656C43.947 30.8385 44.56 30.4375 45.236 30.1625C45.9121 29.8875 46.6053 29.75 47.3157 29.75C48.0261 29.75 48.7194 29.8875 49.3954 30.1625C50.0714 30.4375 50.673 30.8385 51.2001 31.3656L57.0095 37.175C57.5365 37.7021 57.9376 38.3094 58.2126 38.9969C58.4876 39.6844 58.6251 40.3833 58.6251 41.0938C58.6251 41.8042 58.4876 42.4974 58.2126 43.1734C57.9376 43.8495 57.5365 44.451 57.0095 44.9781L45.7345 56.2188C45.4136 56.5396 45.0412 56.7917 44.6173 56.975C44.1933 57.1583 43.7522 57.25 43.2938 57.25Z" fill="url(#paint0_linear_299_390)"/>
<defs>
<linearGradient id="paint0_linear_299_390" x1="29.3911" y1="32.89" x2="63.4337" y2="44.9578" gradientUnits="userSpaceOnUse">
<stop stop-color="#090E8E"/>
<stop offset="1" stop-color="#030428"/>
</linearGradient>
</defs>
</svg>
