<svg width="82" height="81" viewBox="0 0 82 81" fill="none" xmlns="http://www.w3.org/2000/svg">
<path d="M37.5862 75.0992C54.8587 75.0992 68.8607 61.0972 68.8607 43.8248C68.8607 26.5524 54.8587 12.5503 37.5862 12.5503C20.3138 12.5503 6.31177 26.5524 6.31177 43.8248C6.31177 61.0972 20.3138 75.0992 37.5862 75.0992Z" fill="#F0457D"/>
<path d="M37.5861 63.4598C48.4303 63.4598 57.2213 54.6688 57.2213 43.8246C57.2213 32.9804 48.4303 24.1895 37.5861 24.1895C26.7419 24.1895 17.9509 32.9804 17.9509 43.8246C17.9509 54.6688 26.7419 63.4598 37.5861 63.4598Z" fill="white"/>
<path d="M37.5862 51.2876C41.7079 51.2876 45.0491 47.9464 45.0491 43.8247C45.0491 39.7031 41.7079 36.3618 37.5862 36.3618C33.4646 36.3618 30.1233 39.7031 30.1233 43.8247C30.1233 47.9464 33.4646 51.2876 37.5862 51.2876Z" fill="#F0457D"/>
<path d="M52.6622 31.2908L60.9133 23.0381C60.2328 22.2758 59.5168 21.5475 58.7653 20.853L50.5288 29.0895C51.2959 29.7669 52.0092 30.5029 52.6622 31.2908Z" fill="#0B35C2"/>
<path d="M36.4607 45.325C36.7483 45.612 37.138 45.7731 37.5443 45.7731C37.9506 45.7731 38.3404 45.612 38.628 45.325L43.9575 39.9955C43.4243 39.1108 42.7139 38.346 41.8709 37.749L36.4607 43.1593C36.3184 43.3014 36.2056 43.4703 36.1286 43.6561C36.0516 43.8419 36.012 44.041 36.012 44.2421C36.012 44.4432 36.0516 44.6424 36.1286 44.8282C36.2056 45.014 36.3184 45.1828 36.4607 45.325Z" fill="#0B35C2"/>
<path opacity="0.09" d="M68.6668 40.7401C68.0092 33.534 64.8642 26.7815 59.7714 21.6411L38.5664 45.12L68.6668 40.7401Z" fill="black"/>
<path d="M75.5307 13.4547L70.051 11.9608C69.9999 11.9471 69.9534 11.9202 69.9159 11.8827C69.8785 11.8453 69.8516 11.7987 69.8379 11.7477L68.3424 6.26796C68.3284 6.21668 68.3013 6.16995 68.2636 6.13245C68.226 6.09495 68.1792 6.06799 68.1278 6.05426C68.0765 6.04053 68.0225 6.04051 67.9711 6.0542C67.9198 6.06789 67.8729 6.09482 67.8353 6.1323L59.8475 14.1201C59.8099 14.1579 59.7829 14.205 59.7693 14.2567C59.7557 14.3083 59.7559 14.3625 59.7699 14.414L60.936 18.6938L36.4865 43.1432C36.1995 43.4309 36.0383 43.8206 36.0383 44.2269C36.0383 44.6332 36.1995 45.0229 36.4865 45.3106C36.6287 45.4531 36.7976 45.5661 36.9836 45.6432C37.1695 45.7204 37.3688 45.7601 37.5702 45.7601C37.7715 45.7601 37.9708 45.7204 38.1567 45.6432C38.3427 45.5661 38.5116 45.4531 38.6538 45.3106L63.1033 20.8611L67.3831 22.0287C67.4347 22.0426 67.489 22.0426 67.5407 22.0287C67.5923 22.0148 67.6393 21.9875 67.677 21.9496L75.6648 13.9618C75.7023 13.9243 75.7292 13.8775 75.743 13.8263C75.7568 13.775 75.757 13.7211 75.7434 13.6698C75.7298 13.6185 75.7031 13.5716 75.6657 13.5339C75.6284 13.4961 75.5819 13.4688 75.5307 13.4547Z" fill="#FFD44D"/>
<path d="M75.5308 13.4403L70.0511 11.9513C70 11.9382 69.9533 11.9116 69.9158 11.8744C69.8783 11.8373 69.8514 11.7908 69.8379 11.7397L36.4187 45.2203C36.4413 45.2462 36.4623 45.272 36.4865 45.2962C36.7742 45.5832 37.1639 45.7444 37.5702 45.7444C37.9765 45.7444 38.3662 45.5832 38.6539 45.2962L63.1033 20.8467L67.3831 22.0128C67.4345 22.0273 67.489 22.0278 67.5407 22.0142C67.5924 22.0005 67.6395 21.9733 67.677 21.9352L75.6648 13.9475C75.7023 13.9099 75.7293 13.8632 75.7431 13.8119C75.7569 13.7607 75.757 13.7067 75.7434 13.6554C75.7299 13.6041 75.7031 13.5572 75.6658 13.5195C75.6285 13.4818 75.5819 13.4545 75.5308 13.4403Z" fill="#F9BB0D"/>
</svg>
