<svg width="87" height="87" viewBox="0 0 87 87" fill="none" xmlns="http://www.w3.org/2000/svg">
<rect width="87" height="87" rx="43.5" fill="#090E8E" fill-opacity="0.12"/>
<path d="M38.825 57.9375L36.2125 53.5375L31.2625 52.4375L31.7438 47.35L28.375 43.5L31.7438 39.65L31.2625 34.5625L36.2125 33.4625L38.825 29.0625L43.5 31.0563L48.175 29.0625L50.7875 33.4625L55.7375 34.5625L55.2563 39.65L58.625 43.5L55.2563 47.35L55.7375 52.4375L50.7875 53.5375L48.175 57.9375L43.5 55.9438L38.825 57.9375ZM39.9938 54.4312L43.5 52.9188L47.075 54.4312L49 51.1313L52.7812 50.2375L52.4375 46.3875L54.9813 43.5L52.4375 40.5437L52.7812 36.6938L49 35.8688L47.0063 32.5688L43.5 34.0813L39.925 32.5688L38 35.8688L34.2188 36.6938L34.5625 40.5437L32.0188 43.5L34.5625 46.3875L34.2188 50.3062L38 51.1313L39.9938 54.4312ZM42.0563 48.3813L49.825 40.6125L47.9 38.6188L42.0563 44.4625L39.1 41.575L37.175 43.5L42.0563 48.3813Z" fill="url(#paint0_linear_299_8)"/>
<defs>
<linearGradient id="paint0_linear_299_8" x1="29.4043" y1="32.3595" x2="63.7915" y2="43.9637" gradientUnits="userSpaceOnUse">
<stop stop-color="#090E8E"/>
<stop offset="1" stop-color="#030428"/>
</linearGradient>
</defs>
</svg>
