<svg width="87" height="87" viewBox="0 0 87 87" fill="none" xmlns="http://www.w3.org/2000/svg">
<rect width="87" height="87" rx="43.5" fill="#090E8E" fill-opacity="0.12"/>
<path d="M35.25 54.5C34.1042 54.5 33.1302 54.099 32.3281 53.2969C31.526 52.4948 31.125 51.5208 31.125 50.375H28.375V35.25C28.375 34.4938 28.6443 33.8464 29.1828 33.3078C29.7214 32.7693 30.3688 32.5 31.125 32.5H50.375V38H54.5L58.625 43.5V50.375H55.875C55.875 51.5208 55.474 52.4948 54.6719 53.2969C53.8698 54.099 52.8958 54.5 51.75 54.5C50.6042 54.5 49.6302 54.099 48.8281 53.2969C48.026 52.4948 47.625 51.5208 47.625 50.375H39.375C39.375 51.5208 38.974 52.4948 38.1719 53.2969C37.3698 54.099 36.3958 54.5 35.25 54.5ZM35.25 51.75C35.6396 51.75 35.9661 51.6182 36.2297 51.3547C36.4932 51.0911 36.625 50.7646 36.625 50.375C36.625 49.9854 36.4932 49.6589 36.2297 49.3953C35.9661 49.1318 35.6396 49 35.25 49C34.8604 49 34.5339 49.1318 34.2703 49.3953C34.0068 49.6589 33.875 49.9854 33.875 50.375C33.875 50.7646 34.0068 51.0911 34.2703 51.3547C34.5339 51.6182 34.8604 51.75 35.25 51.75ZM31.125 47.625H32.225C32.6146 47.2125 33.0615 46.8802 33.5656 46.6281C34.0698 46.376 34.6312 46.25 35.25 46.25C35.8688 46.25 36.4302 46.376 36.9344 46.6281C37.4385 46.8802 37.8854 47.2125 38.275 47.625H47.625V35.25H31.125V47.625ZM51.75 51.75C52.1396 51.75 52.4661 51.6182 52.7297 51.3547C52.9932 51.0911 53.125 50.7646 53.125 50.375C53.125 49.9854 52.9932 49.6589 52.7297 49.3953C52.4661 49.1318 52.1396 49 51.75 49C51.3604 49 51.0339 49.1318 50.7703 49.3953C50.5068 49.6589 50.375 49.9854 50.375 50.375C50.375 50.7646 50.5068 51.0911 50.7703 51.3547C51.0339 51.6182 51.3604 51.75 51.75 51.75ZM50.375 44.875H56.2188L53.125 40.75H50.375V44.875Z" fill="url(#paint0_linear_205_2920)"/>
<defs>
<linearGradient id="paint0_linear_205_2920" x1="29.4043" y1="35.012" x2="61.4257" y2="49.1947" gradientUnits="userSpaceOnUse">
<stop stop-color="#090E8E"/>
<stop offset="1" stop-color="#030428"/>
</linearGradient>
</defs>
</svg>
