<svg width="131" height="30" viewBox="0 0 131 30" fill="none" xmlns="http://www.w3.org/2000/svg">
<path d="M53.0598 17.2743L50.7947 11.1683C50.7022 10.9186 50.349 10.9186 50.2564 11.1683L47.9916 17.2747C47.9755 17.3181 47.9702 17.3647 47.9761 17.4106C47.9819 17.4566 47.9988 17.5004 48.0252 17.5384C48.0517 17.5764 48.0869 17.6074 48.1279 17.6288C48.169 17.6502 48.2146 17.6614 48.2609 17.6614H52.7906C52.8369 17.6614 52.8825 17.6502 52.9235 17.6287C52.9645 17.6073 52.9998 17.5762 53.0262 17.5382C53.0526 17.5002 53.0695 17.4564 53.0753 17.4105C53.0811 17.3645 53.0757 17.3179 53.0596 17.2745L53.0598 17.2743ZM54.1062 20.7063H46.9454C46.8869 20.7064 46.8297 20.7243 46.7816 20.7577C46.7335 20.7912 46.6968 20.8386 46.6764 20.8935L45.2666 24.6928C45.2463 24.7477 45.2095 24.7951 45.1615 24.8285C45.1134 24.862 45.0562 24.8799 44.9976 24.8799H41.8939C41.847 24.8799 41.8008 24.8684 41.7594 24.8464C41.7179 24.8244 41.6825 24.7926 41.6562 24.7537C41.6299 24.7148 41.6136 24.6701 41.6086 24.6235C41.6036 24.5768 41.6101 24.5297 41.6275 24.4861L48.7731 6.68534C48.7945 6.63217 48.8314 6.58662 48.8789 6.55456C48.9264 6.5225 48.9824 6.5054 49.0397 6.50546H52.0115C52.1286 6.50546 52.2341 6.57664 52.2779 6.68534L59.4233 24.4859C59.4409 24.5295 59.4474 24.5767 59.4425 24.6234C59.4375 24.6701 59.4212 24.7149 59.3949 24.7538C59.3686 24.7927 59.3331 24.8246 59.2916 24.8466C59.2502 24.8686 59.2039 24.8801 59.1569 24.8801H56.0538C55.9952 24.8801 55.938 24.8621 55.8899 24.8286C55.8418 24.7951 55.8051 24.7477 55.7848 24.6928L54.3748 20.8935C54.3545 20.8386 54.3177 20.7912 54.2697 20.7577C54.2216 20.7243 54.1644 20.7064 54.1058 20.7063H54.1062ZM60.8775 12.7526H63.532C63.6082 12.7526 63.6812 12.7829 63.735 12.8367C63.7888 12.8905 63.8191 12.9635 63.8191 13.0397V24.5929C63.8191 24.669 63.7888 24.742 63.735 24.7958C63.6812 24.8497 63.6082 24.8799 63.532 24.8799H60.8775C60.8013 24.8799 60.7283 24.8497 60.6745 24.7958C60.6207 24.742 60.5904 24.669 60.5904 24.5929V13.0395C60.5904 12.9633 60.6207 12.8903 60.6745 12.8365C60.7283 12.7827 60.8013 12.7524 60.8775 12.7524V12.7526ZM73.5004 15.5629C73.5004 15.6391 73.4702 15.7121 73.4163 15.7659C73.3625 15.8197 73.2895 15.85 73.2134 15.85H73.133C71.8204 15.85 70.8577 16.165 70.2453 16.7949C69.6326 17.4249 69.3268 18.4663 69.3268 19.9187V24.5929C69.3268 24.669 69.2966 24.742 69.2427 24.7958C69.1889 24.8497 69.1159 24.8799 69.0398 24.8799H66.4112C66.3351 24.8799 66.2621 24.8497 66.2083 24.7958C66.1544 24.742 66.1242 24.669 66.1242 24.5929V13.0395C66.1242 12.9633 66.1544 12.8903 66.2083 12.8365C66.2621 12.7827 66.3351 12.7524 66.4112 12.7524H69.0134C69.0895 12.7524 69.1625 12.7827 69.2163 12.8365C69.2702 12.8903 69.3004 12.9633 69.3004 13.0395V15.3247H69.353C69.668 14.3798 70.1667 13.6539 70.8495 13.1461C71.5317 12.6388 72.3717 12.3848 73.3691 12.3848H73.5004V15.5628V15.5629ZM80.7587 15.4562C80.6826 15.4562 80.6096 15.4864 80.5557 15.5402C80.5019 15.5941 80.4717 15.6671 80.4717 15.7432V20.5487C80.4717 21.0387 80.5674 21.3887 80.7602 21.5987C80.9526 21.8086 81.2851 21.9136 81.7576 21.9136H82.0219C82.098 21.9136 82.171 21.9439 82.2249 21.9977C82.2787 22.0515 82.3089 22.1245 82.3089 22.2007V24.6189C82.3089 24.695 82.2787 24.768 82.2249 24.8219C82.171 24.8757 82.098 24.9059 82.0219 24.9059H80.8913C79.7189 24.9059 78.8177 24.6042 78.1878 24.0004C77.5576 23.3967 77.2426 22.5002 77.2426 21.3099V15.7432C77.2426 15.6671 77.2124 15.5941 77.1586 15.5402C77.1047 15.4864 77.0317 15.4562 76.9556 15.4562H75.2986C75.2225 15.4562 75.1495 15.4259 75.0956 15.3721C75.0418 15.3183 75.0116 15.2453 75.0116 15.1691V13.0395C75.0116 12.9633 75.0418 12.8903 75.0956 12.8365C75.1495 12.7827 75.2225 12.7524 75.2986 12.7524H76.9558C77.0319 12.7524 77.1049 12.7222 77.1588 12.6684C77.2126 12.6145 77.2428 12.5415 77.2428 12.4654V8.18331C77.2428 8.10718 77.2731 8.03417 77.3269 7.98034C77.3807 7.92651 77.4538 7.89627 77.5299 7.89627H80.1844C80.2606 7.89627 80.3336 7.92651 80.3874 7.98034C80.4412 8.03417 80.4715 8.10718 80.4715 8.18331V12.4654C80.4715 12.5415 80.5017 12.6145 80.5555 12.6684C80.6094 12.7222 80.6824 12.7524 80.7585 12.7524H82.6781C82.7542 12.7524 82.8272 12.7827 82.881 12.8365C82.9349 12.8903 82.9651 12.9633 82.9651 13.0395V15.1693C82.9651 15.2454 82.9349 15.3185 82.881 15.3723C82.8272 15.4261 82.7542 15.4564 82.6781 15.4564H80.7587V15.4562ZM92.9141 21.2837C93.5179 20.6537 93.8197 19.8312 93.8197 18.8161C93.8197 17.8015 93.5179 16.9786 92.9141 16.3487C92.3104 15.7187 91.5184 15.4037 90.5384 15.4037C89.5582 15.4037 88.7668 15.7187 88.1628 16.3487C87.5593 16.9786 87.2573 17.8015 87.2573 18.8161C87.2573 19.8312 87.5593 20.6537 88.1628 21.2837C88.7668 21.9136 89.5582 22.2286 90.5384 22.2286C91.5184 22.2286 92.3104 21.9136 92.9141 21.2837ZM86.7849 24.5123C85.8923 24.005 85.1878 23.2654 84.6718 22.2943C84.1554 21.3231 83.8974 20.1638 83.8974 18.8161C83.8974 17.4689 84.1554 16.3093 84.6718 15.3381C85.1878 14.3669 85.8923 13.6279 86.7849 13.12C87.6774 12.6125 88.6571 12.3588 89.7247 12.3588C90.6697 12.3588 91.4789 12.5425 92.1531 12.9099C92.8263 13.2773 93.3644 13.7938 93.7672 14.4588H93.8197V13.0395C93.8197 12.9633 93.8499 12.8903 93.9037 12.8365C93.9576 12.7827 94.0306 12.7524 94.1067 12.7524H96.735C96.8112 12.7524 96.8842 12.7827 96.938 12.8365C96.9918 12.8903 97.0221 12.9633 97.0221 13.0395V24.5927C97.0221 24.6688 96.9918 24.7418 96.938 24.7957C96.8842 24.8495 96.8112 24.8797 96.735 24.8797H94.1067C94.0306 24.8797 93.9576 24.8495 93.9037 24.7957C93.8499 24.7418 93.8197 24.6688 93.8197 24.5927V23.1736H93.7672C93.3644 23.8389 92.8263 24.3548 92.1529 24.7222C91.4789 25.0897 90.6699 25.2734 89.7247 25.2734C88.6571 25.2734 87.6774 25.0196 86.7849 24.5123ZM107.953 21.2837C108.557 20.6537 108.859 19.8312 108.859 18.8161C108.859 17.8015 108.557 16.9786 107.953 16.3487C107.35 15.7187 106.558 15.4037 105.578 15.4037C104.597 15.4037 103.806 15.7187 103.202 16.3487C102.599 16.9786 102.296 17.8015 102.296 18.8161C102.296 19.8312 102.599 20.6537 103.202 21.2837C103.806 21.9136 104.597 22.2286 105.578 22.2286C106.558 22.2286 107.35 21.9136 107.953 21.2837ZM103.963 24.7222C103.29 24.3548 102.751 23.8389 102.349 23.1736H102.296V24.5927C102.296 24.6688 102.266 24.7418 102.212 24.7957C102.158 24.8495 102.085 24.8797 102.009 24.8797H99.3548C99.2786 24.8797 99.2056 24.8495 99.1518 24.7957C99.098 24.7418 99.0677 24.6688 99.0677 24.5927V6.79192C99.0677 6.7158 99.098 6.64279 99.1518 6.58896C99.2056 6.53512 99.2786 6.50488 99.3548 6.50488H102.009C102.085 6.50488 102.158 6.53512 102.212 6.58896C102.266 6.64279 102.296 6.7158 102.296 6.79192V14.4586H102.349C102.751 13.7936 103.29 13.2773 103.963 12.9099C104.637 12.5423 105.446 12.3586 106.391 12.3586C107.459 12.3586 108.439 12.6124 109.331 13.1198C110.224 13.6277 110.928 14.3668 111.444 15.3377C111.96 16.3094 112.219 17.4691 112.219 18.8163C112.219 20.164 111.96 21.3231 111.445 22.2944C110.928 23.2656 110.224 24.0052 109.332 24.5123C108.439 25.0198 107.459 25.2737 106.392 25.2737C105.447 25.2737 104.637 25.09 103.964 24.7224L103.963 24.7222ZM116.691 24.8799H114.037C113.961 24.8799 113.888 24.8497 113.834 24.7958C113.78 24.742 113.75 24.669 113.75 24.5929V6.7925C113.75 6.71637 113.78 6.64336 113.834 6.58953C113.888 6.5357 113.961 6.50546 114.037 6.50546H116.691C116.768 6.50546 116.841 6.5357 116.894 6.58953C116.948 6.64336 116.979 6.71637 116.979 6.7925V24.5929C116.979 24.669 116.948 24.742 116.894 24.7958C116.841 24.8497 116.768 24.8799 116.691 24.8799ZM122.953 15.5614C122.513 15.9047 122.216 16.4003 122.062 17.0487C122.02 17.2274 122.159 17.3989 122.343 17.3989H127.395C127.57 17.3989 127.708 17.2419 127.68 17.069C127.579 16.4556 127.316 15.9667 126.891 15.6008C126.392 15.1722 125.74 14.9579 124.935 14.9579C124.13 14.9579 123.469 15.159 122.953 15.5614ZM129.424 14.052C130.456 15.181 130.972 16.7779 130.972 18.8425V19.1854C130.972 19.2615 130.942 19.3345 130.888 19.3884C130.834 19.4422 130.761 19.4724 130.685 19.4724H122.246C122.203 19.4725 122.162 19.4818 122.124 19.4996C122.086 19.5174 122.052 19.5433 122.025 19.5754C121.998 19.6076 121.978 19.6453 121.967 19.6859C121.956 19.7265 121.954 19.769 121.961 19.8104C122.096 20.5774 122.436 21.1867 122.979 21.6381C123.6 22.1548 124.384 22.4125 125.329 22.4125C126.549 22.4125 127.678 21.9364 128.716 20.984C128.843 20.8677 129.044 20.8923 129.143 21.0338L130.433 22.8861C130.474 22.9437 130.491 23.0142 130.483 23.0841C130.475 23.1541 130.442 23.2186 130.389 23.2654C129.756 23.8199 129.051 24.2878 128.295 24.6568C127.455 25.0678 126.466 25.2737 125.329 25.2737C124.016 25.2737 122.87 25.0066 121.89 24.4731C120.91 23.9396 120.149 23.1871 119.606 22.2156C119.064 21.2444 118.793 20.1202 118.793 18.8425C118.793 17.5653 119.055 16.4367 119.58 15.4564C120.105 14.4766 120.84 13.7154 121.785 13.1727C122.73 12.6305 123.832 12.359 125.093 12.359C126.947 12.359 128.391 12.9235 129.424 14.052ZM64.1658 8.48145C64.1658 9.56417 63.288 10.4419 62.2051 10.4419C61.122 10.4419 60.2443 9.56417 60.2443 8.48126C60.2443 7.39835 61.1222 6.52057 62.2051 6.52057C63.288 6.52057 64.1658 7.39835 64.1658 8.48126" fill="#333333"/>
<path d="M15.9647 1.32778L3.34258 6.55059C2.64067 6.84108 2.64794 7.83826 3.35426 8.11822L16.029 13.1445C17.1427 13.5862 18.3829 13.5862 19.4965 13.1445L32.1715 8.11803C32.8776 7.83826 32.8852 6.84127 32.183 6.55078L19.5612 1.32759C18.4096 0.85109 17.1161 0.85109 15.9646 1.32759" fill="#FCB400"/>
<path d="M18.8872 15.8884V28.445C18.8872 29.042 19.4894 29.4511 20.0446 29.2311L34.1681 23.749C34.3257 23.6865 34.4608 23.5782 34.556 23.438C34.6512 23.2978 34.7021 23.1323 34.702 22.9629V10.4065C34.702 9.80928 34.0998 9.40035 33.5447 9.62041L19.4211 15.1025C19.2636 15.165 19.1285 15.2733 19.0333 15.4135C18.9381 15.5537 18.8872 15.7192 18.8872 15.8886" fill="#18BFFF"/>
<path d="M15.5892 16.537L11.3977 18.5608L10.9721 18.7665L2.12393 23.0061C1.56324 23.2767 0.847168 22.868 0.847168 22.2449V10.4597C0.847168 10.2343 0.96275 10.0397 1.11775 9.89331C1.18134 9.82998 1.25348 9.77588 1.33208 9.73256C1.54334 9.60569 1.84492 9.57182 2.10135 9.67324L15.5188 14.9896C16.2008 15.2602 16.2544 16.2159 15.5892 16.5372" fill="#F82B60"/>
<path d="M15.5891 16.537L11.3976 18.5608L1.11768 9.89311C1.18128 9.82986 1.25342 9.77582 1.332 9.73256C1.54326 9.60569 1.84485 9.57182 2.10127 9.67324L15.5187 14.9896C16.2007 15.2602 16.2543 16.2159 15.5891 16.5372" fill="black" fill-opacity="0.25"/>
</svg>
