<svg width="174" height="53" viewBox="0 0 174 53" fill="none" xmlns="http://www.w3.org/2000/svg">
<g clip-path="url(#clip0_407_16032)">
<path d="M47.6182 33.3862C44.7906 33.3862 42.1411 32.1891 39.7339 30.2403L40.32 27.4891L40.3455 27.3872C40.8675 24.458 42.5234 19.5413 47.6182 19.5413C51.439 19.5413 54.5469 22.6492 54.5469 26.47C54.534 30.2783 51.4264 33.3862 47.6182 33.3862ZM47.6182 12.5235C41.1094 12.5235 36.0659 16.7521 34.0155 23.7064C30.8821 19.0064 28.5129 13.3642 27.1248 8.61328H20.1196V26.8394C20.1196 30.4312 17.1901 33.3604 13.5983 33.3604C10.0064 33.3604 7.07727 30.4312 7.07727 26.8394V8.61328H0.071369V26.8394C0.0458831 34.3034 6.12138 40.4295 13.585 40.4295C21.049 40.4295 27.1245 34.3034 27.1245 26.8394V23.7828C28.4871 26.623 30.1556 29.4886 32.1809 32.0362L27.8884 52.2108H35.0594L38.167 37.5765C40.8926 39.3214 44.026 40.4169 47.6178 40.4169C55.2979 40.4169 61.5518 34.125 61.5518 26.4446C61.5518 18.7771 55.2983 12.5235 47.6182 12.5235Z" fill="#6FDA44"/>
<path d="M82.9372 13.3129L87.4587 31.539L92.439 13.3129H98.3741L90.7195 39.6524H84.784L80.0844 21.3114L75.3971 39.6395H69.4619L61.8066 13.3003H67.7421L72.7221 31.5265L77.2436 13.3003H82.9368V13.3132L82.9372 13.3129ZM112.576 12.5232C104.87 12.5232 98.629 18.7767 98.629 26.4697C98.629 34.1756 104.883 40.4166 112.576 40.4166C120.281 40.4166 126.535 34.1756 126.535 26.4697C126.535 18.7642 120.281 12.5232 112.576 12.5232ZM112.576 34.685C108.041 34.685 104.373 31.0168 104.373 26.4826C104.373 21.9482 108.054 18.2803 112.576 18.2803C117.11 18.2803 120.778 21.9482 120.778 26.4826C120.778 31.0042 117.11 34.685 112.576 34.685ZM143.488 19.21C139.501 19.21 136.279 22.445 136.279 26.4188V39.6395H130.305V13.3129H136.279V17.3631C136.279 17.3631 138.826 13.3 144.061 13.3H145.895V19.21H143.488ZM163.535 25.451C167.776 23.0563 170.655 18.5093 170.655 13.3H164.681C164.681 17.6941 161.115 21.2604 156.721 21.2604H155.919V0.601562H149.945V39.6391H155.919V27.234H156.632C157.218 27.234 157.982 27.6163 158.326 28.0872L166.808 39.6395H173.967L163.535 25.451Z" fill="black"/>
</g>
<defs>
<clipPath id="clip0_407_16032">
<rect width="174" height="51.9912" fill="white" transform="translate(0 0.550781)"/>
</clipPath>
</defs>
</svg>
