<svg width="23" height="22" viewBox="0 0 23 22" fill="none" xmlns="http://www.w3.org/2000/svg">
<path d="M15.4368 14.259C14.7511 14.8692 13.8957 15.6303 12.3357 15.6303H11.4047C10.2787 15.6303 9.25336 15.2214 8.51739 14.4792C7.8003 13.7558 7.40399 12.7618 7.40399 11.6862V10.4093C7.40399 9.33363 7.8003 8.33975 8.51739 7.61638C9.25336 6.87412 10.2787 6.46525 11.4047 6.46525H12.3357C13.8957 6.46525 14.7511 7.2264 15.4368 7.83652C16.1476 8.47189 16.764 9.01283 18.4058 9.01283C18.6637 9.01283 18.909 8.99394 19.1543 8.94995C19.1543 8.94365 19.1481 8.93735 19.1481 8.93735C19.0474 8.69203 18.9342 8.4593 18.8021 8.22657L17.7013 6.32687C16.6949 4.58444 14.8329 3.50879 12.82 3.50879H10.6246C8.61175 3.50879 6.7498 4.58444 5.74335 6.32687L4.64254 8.22657C3.63608 9.96894 3.63608 12.1202 4.64254 13.8627L5.74335 15.7624C6.7498 17.5048 8.61175 18.5805 10.6246 18.5805H12.82C14.8329 18.5805 16.6949 17.5048 17.7013 15.7624L18.8021 13.8627C18.9342 13.63 19.0474 13.3972 19.1481 13.1519C19.1481 13.1456 19.1543 13.1393 19.1543 13.1393C18.909 13.1015 18.6637 13.0764 18.4058 13.0764C16.7703 13.0826 16.1539 13.6237 15.4368 14.259Z" fill="white"/>
<path d="M12.3357 7.61719H11.4048C9.68755 7.61719 8.56152 8.8438 8.56152 10.4101V11.6808C8.56152 13.2471 9.68755 14.4737 11.4048 14.4737H12.3357C14.833 14.4737 14.638 11.9261 18.4122 11.9261C18.7708 11.9261 19.1293 11.9575 19.4753 12.0267C19.5885 11.3788 19.5885 10.7183 19.4753 10.0704C19.1293 10.1333 18.7708 10.1711 18.4122 10.1711C14.638 10.1648 14.833 7.61719 12.3357 7.61719Z" fill="white"/>
<path d="M21.6457 12.9572C20.9978 12.4792 20.2618 12.171 19.4755 12.0263C19.4755 12.0325 19.4755 12.0388 19.4755 12.0451C19.4063 12.4163 19.3057 12.7874 19.161 13.146C19.8215 13.2528 20.4317 13.5045 20.9538 13.8819C20.9538 13.8882 20.9475 13.8945 20.9475 13.9008C20.6455 14.8758 20.1926 15.7941 19.6013 16.6308C19.0163 17.4548 18.3118 18.1845 17.5004 18.7947C15.8145 20.059 13.8142 20.7258 11.7006 20.7258C10.3923 20.7258 9.12795 20.4679 7.93276 19.9647C6.78162 19.4803 5.74371 18.7821 4.85677 17.8888C3.96983 17.0019 3.27161 15.964 2.78096 14.8128C2.27774 13.624 2.01984 12.3534 2.01984 11.0512C2.01984 9.74285 2.27774 8.47854 2.78096 7.28333C3.26532 6.13221 3.96355 5.0943 4.85677 4.20736C5.74371 3.32042 6.78162 2.62219 7.93276 2.13154C9.12166 1.62832 10.3923 1.37042 11.7006 1.37042C13.808 1.37042 15.8145 2.0372 17.5004 3.30156C18.3118 3.91172 19.0163 4.6351 19.6013 5.46543C20.1926 6.30204 20.6455 7.22045 20.9475 8.19544C20.9475 8.20174 20.9538 8.20803 20.9538 8.21433C20.4317 8.59802 19.8215 8.84334 19.161 8.9503C19.3057 9.3088 19.4063 9.67367 19.4755 10.0511C19.4755 10.0574 19.4755 10.0637 19.4755 10.0699C20.2618 9.92529 20.9978 9.61078 21.6457 9.13903C22.2622 8.67979 22.1426 8.16396 22.0482 7.86205C20.6896 3.43994 16.5694 0.225586 11.7006 0.225586C5.71855 0.225586 0.875 5.07544 0.875 11.0512C0.875 17.0334 5.72484 21.8769 11.7006 21.8769C16.5694 21.8769 20.6896 18.6626 22.0482 14.2404C22.1426 13.9259 22.2622 13.4102 21.6457 12.9572Z" fill="white"/>
<path d="M19.1605 8.95051C18.9152 8.98828 18.6698 9.01339 18.4119 9.01339C16.7701 9.01339 16.1537 8.46616 15.4429 7.83715C14.7573 7.22696 13.8955 6.46582 12.3418 6.46582H11.4108C10.2848 6.46582 9.25952 6.8747 8.52356 7.61694C7.80644 8.34031 7.41016 9.33419 7.41016 10.4098V11.6868C7.41016 12.7624 7.80644 13.7564 8.52356 14.4797C9.25952 15.222 10.2786 15.6309 11.4108 15.6309H12.3418C13.9018 15.6309 14.7573 14.8697 15.4429 14.2596C16.1537 13.6242 16.7701 13.0833 18.4119 13.0833C18.6698 13.0833 18.9152 13.1021 19.1605 13.1462C19.3052 12.7876 19.4058 12.4228 19.4751 12.0453C19.4751 12.039 19.4751 12.0328 19.4751 12.0265C19.1291 11.9636 18.7705 11.9321 18.4119 11.9321C14.6377 11.9321 14.8327 14.4797 12.3355 14.4797H11.4045C9.68728 14.4797 8.56126 13.253 8.56126 11.6868V10.4098C8.56126 8.84355 9.68728 7.61694 11.4045 7.61694H12.3355C14.8327 7.61694 14.6377 10.1645 18.4119 10.1645C18.7705 10.1645 19.1291 10.1331 19.4751 10.0702C19.4751 10.0639 19.4751 10.0576 19.4751 10.0513C19.4058 9.67388 19.2989 9.30279 19.1605 8.95051Z" fill="#0AE8F0"/>
<path d="M19.1605 8.95051C18.9152 8.98828 18.6698 9.01339 18.4119 9.01339C16.7701 9.01339 16.1537 8.46616 15.4429 7.83715C14.7573 7.22696 13.8955 6.46582 12.3418 6.46582H11.4108C10.2848 6.46582 9.25952 6.8747 8.52356 7.61694C7.80644 8.34031 7.41016 9.33419 7.41016 10.4098V11.6868C7.41016 12.7624 7.80644 13.7564 8.52356 14.4797C9.25952 15.222 10.2786 15.6309 11.4108 15.6309H12.3418C13.9018 15.6309 14.7573 14.8697 15.4429 14.2596C16.1537 13.6242 16.7701 13.0833 18.4119 13.0833C18.6698 13.0833 18.9152 13.1021 19.1605 13.1462C19.3052 12.7876 19.4058 12.4228 19.4751 12.0453C19.4751 12.039 19.4751 12.0328 19.4751 12.0265C19.1291 11.9636 18.7705 11.9321 18.4119 11.9321C14.6377 11.9321 14.8327 14.4797 12.3355 14.4797H11.4045C9.68728 14.4797 8.56126 13.253 8.56126 11.6868V10.4098C8.56126 8.84355 9.68728 7.61694 11.4045 7.61694H12.3355C14.8327 7.61694 14.6377 10.1645 18.4119 10.1645C18.7705 10.1645 19.1291 10.1331 19.4751 10.0702C19.4751 10.0639 19.4751 10.0576 19.4751 10.0513C19.4058 9.67388 19.2989 9.30279 19.1605 8.95051Z" fill="#006BFF"/>
</svg>
