<svg width="48" height="48" viewBox="0 0 48 48" fill="none" xmlns="http://www.w3.org/2000/svg">
<path d="M24 4C16.268 4 8 8.40172 8 17.4884C8 21.0892 10.6076 25.7776 13.7174 30.0886H34.2826C37.3924 25.7776 40 21.0892 40 17.4884C40 8.40172 31.732 4 24 4Z" fill="#73E34D"/>
<path fill-rule="evenodd" clip-rule="evenodd" d="M18.8906 30.0886V4.64764C20.5562 4.21486 22.2908 4 23.999 4C25.7076 4 27.4424 4.21494 29.1084 4.6479V30.0886H18.8906Z" fill="white"/>
<path d="M19.6238 37.3726C14.8866 32.064 8 23.3402 8 17.4884C8 8.40172 16.268 4 24 4C31.732 4 40 8.40172 40 17.4884C40 23.3402 33.1134 32.064 28.3762 37.3726" stroke="#2B8D42" stroke-width="3"/>
<path d="M15.3047 30.0059H32.6942" stroke="#2B8D42" stroke-width="3" stroke-linecap="square"/>
<path d="M18.8906 5.33203V30.0058" stroke="#2B8D42" stroke-width="3" stroke-linecap="square"/>
<path d="M29.1094 5.33203V30.0058" stroke="#2B8D42" stroke-width="3" stroke-linecap="square"/>
<path d="M29.1079 43.9996H18.8906V37.3838H29.1079V43.9996Z" fill="#73E34D"/>
<path d="M29.1079 43.9996H18.8906V37.3838H29.1079V43.9996Z" stroke="#2B8D42" stroke-width="3" stroke-linecap="square"/>
</svg>
