<svg width="48" height="48" viewBox="0 0 48 48" fill="none" xmlns="http://www.w3.org/2000/svg">
<path fill-rule="evenodd" clip-rule="evenodd" d="M19.0002 4H29.0002V8.79676C31.1172 9.49258 33.0392 10.6182 34.6628 12.0705L38.8208 9.66988L43.8208 18.3301L39.6656 20.7292C39.885 21.785 40.0002 22.879 40.0002 24C40.0002 25.121 39.885 26.215 39.6656 27.2708L43.8208 29.6698L38.8208 38.3302L34.6628 35.9296C33.0392 37.3818 31.1172 38.5074 29.0002 39.2032V44H19.0002V39.2032C16.8833 38.5074 14.9613 37.3818 13.3376 35.9296L9.17971 38.3302L4.17971 29.6698L8.33487 27.2708C8.11553 26.215 8.00025 25.121 8.00025 24C8.00025 22.879 8.11553 21.785 8.33487 20.7292L4.17969 18.3301L9.17969 9.66988L13.3376 12.0705C14.9613 10.6182 16.8833 9.49258 19.0002 8.79676V4ZM24 30C27.3138 30 30 27.3138 30 24C30 20.6862 27.3138 18 24 18C20.6862 18 18 20.6862 18 24C18 27.3138 20.6862 30 24 30Z" fill="#73E34D"/>
<path d="M29.0004 4H30.5004V2.5H29.0004V4ZM19.0005 4V2.5H17.5005V4H19.0005ZM29.0004 8.79676H27.5004V9.88268L28.532 10.2218L29.0004 8.79676ZM34.663 12.0705L33.663 13.1885L34.4726 13.9125L35.413 13.3695L34.663 12.0705ZM38.821 9.66988L40.12 8.91988L39.37 7.62084L38.071 8.37084L38.821 9.66988ZM43.821 18.3301L44.571 19.6292L45.87 18.8792L45.12 17.5801L43.821 18.3301ZM39.6658 20.7292L38.9158 19.4301L37.9766 19.9723L38.1972 21.0342L39.6658 20.7292ZM39.6658 27.2708L38.1972 26.9658L37.9766 28.0276L38.9158 28.57L39.6658 27.2708ZM43.821 29.6698L45.12 30.4198L45.87 29.1208L44.571 28.3708L43.821 29.6698ZM38.821 38.3302L38.071 39.6292L39.37 40.3792L40.12 39.0802L38.821 38.3302ZM34.663 35.9296L35.413 34.6306L34.4726 34.0874L33.663 34.8114L34.663 35.9296ZM29.0004 39.2032L28.532 37.7782L27.5004 38.1174V39.2032H29.0004ZM29.0004 44V45.5H30.5004V44H29.0004ZM19.0005 44H17.5005V45.5H19.0005V44ZM19.0005 39.2032H20.5004V38.1174L19.4688 37.7782L19.0005 39.2032ZM13.3379 35.9296L14.3379 34.8114L13.5284 34.0874L12.5879 34.6306L13.3379 35.9296ZM9.17992 38.3302L7.88088 39.0802L8.63088 40.3792L9.92992 39.6292L9.17992 38.3302ZM4.17992 29.6698L3.42992 28.3708L2.13088 29.1208L2.88088 30.4198L4.17992 29.6698ZM8.33508 27.2708L9.08508 28.57L10.0243 28.0276L9.80372 26.9658L8.33508 27.2708ZM8.33508 20.7292L9.80372 21.0342L10.0243 19.9723L9.08508 19.4301L8.33508 20.7292ZM4.1799 18.3301L2.88086 17.5801L2.13086 18.8792L3.4299 19.6292L4.1799 18.3301ZM9.1799 9.66988L9.9299 8.37084L8.63088 7.62084L7.88086 8.91988L9.1799 9.66988ZM13.3379 12.0705L12.5879 13.3695L13.5284 13.9125L14.3378 13.1885L13.3379 12.0705ZM19.0005 8.79676L19.4688 10.2218L20.5004 9.88268V8.79676H19.0005ZM29.0004 2.5H19.0005V5.5H29.0004V2.5ZM30.5004 8.79676V4H27.5004V8.79676H30.5004ZM35.663 10.9524C33.8882 9.36502 31.786 8.1334 29.4688 7.37176L28.532 10.2218C30.4488 10.8517 32.1906 11.8714 33.663 13.1885L35.663 10.9524ZM38.071 8.37084L33.913 10.7714L35.413 13.3695L39.571 10.9689L38.071 8.37084ZM45.12 17.5801L40.12 8.91988L37.522 10.4199L42.522 19.0801L45.12 17.5801ZM40.4158 22.0282L44.571 19.6292L43.071 17.0311L38.9158 19.4301L40.4158 22.0282ZM41.5004 24C41.5004 22.776 41.3746 21.5798 41.1344 20.424L38.1972 21.0342C38.3958 21.9904 38.5004 22.9822 38.5004 24H41.5004ZM41.1344 27.576C41.3746 26.4204 41.5004 25.224 41.5004 24H38.5004C38.5004 25.0178 38.3958 26.0096 38.1972 26.9658L41.1344 27.576ZM44.571 28.3708L40.4158 25.9718L38.9158 28.57L43.071 30.969L44.571 28.3708ZM40.12 39.0802L45.12 30.4198L42.522 28.9198L37.522 37.5802L40.12 39.0802ZM33.913 37.2286L38.071 39.6292L39.571 37.031L35.413 34.6306L33.913 37.2286ZM29.4688 40.6282C31.786 39.8666 33.8882 38.635 35.663 37.0476L33.663 34.8114C32.1906 36.1286 30.4488 37.1482 28.532 37.7782L29.4688 40.6282ZM30.5004 44V39.2032H27.5004V44H30.5004ZM19.0005 45.5H29.0004V42.5H19.0005V45.5ZM17.5005 39.2032V44H20.5004V39.2032H17.5005ZM12.3379 37.0476C14.1127 38.635 16.2148 39.8666 18.5321 40.6282L19.4688 37.7782C17.5521 37.1482 15.8104 36.1286 14.3379 34.8114L12.3379 37.0476ZM9.92992 39.6292L14.0879 37.2286L12.5879 34.6306L8.42992 37.031L9.92992 39.6292ZM2.88088 30.4198L7.88088 39.0802L10.479 37.5802L5.47896 28.9198L2.88088 30.4198ZM7.58508 25.9718L3.42992 28.3708L4.92992 30.969L9.08508 28.57L7.58508 25.9718ZM6.50046 24C6.50046 25.224 6.62636 26.4204 6.86644 27.576L9.80372 26.9658C9.60512 26.0096 9.50046 25.0178 9.50046 24H6.50046ZM6.86644 20.424C6.62636 21.5798 6.50046 22.776 6.50046 24H9.50046C9.50046 22.9822 9.6051 21.9904 9.80372 21.0342L6.86644 20.424ZM3.4299 19.6292L7.58508 22.0282L9.08508 19.4301L4.9299 17.0311L3.4299 19.6292ZM7.88086 8.91988L2.88086 17.5801L5.47894 19.0801L10.4789 10.4199L7.88086 8.91988ZM14.0879 10.7714L9.9299 8.37084L8.4299 10.9689L12.5879 13.3695L14.0879 10.7714ZM18.5321 7.37176C16.2148 8.1334 14.1127 9.365 12.3379 10.9524L14.3378 13.1885C15.8104 11.8714 17.5521 10.8517 19.4688 10.2218L18.5321 7.37176ZM17.5005 4V8.79676H20.5004V4H17.5005ZM28.5002 24C28.5002 26.4852 26.4854 28.5 24.0002 28.5V31.5C28.1424 31.5 31.5002 28.1422 31.5002 24H28.5002ZM24.0002 19.5C26.4854 19.5 28.5002 21.5148 28.5002 24H31.5002C31.5002 19.8579 28.1424 16.5 24.0002 16.5V19.5ZM19.5002 24C19.5002 21.5148 21.515 19.5 24.0002 19.5V16.5C19.8581 16.5 16.5002 19.8579 16.5002 24H19.5002ZM24.0002 28.5C21.515 28.5 19.5002 26.4852 19.5002 24H16.5002C16.5002 28.1422 19.8581 31.5 24.0002 31.5V28.5Z" fill="#2B8D42"/>
</svg>
