<svg width="898" height="15" viewBox="0 0 898 15" fill="none" xmlns="http://www.w3.org/2000/svg">
<path d="M891 14.9248C894.866 14.9248 898 11.7908 898 7.9248C898 4.05881 894.866 0.924805 891 0.924805C887.134 0.924805 884 4.05881 884 7.9248C884 11.7908 887.134 14.9248 891 14.9248Z" fill="#3FBA00"/>
<path d="M7 7.55078H891" stroke="#E8E8E8"/>
<path d="M7 14.9248C10.866 14.9248 14 11.7908 14 7.9248C14 4.05881 10.866 0.924805 7 0.924805C3.13401 0.924805 0 4.05881 0 7.9248C0 11.7908 3.13401 14.9248 7 14.9248Z" fill="#3FBA00"/>
<path d="M306.001 14.9248C309.867 14.9248 313.001 11.7908 313.001 7.9248C313.001 4.05881 309.867 0.924805 306.001 0.924805C302.135 0.924805 299.001 4.05881 299.001 7.9248C299.001 11.7908 302.135 14.9248 306.001 14.9248Z" fill="#3FBA00"/>
<path d="M598 14.9248C601.866 14.9248 605 11.7908 605 7.9248C605 4.05881 601.866 0.924805 598 0.924805C594.134 0.924805 591 4.05881 591 7.9248C591 11.7908 594.134 14.9248 598 14.9248Z" fill="#3FBA00"/>
</svg>
