<svg width="882" height="632" viewBox="0 0 882 632" fill="none" xmlns="http://www.w3.org/2000/svg">
<path d="M260.763 217.082V137.835C260.792 132.006 263.128 126.425 267.26 122.314C271.392 118.203 276.984 115.895 282.813 115.895H626.219C632.048 115.895 637.64 118.203 641.772 122.314C645.904 126.425 648.24 132.006 648.269 137.835V260.477" stroke="#E6E6E6" stroke-width="2.205" stroke-linecap="round" stroke-linejoin="round" stroke-dasharray="6.61 22.05"/>
<path d="M536.542 78.7625H429.644V153.027H536.542V78.7625Z" fill="#E6E6E6"/>
<path d="M457.207 115.19C460.426 115.19 460.867 113.426 460.867 111.838C460.837 110.567 460.719 109.3 460.514 108.045C460.291 106.808 460.166 105.554 460.139 104.297C460.139 100.129 462.851 98.3655 466.754 98.3655H467.724V100.857H466.909C464.241 100.857 463.337 102.312 463.337 104.738C463.354 105.818 463.457 106.894 463.645 107.957C463.84 109.094 463.944 110.244 463.954 111.397C464.103 112.465 463.855 113.551 463.258 114.449C462.661 115.347 461.755 115.995 460.713 116.27C461.769 116.561 462.68 117.234 463.267 118.16C463.854 119.085 464.075 120.196 463.888 121.275C463.879 122.421 463.775 123.564 463.579 124.693C463.395 125.75 463.292 126.818 463.27 127.89C463.27 130.426 464.307 131.815 466.842 131.815H467.658V134.505H466.688C462.94 134.505 460.073 132.874 460.073 128.309C460.101 127.067 460.226 125.828 460.448 124.605C460.674 123.36 460.807 122.099 460.845 120.834C460.845 119.445 460.404 117.483 457.185 117.483L457.207 115.19Z" fill="#9E9E9E"/>
<path d="M510.193 117.593C506.974 117.593 506.533 119.357 506.533 120.923C506.562 122.194 506.68 123.461 506.886 124.715C507.098 125.962 507.223 127.222 507.26 128.486C507.26 132.631 504.548 134.395 500.645 134.395H499.697V131.904H500.535C503.203 131.904 504.107 130.47 504.107 128.023C504.09 126.95 503.987 125.881 503.799 124.825C503.598 123.689 503.487 122.539 503.468 121.386C503.314 120.311 503.562 119.218 504.164 118.314C504.766 117.411 505.68 116.762 506.731 116.491C505.676 116.219 504.758 115.566 504.156 114.658C503.553 113.75 503.308 112.651 503.468 111.573C503.483 110.42 503.594 109.269 503.799 108.134C503.988 107.056 504.091 105.964 504.107 104.87C504.107 102.357 503.071 100.945 500.535 100.945H499.719V98.3655H500.667C504.416 98.3655 507.282 99.9972 507.282 104.562C507.246 105.804 507.121 107.042 506.908 108.266C506.704 109.476 506.586 110.699 506.555 111.926C506.555 113.337 506.996 115.278 510.215 115.278L510.193 117.593Z" fill="#9E9E9E"/>
<path d="M374.278 180.325H152.036V402.567H374.278V180.325Z" fill="#1F3C11"/>
<path d="M288.373 277.83H216.975V285.812H288.373V277.83Z" fill="white"/>
<path d="M301.27 255.581H237.457V263.563H301.27V255.581Z" fill="#6A8500"/>
<path d="M331.588 339.923H298.292V347.905H331.588V339.923Z" fill="#6A8500"/>
<path d="M297.937 317.454H264.642V325.436H297.937V317.454Z" fill="#6A8500"/>
<path d="M322.526 297.146H237.457V305.128H322.526V297.146Z" fill="white"/>
<path d="M222.484 297.146H190.489V305.128H222.484V297.146Z" fill="white"/>
<path d="M254.347 318.137H222.353V326.12H254.347V318.137Z" fill="white"/>
<path d="M224.05 360.958H192.056V368.941H224.05V360.958Z" fill="white"/>
<path d="M202.023 277.83H170.028V285.812H202.023V277.83Z" fill="white"/>
<path d="M166.587 197.568C168.669 197.568 170.358 195.88 170.358 193.797C170.358 191.715 168.669 190.027 166.587 190.027C164.505 190.027 162.816 191.715 162.816 193.797C162.816 195.88 164.505 197.568 166.587 197.568Z" fill="white"/>
<path d="M177.79 197.568C179.872 197.568 181.561 195.88 181.561 193.797C181.561 191.715 179.872 190.027 177.79 190.027C175.708 190.027 174.02 191.715 174.02 193.797C174.02 195.88 175.708 197.568 177.79 197.568Z" fill="white"/>
<path d="M188.329 197.568C190.412 197.568 192.1 195.88 192.1 193.797C192.1 191.715 190.412 190.027 188.329 190.027C186.247 190.027 184.559 191.715 184.559 193.797C184.559 195.88 186.247 197.568 188.329 197.568Z" fill="#6A8500"/>
<path d="M202.023 217.082H170.028V225.064H202.023V217.082Z" fill="white"/>
<path d="M222.484 237.059H190.489V245.041H222.484V237.059Z" fill="white"/>
<path d="M301.27 237.059H237.457V245.041H301.27V237.059Z" fill="#6A8500"/>
<path d="M222.484 255.581H190.489V263.563H222.484V255.581Z" fill="white"/>
<path d="M280.718 217.082H214.811V225.064H280.718V217.082Z" fill="white"/>
<path d="M202.926 339.923H170.932V347.905H202.926V339.923Z" fill="white"/>
<path d="M281.6 339.923H215.692V347.905H281.6V339.923Z" fill="white"/>
<path d="M302.613 360.914H236.705V368.896H302.613V360.914Z" fill="white"/>
<path d="M341.289 217.082H294.499V225.064H341.289V217.082Z" fill="white"/>
<path d="M434.053 260.476L445.63 324.84L413.657 327.222L420.052 275.603L434.053 260.476Z" fill="#F4A28C"/>
<path opacity="0.31" d="M418.708 283.629C422.126 282.71 425.195 280.8 427.528 278.138C427.528 278.138 427.329 287.267 417.495 296.484L418.708 283.629Z" fill="#CE8172"/>
<path d="M411.806 256.883C411.806 256.883 408.719 271.788 410.086 282.108C410.21 283.111 410.533 284.08 411.036 284.957C411.538 285.835 412.21 286.604 413.012 287.219C413.815 287.835 414.731 288.285 415.709 288.543C416.686 288.801 417.706 288.862 418.707 288.723C423.889 287.973 430.68 285.437 433.304 277.698L439.368 265.019C440.318 262.352 440.417 259.456 439.651 256.731C438.884 254.006 437.291 251.586 435.09 249.805C427.285 242.55 413.217 247.71 411.806 256.883Z" fill="#F4A28C"/>
<path d="M410.35 266.364L405.455 271.7C405.176 272.001 404.977 272.367 404.878 272.766C404.778 273.164 404.782 273.581 404.888 273.977C404.993 274.374 405.198 274.737 405.482 275.033C405.767 275.329 406.122 275.548 406.514 275.669L412.181 277.455L410.35 266.364Z" fill="#F4A28C"/>
<path d="M438.794 280.653L444.064 260.631C444.064 260.631 455.619 258.669 452.157 251.128C448.695 243.586 444.064 248.592 443.91 239.926C443.756 231.261 436.722 229.519 431.716 234.37C426.711 239.221 429.048 232.429 422.896 231.503C416.744 230.577 415.025 233.333 414.87 238.118C414.716 242.903 405.764 237.787 403.426 243.763C401.089 249.738 400.78 255.538 416.259 256.53C431.738 257.522 420.625 270.201 438.794 280.653Z" fill="#1F3C11"/>
<path d="M426.359 271.7C426.359 271.7 427.153 265.901 431.475 266.849C435.797 267.797 434.694 276.22 428.653 276.308L426.359 271.7Z" fill="#F4A28C"/>
<path opacity="0.45" d="M437.824 581.415C555.657 581.415 651.179 559.913 651.179 533.39C651.179 506.866 555.657 485.365 437.824 485.365C319.99 485.365 224.468 506.866 224.468 533.39C224.468 559.913 319.99 581.415 437.824 581.415Z" fill="#E6E6E6" fill-opacity="0.4"/>
<path d="M405.236 317.829C405.236 317.829 315.007 291.766 315.426 357.298C315.757 406.801 371.279 511.891 371.279 511.891H485.939C485.939 511.891 572.926 378.466 530.612 335.491C488.298 292.515 478.596 329.471 405.236 317.829Z" fill="white"/>
<path d="M371.101 527.944L440.867 546.752L502.762 515.353L512.155 498.595H449.775H350.528L371.101 527.944Z" fill="#1F3C11"/>
<path opacity="0.08" d="M479.455 327.222C479.455 327.222 445.631 344.2 455.333 432.18C458.067 456.942 449.776 463.05 449.776 463.05L353.087 472.73L371.278 511.868H485.938C485.938 511.868 536.256 429.975 540.225 387.793C544.194 345.611 479.455 327.222 479.455 327.222Z" fill="black"/>
<path d="M425.565 527.921C425.565 527.921 449.048 536.146 441 546.752C432.952 557.358 420.185 539.74 420.185 539.74L425.565 527.921Z" fill="white"/>
<path d="M426.183 523.82C426.183 523.82 331.368 475.31 323.188 501.153C315.007 526.995 380.518 541.923 422.722 543.467L426.183 523.82Z" fill="#1F3C11"/>
<path d="M449.225 527.635C449.225 527.635 524.922 452.665 540.445 474.715C555.969 496.765 498.242 530.964 458.486 545.275L449.225 527.635Z" fill="#1F3C11"/>
<path d="M452.202 533.28C452.202 533.28 429.777 553.257 442.765 559.144C455.752 565.032 458.486 545.275 458.486 545.275L452.202 533.28Z" fill="white"/>
<path d="M473.261 345.48C472.908 320.232 503.359 306.804 521.55 324.29C534.891 337.123 547.9 356.372 554.317 384.905C570.523 456.766 599.651 445.763 613.852 423.096C628.052 400.428 625.318 350.595 625.318 350.595L651.182 351.08C651.182 351.08 673.387 480.47 578.285 485.277C505.079 488.959 474.077 406.007 473.261 345.48Z" fill="white"/>
<path opacity="0.54" d="M473.261 345.48C472.908 320.232 503.359 306.804 521.55 324.29C534.891 337.123 547.9 356.372 554.317 384.905C570.523 456.766 599.651 445.763 613.852 423.096C628.052 400.428 625.318 350.595 625.318 350.595L651.182 351.08C651.182 351.08 673.387 480.47 578.285 485.277C505.079 488.959 474.077 406.007 473.261 345.48Z" fill="white"/>
<path d="M653.43 298.381H643V389.998H653.43V298.381Z" fill="#1F3C11"/>
<path d="M380.869 486.974L372.776 413.283H496.521L484.173 490.744L485.937 500.667L379.568 501.505L380.869 486.974Z" fill="#6A8500"/>
<path opacity="0.28" d="M245.062 402.545C245.062 402.545 259.924 312.294 355.687 313.441L278.887 402.545H245.062Z" fill="black"/>
<path d="M435.864 463.58C441.721 463.58 446.47 458.831 446.47 452.973C446.47 447.116 441.721 442.367 435.864 442.367C430.006 442.367 425.258 447.116 425.258 452.973C425.258 458.831 430.006 463.58 435.864 463.58Z" fill="white"/>
<path d="M358.004 318.247C352.434 315.336 346.003 314.523 339.884 315.955C333.764 317.388 328.363 320.972 324.664 326.053C305.834 351.212 265.129 411.033 266.915 454.428C269.341 510.766 392.203 502.938 392.203 502.938L389.778 481.638C389.778 481.638 315.315 476.279 335.866 438.905C349.823 413.481 394.166 338.07 358.004 318.247Z" fill="white"/>
<path opacity="0.54" d="M358.004 318.247C352.434 315.336 346.003 314.523 339.884 315.955C333.764 317.388 328.363 320.972 324.664 326.053C305.834 351.212 265.129 411.033 266.915 454.428C269.341 510.766 392.203 502.938 392.203 502.938L389.778 481.638C389.778 481.638 315.315 476.279 335.866 438.905C349.823 413.481 394.166 338.07 358.004 318.247Z" fill="white"/>
<path d="M631.821 350.705C631.821 350.705 628.91 328.39 648.667 330.992C668.424 333.594 668.247 349.448 651.181 351.058L631.821 350.705Z" fill="#F4A28C"/>
<path d="M703.947 235.163H591.029V307.354H703.947V235.163Z" fill="#6A8500"/>
<path d="M632.836 287.841C632.246 287.844 631.672 287.65 631.205 287.29L614.072 273.751C613.762 273.5 613.511 273.185 613.335 272.827C613.16 272.469 613.065 272.077 613.058 271.678C613.06 271.281 613.15 270.889 613.321 270.53C613.493 270.172 613.742 269.856 614.05 269.605L631.183 255.824C631.451 255.587 631.765 255.407 632.105 255.294C632.445 255.182 632.804 255.14 633.161 255.171C633.518 255.201 633.865 255.304 634.18 255.472C634.496 255.641 634.775 255.872 634.999 256.151C635.223 256.431 635.388 256.753 635.484 257.098C635.58 257.442 635.605 257.803 635.557 258.158C635.51 258.513 635.391 258.855 635.207 259.162C635.024 259.47 634.78 259.737 634.49 259.948L619.959 271.656L634.49 283.122C635.036 283.563 635.386 284.202 635.465 284.899C635.543 285.597 635.344 286.297 634.909 286.849C634.664 287.163 634.349 287.416 633.989 287.588C633.63 287.76 633.235 287.847 632.836 287.841Z" fill="white"/>
<path d="M663.705 287.841C663.155 287.843 662.618 287.673 662.169 287.356C661.72 287.039 661.381 286.589 661.199 286.07C661.017 285.551 661.001 284.988 661.154 284.46C661.307 283.932 661.62 283.464 662.051 283.122L676.582 271.656L662.029 259.948C661.486 259.503 661.14 258.863 661.066 258.166C660.992 257.469 661.195 256.77 661.632 256.221C661.85 255.95 662.12 255.725 662.426 255.558C662.731 255.391 663.067 255.286 663.413 255.25C663.759 255.213 664.109 255.244 664.443 255.343C664.777 255.442 665.088 255.605 665.359 255.824L682.491 269.606C682.8 269.854 683.049 270.17 683.217 270.53C683.385 270.889 683.469 271.282 683.462 271.678C683.458 272.075 683.367 272.467 683.196 272.825C683.024 273.183 682.776 273.499 682.469 273.751L665.337 287.29C664.869 287.65 664.295 287.844 663.705 287.841Z" fill="white"/>
<path d="M641.062 287.841C640.69 287.842 640.323 287.767 639.981 287.62C639.664 287.477 639.378 287.273 639.139 287.02C638.901 286.766 638.715 286.468 638.592 286.142C638.469 285.816 638.412 285.47 638.423 285.122C638.435 284.774 638.514 284.431 638.658 284.114L651.139 256.772C651.431 256.132 651.966 255.634 652.625 255.388C653.285 255.142 654.015 255.168 654.656 255.461C655.296 255.753 655.794 256.288 656.04 256.947C656.286 257.607 656.26 258.337 655.968 258.977L643.487 286.297C643.27 286.758 642.927 287.147 642.498 287.42C642.069 287.694 641.571 287.839 641.062 287.841Z" fill="white"/>
<path d="M390.284 486.577C390.284 486.577 409.159 479.962 413.679 487.79C418.199 495.618 411.474 506.268 392.158 502.939L390.284 486.577Z" fill="#F4A28C"/>
</svg>
