<svg width="48" height="48" viewBox="0 0 48 48" fill="none" xmlns="http://www.w3.org/2000/svg">
<rect x="12" y="4" width="24" height="38" fill="#73E34D"/>
<path d="M13.999 46C12.899 46 11.9574 45.6083 11.174 44.825C10.3907 44.0417 9.99902 43.1 9.99902 42V6C9.99902 4.9 10.3907 3.95833 11.174 3.175C11.9574 2.39167 12.899 2 13.999 2H33.999C35.099 2 36.0407 2.39167 36.824 3.175C37.6074 3.95833 37.999 4.9 37.999 6V42C37.999 43.1 37.6074 44.0417 36.824 44.825C36.0407 45.6083 35.099 46 33.999 46H13.999ZM13.999 36V42H33.999V36H13.999ZM23.999 41C24.5657 41 25.0407 40.8083 25.424 40.425C25.8074 40.0417 25.999 39.5667 25.999 39C25.999 38.4333 25.8074 37.9583 25.424 37.575C25.0407 37.1917 24.5657 37 23.999 37C23.4324 37 22.9574 37.1917 22.574 37.575C22.1907 37.9583 21.999 38.4333 21.999 39C21.999 39.5667 22.1907 40.0417 22.574 40.425C22.9574 40.8083 23.4324 41 23.999 41ZM13.999 32H33.999V12H13.999V32ZM13.999 8H33.999V6H13.999V8Z" fill="white"/>
</svg>
