<svg width="63" height="66" viewBox="0 0 63 66" fill="none" xmlns="http://www.w3.org/2000/svg">
<path d="M62.436 0.371094C33.136 6.90109 13.666 38.6211 13.666 38.6211L21.086 45.4411L28.466 52.2511C28.466 52.2511 58.426 30.1211 62.436 0.371094Z" fill="#FFD44D"/>
<path d="M40.7959 10.4816L53.9959 22.6016C53.9959 22.6016 60.3359 12.2916 61.9959 0.601562C54.2551 2.19547 46.9948 5.57904 40.7959 10.4816Z" fill="#F0457D"/>
<path d="M37.3062 34.211C40.885 34.211 43.7862 31.3098 43.7862 27.731C43.7862 24.1522 40.885 21.251 37.3062 21.251C33.7274 21.251 30.8262 24.1522 30.8262 27.731C30.8262 31.3098 33.7274 34.211 37.3062 34.211Z" fill="white"/>
<path d="M18.5156 56.2009C19.4727 55.1513 20.0212 53.793 20.0614 52.3731C20.1016 50.9533 19.6307 49.5661 18.7346 48.4641C17.8384 47.362 16.5764 46.6183 15.1782 46.3681C13.7799 46.1179 12.3383 46.378 11.1156 47.1009C10.4241 47.5058 9.82433 48.05 9.35435 48.699C8.88438 49.348 8.55449 50.0876 8.38563 50.8709L6.52563 58.6509C6.46735 58.8976 6.47567 59.1553 6.54973 59.3976C6.62379 59.64 6.76094 59.8584 6.94713 60.0303C7.13331 60.2022 7.36185 60.3216 7.60935 60.3762C7.85684 60.4308 8.11439 60.4186 8.35562 60.3409L16.0656 57.8009C17.0054 57.4853 17.8488 56.9345 18.5156 56.2009Z" fill="#FFD44D"/>
<path d="M17.086 53.2312C17.5577 52.7267 17.8309 52.0685 17.8551 51.3783C17.8793 50.688 17.6529 50.0123 17.2178 49.476C16.7826 48.9397 16.168 48.5789 15.4876 48.4604C14.8072 48.3419 14.1068 48.4736 13.516 48.8312C13.1817 49.0264 12.8918 49.2891 12.6645 49.6024C12.4373 49.9157 12.2777 50.2729 12.196 50.6512L11.306 54.4212C11.2793 54.5395 11.2843 54.6628 11.3204 54.7786C11.3565 54.8943 11.4225 54.9985 11.5118 55.0807C11.601 55.1628 11.7103 55.2199 11.8287 55.2464C11.947 55.2728 12.0703 55.2676 12.186 55.2312L15.906 54.0112C16.3558 53.849 16.7604 53.5816 17.086 53.2312Z" fill="#FF9515"/>
<path d="M24.1558 25.0107L9.89582 27.5207L0.46582 39.4807L13.6258 38.6307" fill="#0099F5"/>
<path d="M40.9962 40.4707L39.7062 54.8907L28.5862 65.3107L28.3262 52.1207" fill="#0099F5"/>
</svg>
