<svg width="76" height="70" viewBox="0 0 76 70" fill="none" xmlns="http://www.w3.org/2000/svg">
<path d="M49.8693 0.831055H28.1393C25.8694 0.831055 24.0293 2.67116 24.0293 4.94105V15.0011C24.0293 17.2709 25.8694 19.1111 28.1393 19.1111H49.8693C52.1392 19.1111 53.9793 17.2709 53.9793 15.0011V4.94105C53.9793 2.67116 52.1392 0.831055 49.8693 0.831055Z" fill="#0064F4"/>
<path d="M47.3996 0.831055H25.6696C23.3997 0.831055 21.5596 2.67116 21.5596 4.94105V15.0011C21.5596 17.2709 23.3997 19.1111 25.6696 19.1111H47.3996C49.6695 19.1111 51.5096 17.2709 51.5096 15.0011V4.94105C51.5096 2.67116 49.6695 0.831055 47.3996 0.831055Z" fill="#0099F5"/>
<path d="M46 0.831055H50.6C51.5027 0.833702 52.3674 1.19414 53.0048 1.83335C53.6421 2.47256 54 3.3384 54 4.24105V15.6911" stroke="#231F20" stroke-width="1.5" stroke-miterlimit="10"/>
<path d="M47.3996 0.831055H25.6696C23.3997 0.831055 21.5596 2.67116 21.5596 4.94105V15.0011C21.5596 17.2709 23.3997 19.1111 25.6696 19.1111H47.3996C49.6695 19.1111 51.5096 17.2709 51.5096 15.0011V4.94105C51.5096 2.67116 49.6695 0.831055 47.3996 0.831055Z" stroke="#231F20" stroke-width="1.5" stroke-miterlimit="10"/>
<path d="M49.8693 25.4111H28.1393C25.8694 25.4111 24.0293 27.2512 24.0293 29.5211V39.5811C24.0293 41.851 25.8694 43.6911 28.1393 43.6911H49.8693C52.1392 43.6911 53.9793 41.851 53.9793 39.5811V29.5211C53.9793 27.2512 52.1392 25.4111 49.8693 25.4111Z" fill="#BC175A"/>
<path d="M47.3996 25.4111H25.6696C23.3997 25.4111 21.5596 27.2512 21.5596 29.5211V39.5811C21.5596 41.851 23.3997 43.6911 25.6696 43.6911H47.3996C49.6695 43.6911 51.5096 41.851 51.5096 39.5811V29.5211C51.5096 27.2512 49.6695 25.4111 47.3996 25.4111Z" fill="#F0457D"/>
<path d="M46 25.4111H50.6C51.5027 25.4138 52.3674 25.7742 53.0048 26.4134C53.6421 27.0526 54 27.9185 54 28.8211V40.2811" stroke="#231F20" stroke-width="1.5" stroke-miterlimit="10"/>
<path d="M47.3996 25.4111H25.6696C23.3997 25.4111 21.5596 27.2512 21.5596 29.5211V39.5811C21.5596 41.851 23.3997 43.6911 25.6696 43.6911H47.3996C49.6695 43.6911 51.5096 41.851 51.5096 39.5811V29.5211C51.5096 27.2512 49.6695 25.4111 47.3996 25.4111Z" stroke="#231F20" stroke-width="1.5" stroke-miterlimit="10"/>
<path d="M49.8693 49.9912H28.1393C25.8694 49.9912 24.0293 51.8313 24.0293 54.1012V64.1612C24.0293 66.4311 25.8694 68.2712 28.1393 68.2712H49.8693C52.1392 68.2712 53.9793 66.4311 53.9793 64.1612V54.1012C53.9793 51.8313 52.1392 49.9912 49.8693 49.9912Z" fill="#FF9515"/>
<path d="M47.3996 49.9912H25.6696C23.3997 49.9912 21.5596 51.8313 21.5596 54.1012V64.1612C21.5596 66.4311 23.3997 68.2712 25.6696 68.2712H47.3996C49.6695 68.2712 51.5096 66.4311 51.5096 64.1612V54.1012C51.5096 51.8313 49.6695 49.9912 47.3996 49.9912Z" fill="#FFD44D"/>
<path d="M46 49.9912H50.6C51.0478 49.9925 51.491 50.082 51.9042 50.2546C52.3174 50.4272 52.6926 50.6795 53.0083 50.997C53.324 51.3146 53.5741 51.6913 53.7443 52.1055C53.9144 52.5197 54.0013 52.9634 54 53.4112V64.8612" stroke="#231F20" stroke-width="1.5" stroke-miterlimit="10"/>
<path d="M47.3996 49.9912H25.6696C23.3997 49.9912 21.5596 51.8313 21.5596 54.1012V64.1612C21.5596 66.4311 23.3997 68.2712 25.6696 68.2712H47.3996C49.6695 68.2712 51.5096 66.4311 51.5096 64.1612V54.1012C51.5096 51.8313 49.6695 49.9912 47.3996 49.9912Z" stroke="#231F20" stroke-width="1.5" stroke-miterlimit="10"/>
<path d="M54 9.9707H62.09C65.3443 9.97865 68.4626 11.277 70.761 13.5809C73.0593 15.8849 74.35 19.0064 74.35 22.2607C74.35 25.5202 73.0552 28.6462 70.7503 30.951C68.4455 33.2559 65.3195 34.5507 62.06 34.5507H54" stroke="#231F20" stroke-width="1.5" stroke-miterlimit="10"/>
<path d="M21.5597 34.5508H13.4797C10.2193 34.5508 7.09222 35.8453 4.78581 38.1498C2.4794 40.4544 1.18234 43.5804 1.17969 46.8408C1.18234 50.1012 2.4794 53.2272 4.78581 55.5317C7.09222 57.8363 10.2193 59.1308 13.4797 59.1308H21.5597" stroke="#231F20" stroke-width="1.5" stroke-miterlimit="10"/>
</svg>
