<svg width="91" height="91" viewBox="0 0 91 91" fill="none" xmlns="http://www.w3.org/2000/svg">
<path d="M45.666 83.0508C66.3767 83.0508 83.166 66.2615 83.166 45.5508C83.166 24.8401 66.3767 8.05078 45.666 8.05078C24.9553 8.05078 8.16602 24.8401 8.16602 45.5508C8.16602 66.2615 24.9553 83.0508 45.666 83.0508Z" fill="#73E34D"/>
<path d="M45.666 56.8008C51.8792 56.8008 56.916 51.764 56.916 45.5508C56.916 39.3376 51.8792 34.3008 45.666 34.3008C39.4528 34.3008 34.416 39.3376 34.416 45.5508C34.416 51.764 39.4528 56.8008 45.666 56.8008Z" fill="white"/>
<path d="M45.666 83.0508C66.3767 83.0508 83.166 66.2615 83.166 45.5508C83.166 24.8401 66.3767 8.05078 45.666 8.05078C24.9553 8.05078 8.16602 24.8401 8.16602 45.5508C8.16602 66.2615 24.9553 83.0508 45.666 83.0508Z" stroke="#2B8D42" stroke-width="5.63043"/>
<path d="M45.666 56.8008C51.8792 56.8008 56.916 51.764 56.916 45.5508C56.916 39.3376 51.8792 34.3008 45.666 34.3008C39.4528 34.3008 34.416 39.3376 34.416 45.5508C34.416 51.764 39.4528 56.8008 45.666 56.8008Z" stroke="#2B8D42" stroke-width="5.63043"/>
<path d="M56.916 45.5508V81.1758" stroke="#2B8D42" stroke-width="5.63043"/>
<path d="M51.2896 55.293L20.4375 73.1055" stroke="#2B8D42" stroke-width="5.63043"/>
<path d="M51.291 35.8066L82.143 53.6193" stroke="#2B8D42" stroke-width="5.63043"/>
<path d="M40.0436 55.2928L9.19141 37.4805" stroke="#2B8D42" stroke-width="5.63043"/>
<path d="M40.041 35.8105L70.8934 17.998" stroke="#2B8D42" stroke-width="5.63043"/>
<path d="M34.416 45.5518V9.92676" stroke="#2B8D42" stroke-width="5.63043"/>
</svg>
