<svg width="72" height="78" viewBox="0 0 72 78" fill="none" xmlns="http://www.w3.org/2000/svg">
<path d="M53.1338 4.25132L54.6338 8.84132C54.8238 9.42336 55.1932 9.93032 55.689 10.2896C56.1848 10.6489 56.7815 10.842 57.3938 10.8413H62.2238C62.8377 10.839 63.4365 11.0316 63.934 11.3914C64.4314 11.7511 64.8019 12.2594 64.992 12.8432C65.1821 13.4269 65.1821 14.0559 64.9919 14.6396C64.8018 15.2233 64.4313 15.7316 63.9338 16.0913L60.0238 18.9313C59.528 19.2929 59.1588 19.8016 58.9685 20.385C58.7782 20.9684 58.7766 21.5969 58.9638 22.1813L60.4638 26.7713C60.6531 27.3558 60.6525 27.9853 60.4622 28.5694C60.2718 29.1536 59.9015 29.6626 59.4041 30.0233C58.9068 30.3841 58.3081 30.5782 57.6937 30.5779C57.0792 30.5775 56.4807 30.3827 55.9838 30.0213L52.0838 27.1813C51.5867 26.8203 50.9882 26.6259 50.3738 26.6259C49.7595 26.6259 49.1609 26.8203 48.6638 27.1813L44.7638 30.0213C44.2669 30.3613 43.6768 30.5389 43.0748 30.5294C42.4728 30.52 41.8885 30.3241 41.4025 29.9686C40.9165 29.6132 40.5528 29.1158 40.3614 28.5449C40.17 27.974 40.1603 27.3579 40.3338 26.7813L41.8238 22.1913C42.0142 21.6072 42.0141 20.9776 41.8236 20.3935C41.6331 19.8094 41.262 19.3009 40.7638 18.9413L36.8638 16.1013C36.367 15.7421 35.9969 15.2347 35.8065 14.652C35.6161 14.0692 35.6153 13.4412 35.8041 12.8579C35.993 12.2747 36.3618 11.7663 36.8576 11.4058C37.3535 11.0453 37.9508 10.8512 38.5638 10.8513H43.3338C43.9474 10.8526 44.5457 10.6598 45.0432 10.3006C45.5407 9.94142 45.9119 9.43415 46.1038 8.85131L47.5938 4.26131C47.7761 3.66957 48.1429 3.15169 48.6407 2.78346C49.1384 2.41522 49.741 2.21597 50.3601 2.21485C50.9793 2.21373 51.5826 2.41081 52.0817 2.77725C52.5807 3.14368 52.9495 3.66024 53.1338 4.25132Z" fill="black" stroke="#221F20" stroke-width="1.5" stroke-miterlimit="10"/>
<path d="M53.1337 2.84105L54.6337 7.43105C54.8237 8.01309 55.193 8.52006 55.6888 8.87933C56.1846 9.23859 56.7814 9.43172 57.3937 9.43105H62.2237C62.837 9.43237 63.4343 9.62748 63.9302 9.98851C64.4261 10.3495 64.7952 10.858 64.9848 11.4414C65.1745 12.0247 65.1749 12.653 64.9862 13.2366C64.7974 13.8203 64.429 14.3293 63.9337 14.6911L60.0237 17.5511C59.5279 17.9127 59.1586 18.4213 58.9684 19.0047C58.7781 19.5881 58.7764 20.2167 58.9637 20.8011L60.4637 25.3911C60.653 25.9756 60.6524 26.605 60.462 27.1892C60.2717 27.7734 59.9013 28.2823 59.404 28.6431C58.9067 29.0039 58.3079 29.198 57.6935 29.1976C57.0791 29.1972 56.4806 29.0024 55.9837 28.6411L52.0837 25.8011C51.5866 25.44 50.988 25.2456 50.3737 25.2456C49.7593 25.2456 49.1608 25.44 48.6637 25.8011L44.7637 28.6411C44.2658 28.9929 43.6697 29.179 43.06 29.1727C42.4503 29.1664 41.8582 28.9681 41.3676 28.606C40.8771 28.2439 40.5132 27.7365 40.3276 27.1557C40.142 26.575 40.1441 25.9505 40.3337 25.3711L41.8237 20.7811C42.0053 20.1955 41.9966 19.5675 41.799 18.9872C41.6014 18.4068 41.2249 17.9041 40.7237 17.5511L36.8237 14.7211C36.329 14.3598 35.9609 13.8517 35.7719 13.269C35.5829 12.6864 35.5825 12.0589 35.7709 11.4761C35.9593 10.8932 36.3268 10.3847 36.821 10.0229C37.3153 9.66108 37.9111 9.46447 38.5237 9.46105H43.3337C43.9473 9.46231 44.5456 9.26956 45.0431 8.91036C45.5406 8.55116 45.9118 8.04389 46.1037 7.46105L47.5937 2.87105C47.7737 2.27863 48.1387 1.7594 48.6351 1.38934C49.1316 1.01929 49.7334 0.817849 50.3526 0.814496C50.9718 0.811143 51.5758 1.00606 52.0762 1.37071C52.5766 1.73537 52.9472 2.25062 53.1337 2.84105Z" fill="#0099F5" stroke="#231F20" stroke-width="1.5" stroke-linejoin="bevel"/>
<path d="M49.8738 44.8506L69.7838 69.2306C70.171 69.7014 70.459 70.2458 70.6304 70.8308C70.8017 71.4158 70.853 72.0295 70.7811 72.6348C70.7091 73.2402 70.5155 73.8247 70.2118 74.3533C69.9081 74.8819 69.5006 75.3436 69.0138 75.7106C68.5301 76.0733 67.9787 76.3355 67.392 76.4818C66.8054 76.628 66.1954 76.6553 65.598 76.5621C65.0006 76.4689 64.4279 76.2571 63.9137 75.9391C63.3995 75.6211 62.9541 75.2034 62.6038 74.7106L44.1738 49.3406L49.8738 44.8506Z" fill="#F1983C"/>
<path d="M35.1537 2.0509C30.0979 1.35869 24.9504 2.18187 20.3627 4.41627C15.7749 6.65067 11.9532 10.1958 9.38105 14.6031C6.80893 19.0104 5.60208 24.0817 5.91324 29.1751C6.22439 34.2685 8.03957 39.1552 11.129 43.2166C14.2185 47.278 18.4434 50.3316 23.269 51.9909C28.0946 53.6503 33.304 53.8408 38.2379 52.5383C43.1718 51.2358 47.6085 48.4989 50.9863 44.674C54.3641 40.849 56.5313 36.108 57.2137 31.0509C58.1243 24.2815 56.3135 17.4272 52.1782 11.9909C48.0428 6.55467 41.9205 2.98006 35.1537 2.0509ZM29.1537 46.1409C25.4878 45.638 22.0533 44.0595 19.2845 41.6048C16.5157 39.1502 14.5369 35.9296 13.5983 32.3504C12.6597 28.7712 12.8035 24.9941 14.0114 21.4966C15.2194 17.9991 17.4372 14.9383 20.3846 12.7012C23.332 10.4641 26.8765 9.15118 30.57 8.92842C34.2635 8.70566 37.9401 9.58307 41.135 11.4497C44.3299 13.3164 46.8995 16.0884 48.5191 19.4154C50.1386 22.7424 50.7353 26.4748 50.2337 30.1409C49.8994 32.5781 49.088 34.9256 47.846 37.049C46.6039 39.1725 44.9554 41.0303 42.9949 42.5163C41.0344 44.0022 38.8002 45.0872 36.42 45.7091C34.0399 46.3311 31.5605 46.4778 29.1237 46.1409H29.1537Z" fill="#F8D366"/>
<path d="M57.2138 53.8408L69.7838 69.2308C70.171 69.7017 70.459 70.246 70.6304 70.831C70.8017 71.4161 70.853 72.0297 70.7811 72.6351C70.7091 73.2404 70.5155 73.825 70.2118 74.3536C69.9081 74.8821 69.5006 75.3438 69.0138 75.7108C68.5301 76.0735 67.9787 76.3357 67.392 76.482C66.8054 76.6282 66.1954 76.6556 65.598 76.5624C65.0006 76.4692 64.4279 76.2573 63.9137 75.9393C63.3995 75.6214 62.9541 75.2036 62.6038 74.7108L44.1738 49.3408" stroke="#221F20" stroke-width="1.5" stroke-miterlimit="10"/>
<path d="M31.6533 53.3915C45.8967 53.3915 57.4433 41.8449 57.4433 27.6015C57.4433 13.3581 45.8967 1.81152 31.6533 1.81152C17.4099 1.81152 5.86328 13.3581 5.86328 27.6015C5.86328 41.8449 17.4099 53.3915 31.6533 53.3915Z" stroke="#221F20" stroke-width="1.5" stroke-miterlimit="10"/>
<path d="M31.6536 46.3209C41.9924 46.3209 50.3736 37.9396 50.3736 27.6009C50.3736 17.2621 41.9924 8.88086 31.6536 8.88086C21.3148 8.88086 12.9336 17.2621 12.9336 27.6009C12.9336 37.9396 21.3148 46.3209 31.6536 46.3209Z" stroke="#221F20" stroke-width="1.5" stroke-miterlimit="10"/>
<path d="M19.4134 32.7406L21.0034 37.6406C21.2048 38.264 21.5991 38.8072 22.1293 39.1918C22.6595 39.5765 23.2983 39.7827 23.9534 39.7806H29.1034C29.7584 39.7805 30.3966 39.9878 30.9265 40.3729C31.4564 40.7579 31.8506 41.301 32.0528 41.924C32.2549 42.547 32.2545 43.2181 32.0516 43.8409C31.8487 44.4637 31.4537 45.0062 30.9234 45.3906L26.7534 48.3906C26.2248 48.7748 25.8317 49.3167 25.6305 49.9384C25.4292 50.5601 25.4302 51.2296 25.6334 51.8506L27.2234 56.7506C27.4269 57.3734 27.4279 58.0447 27.2261 58.6681C27.0243 59.2915 26.6302 59.8349 26.1004 60.2204C25.5705 60.6059 24.9321 60.8135 24.2769 60.8136C23.6217 60.8136 22.9833 60.606 22.4534 60.2206L18.2834 57.2206C17.7548 56.8353 17.1175 56.6278 16.4634 56.6278C15.8093 56.6278 15.172 56.8353 14.6434 57.2206L10.4734 60.2206C9.94348 60.606 9.30508 60.8136 8.64985 60.8136C7.99462 60.8135 7.35625 60.6059 6.82639 60.2204C6.29653 59.8349 5.90243 59.2915 5.70066 58.6681C5.4989 58.0447 5.49985 57.3734 5.70338 56.7506L7.33338 51.8806C7.53391 51.2584 7.5326 50.5887 7.32965 49.9673C7.1267 49.3459 6.7325 48.8045 6.20338 48.4206L2.04338 45.4206C1.51303 45.0362 1.11808 44.4937 0.915176 43.8709C0.712275 43.2481 0.711859 42.577 0.913988 41.954C1.11612 41.331 1.5104 40.7879 2.04027 40.4029C2.57014 40.0178 3.20837 39.8105 3.86338 39.8106H9.01338C9.66808 39.8111 10.3061 39.6043 10.8361 39.2199C11.366 38.8355 11.7606 38.2931 11.9634 37.6706L13.5534 32.7706C13.7608 32.1601 14.1536 31.6294 14.6768 31.2525C15.2001 30.8756 15.8278 30.6713 16.4727 30.668C17.1175 30.6647 17.7474 30.8626 18.2745 31.2341C18.8016 31.6056 19.1997 32.1322 19.4134 32.7406Z" fill="black" stroke="#221F20" stroke-width="1.5" stroke-miterlimit="10"/>
<path d="M19.4134 31.2406L21.0034 36.1406C21.2048 36.764 21.5991 37.3072 22.1293 37.6918C22.6595 38.0765 23.2983 38.2827 23.9534 38.2806H29.1034C29.7584 38.2805 30.3966 38.4878 30.9265 38.8729C31.4564 39.2579 31.8506 39.801 32.0528 40.424C32.2549 41.047 32.2545 41.7181 32.0516 42.3409C31.8487 42.9637 31.4537 43.5062 30.9234 43.8906L26.7534 46.8906C26.2248 47.2748 25.8317 47.8167 25.6305 48.4384C25.4292 49.0601 25.4302 49.7296 25.6334 50.3506L27.2234 55.2506C27.4269 55.8734 27.4279 56.5447 27.2261 57.1681C27.0243 57.7915 26.6302 58.3349 26.1004 58.7204C25.5705 59.1059 24.9321 59.3135 24.2769 59.3136C23.6217 59.3136 22.9833 59.106 22.4534 58.7206L18.2834 55.7206C17.7548 55.3353 17.1175 55.1278 16.4634 55.1278C15.8093 55.1278 15.172 55.3353 14.6434 55.7206L10.4734 58.7206C9.94348 59.106 9.30508 59.3136 8.64985 59.3136C7.99462 59.3135 7.35625 59.1059 6.82639 58.7204C6.29653 58.3349 5.90243 57.7915 5.70066 57.1681C5.4989 56.5447 5.49985 55.8734 5.70338 55.2506L7.33338 50.3806C7.53391 49.7584 7.5326 49.0887 7.32965 48.4673C7.1267 47.8459 6.7325 47.3045 6.20338 46.9206L2.04338 43.9206C1.51303 43.5362 1.11808 42.9937 0.915176 42.3709C0.712275 41.7481 0.711859 41.077 0.913988 40.454C1.11612 39.831 1.5104 39.2879 2.04027 38.9029C2.57014 38.5178 3.20837 38.3105 3.86338 38.3106H9.01338C9.66808 38.3111 10.3061 38.1043 10.8361 37.7199C11.366 37.3355 11.7606 36.7931 11.9634 36.1706L13.5534 31.2706C13.7608 30.6601 14.1536 30.1294 14.6768 29.7525C15.2001 29.3756 15.8278 29.1713 16.4727 29.168C17.1175 29.1647 17.7474 29.3626 18.2745 29.7341C18.8016 30.1056 19.1997 30.6322 19.4134 31.2406Z" fill="#0099F5" stroke="#231F20" stroke-width="1.5" stroke-linejoin="bevel"/>
<path d="M53.8632 49.7314L50.2432 45.4014" stroke="#221F20" stroke-width="1.5" stroke-miterlimit="10"/>
</svg>
