<svg width="49" height="48" viewBox="0 0 49 48" fill="none" xmlns="http://www.w3.org/2000/svg">
<path d="M24.6675 42L38.6675 36V18H10.6675V36L24.6675 42Z" fill="#73E34D"/>
<path d="M10.6675 12C10.6675 12 16.6675 8 24.6675 8C32.6675 8 38.6675 12 38.6675 12V36L24.6675 42L10.6675 36V12Z" stroke="#2B8D42" stroke-width="3"/>
<path d="M10.6675 12C10.6675 12 16.6675 8 24.6675 8C32.6675 8 38.6675 12 38.6675 12V18H10.6675V12Z" fill="white"/>
<path d="M10.6675 12C10.6675 12 16.6675 8 24.6675 8C32.6675 8 38.6675 12 38.6675 12V18H10.6675V12Z" stroke="#2B8D42" stroke-width="3"/>
<path d="M10.6675 18H38.6675" stroke="#2B8D42" stroke-width="3"/>
<path d="M2.66748 28H10.6675" stroke="#2B8D42" stroke-width="3"/>
<path d="M38.6665 28H46.6665" stroke="#2B8D42" stroke-width="3"/>
<path d="M10.6665 36L3.6665 40" stroke="#2B8D42" stroke-width="3"/>
<path d="M38.6665 36L45.6665 40" stroke="#2B8D42" stroke-width="3"/>
<path d="M10.6665 20L3.6665 16" stroke="#2B8D42" stroke-width="3"/>
<path d="M38.6665 20L45.6665 16" stroke="#2B8D42" stroke-width="3"/>
<path d="M22.667 8L16.667 2" stroke="#2B8D42" stroke-width="3"/>
<path d="M32.6665 2L26.6665 8" stroke="#2B8D42" stroke-width="3"/>
</svg>
