<svg width="81" height="81" viewBox="0 0 81 81" fill="none" xmlns="http://www.w3.org/2000/svg">
<g clip-path="url(#clip0_1476_11304)">
<path d="M21.0938 12.0059H57.9062C63.4875 12.0059 68 16.5184 68 22.0996V57.4871C68 63.0684 63.4875 67.5809 57.9062 67.5809H21.0938C15.5125 67.5809 11 63.0684 11 57.4871V22.0996C11 16.5184 15.5125 12.0059 21.0938 12.0059Z" fill="#470137"/>
<path d="M40.9725 26.6117L33.8475 38.368L41.4475 50.8367C41.495 50.9317 41.5188 51.0267 41.495 51.1217C41.4713 51.2167 41.3763 51.1455 41.2338 51.1692H35.795C35.415 51.1692 35.1538 51.1455 34.9875 50.908C34.4888 49.9105 33.9663 48.9367 33.4675 47.9392C32.9688 46.9655 32.4225 45.968 31.8525 44.9467C31.2825 43.9255 30.7125 42.9042 30.1425 41.8592H30.095C29.5963 42.8805 29.05 43.9017 28.5038 44.923C27.9575 45.9442 27.4113 46.9655 26.8888 47.963C26.3425 48.9605 25.7963 49.9817 25.25 50.9555C25.155 51.193 24.965 51.2167 24.7038 51.2167H19.4788C19.3838 51.2167 19.3125 51.2642 19.3125 51.1455C19.2888 51.0505 19.3125 50.9555 19.36 50.8842L26.7463 38.7717L19.55 26.588C19.4788 26.493 19.455 26.398 19.5025 26.3505C19.55 26.2792 19.645 26.2555 19.74 26.2555H25.1313C25.25 26.2555 25.3688 26.2792 25.4638 26.303C25.5588 26.3505 25.63 26.4217 25.7013 26.5167C26.1525 27.538 26.675 28.5592 27.2213 29.5805C27.7913 30.6017 28.3375 31.5992 28.9313 32.5967C29.5013 33.5942 30.0238 34.5917 30.5225 35.613H30.57C31.0688 34.568 31.5913 33.5467 32.1138 32.5492C32.6363 31.5517 33.1825 30.5542 33.7288 29.5567C34.275 28.5592 34.7975 27.538 35.32 26.5642C35.3438 26.4692 35.3913 26.3742 35.4625 26.3267C35.5575 26.2792 35.6525 26.2555 35.7713 26.2792H40.7825C40.9013 26.2555 41.02 26.3267 41.0438 26.4455C41.0675 26.4692 41.02 26.5642 40.9725 26.6117ZM51.945 51.668C50.1875 51.6917 48.43 51.3355 46.8388 50.5992C45.3425 49.9105 44.1075 48.7705 43.2525 47.3692C42.3738 45.9205 41.9463 44.1155 41.9463 41.9542C41.9225 40.1967 42.3738 38.463 43.2525 36.943C44.155 35.3992 45.4613 34.1167 47.0288 33.2617C48.6913 32.3355 50.6863 31.8842 53.0375 31.8842C53.1563 31.8842 53.3225 31.8842 53.5363 31.908C53.75 31.9317 53.9875 31.9317 54.2725 31.9555V24.4505C54.2725 24.2842 54.3438 24.1892 54.51 24.1892H59.3313C59.45 24.1655 59.545 24.2605 59.5688 24.3555V47.013C59.5688 47.4405 59.5925 47.9155 59.6163 48.438C59.6638 48.9367 59.6875 49.4117 59.7113 49.8155C59.7113 49.9817 59.64 50.1242 59.4738 50.1955C58.2388 50.718 56.9325 51.098 55.6025 51.3355C54.3913 51.5492 53.18 51.668 51.945 51.668ZM54.2725 46.918V36.468C54.0588 36.4205 53.845 36.373 53.6313 36.3492C53.37 36.3255 53.1088 36.3017 52.8475 36.3017C51.9213 36.3017 50.995 36.4917 50.1638 36.9192C49.3563 37.323 48.6675 37.9167 48.145 38.6767C47.6225 39.4367 47.3613 40.458 47.3613 41.693C47.3375 42.5242 47.48 43.3555 47.765 44.1392C48.0025 44.7805 48.3588 45.3505 48.8338 45.8255C49.285 46.253 49.8313 46.5855 50.4488 46.7755C51.09 46.9892 51.755 47.0842 52.42 47.0842C52.7763 47.0842 53.1088 47.0605 53.4175 47.0367C53.7263 47.0605 53.9875 47.013 54.2725 46.918Z" fill="#FF61F6"/>
</g>
<defs>
<clipPath id="clip0_1476_11304">
<rect width="57" height="55.5864" fill="white" transform="translate(11 12)"/>
</clipPath>
</defs>
</svg>
