<svg width="81" height="117" viewBox="0 0 81 117" fill="none" xmlns="http://www.w3.org/2000/svg">
<g clip-path="url(#clip0_1507_29108)">
<path d="M60.0566 11.0409C51.5191 3.67108 32.6287 0.0201263 18.4725 10.6011C5.19191 19.5038 4.53516 35.7758 4.53516 35.7758C6.79717 44.6786 15.7726 53.2161 33.0663 49.0567C31.0234 37.0893 35.0277 6.80895 60.0566 11.0412V11.0409Z" fill="#00ACD2"/>
<path d="M51.1636 39.9845C41.8213 47.7377 13.3844 59.5683 4.53518 35.7764C2.42127 46.8551 8.28737 65.2943 24.5286 72.2637C38.8789 79.3138 53.8339 71.1488 53.8339 71.1488C60.4125 64.7385 63.4128 52.8818 51.1636 39.9845Z" fill="#C8E9EB"/>
<path d="M34.2898 29.1101C45.6753 33.3244 70.0136 51.5888 53.8339 71.1488C64.4853 67.4399 76.9755 53.249 74.8904 35.6993C73.821 19.7464 60.057 11.0415 60.057 11.0415C51.2164 8.54924 39.3347 12.0535 34.2898 29.1101Z" fill="#662D91"/>
</g>
<path d="M6.84866 110.34C5.89548 110.34 5.09856 110.059 4.45789 109.496C3.83286 108.918 3.52034 108.121 3.52034 107.105C3.52034 105.855 4.07506 104.902 5.1845 104.246C6.30957 103.574 8.08311 103.105 10.5051 102.839C10.5051 102.355 10.4348 101.894 10.2942 101.457C10.1692 101.019 9.93479 100.667 9.59102 100.402C9.26287 100.12 8.78628 99.9799 8.16124 99.9799C7.50495 99.9799 6.88773 100.105 6.30957 100.355C5.73141 100.605 5.21575 100.886 4.7626 101.199L4.01255 99.8627C4.54384 99.5189 5.19231 99.1907 5.95798 98.8782C6.73928 98.5501 7.58308 98.386 8.48939 98.386C9.8801 98.386 10.888 98.8157 11.513 99.6752C12.138 100.519 12.4506 101.652 12.4506 103.074V110.059H10.8567L10.6926 108.699H10.6223C10.091 109.137 9.50507 109.519 8.86441 109.848C8.23937 110.176 7.56746 110.34 6.84866 110.34ZM7.4112 108.793C7.95811 108.793 8.47376 108.66 8.95817 108.394C9.44257 108.129 9.95823 107.754 10.5051 107.269V104.105C8.6144 104.339 7.28619 104.691 6.52052 105.16C5.77047 105.629 5.39545 106.23 5.39545 106.965C5.39545 107.605 5.59077 108.074 5.98142 108.371C6.37207 108.652 6.84866 108.793 7.4112 108.793ZM16.0345 114.864V98.6673H17.6284L17.7924 99.9799H17.8628C18.3784 99.5423 18.9409 99.1673 19.5504 98.8548C20.1754 98.5423 20.8239 98.386 21.4958 98.386C22.9646 98.386 24.0819 98.9173 24.8476 99.9799C25.6132 101.027 25.9961 102.433 25.9961 104.199C25.9961 105.48 25.7617 106.582 25.2929 107.504C24.8397 108.426 24.2381 109.129 23.4881 109.613C22.7537 110.098 21.9489 110.34 21.0739 110.34C20.5426 110.34 20.0113 110.223 19.48 109.988C18.9644 109.754 18.4409 109.434 17.9096 109.027L17.9565 111.02V114.864H16.0345ZM20.7457 108.723C21.6833 108.723 22.4568 108.324 23.0662 107.527C23.6912 106.715 24.0038 105.605 24.0038 104.199C24.0038 102.949 23.7694 101.941 23.3006 101.175C22.8474 100.394 22.0818 100.003 21.0036 100.003C20.5192 100.003 20.0269 100.136 19.5269 100.402C19.0425 100.667 18.519 101.05 17.9565 101.55V107.527C18.4722 107.965 18.9722 108.277 19.4566 108.465C19.941 108.637 20.3707 108.723 20.7457 108.723ZM29.0358 114.864V98.6673H30.6296L30.7937 99.9799H30.864C31.3797 99.5423 31.9422 99.1673 32.5516 98.8548C33.1767 98.5423 33.8251 98.386 34.4971 98.386C35.9659 98.386 37.0832 98.9173 37.8488 99.9799C38.6145 101.027 38.9973 102.433 38.9973 104.199C38.9973 105.48 38.7629 106.582 38.2942 107.504C37.841 108.426 37.2394 109.129 36.4894 109.613C35.755 110.098 34.9502 110.34 34.0752 110.34C33.5439 110.34 33.0126 110.223 32.4813 109.988C31.9657 109.754 31.4422 109.434 30.9109 109.027L30.9578 111.02V114.864H29.0358ZM33.747 108.723C34.6846 108.723 35.4581 108.324 36.0675 107.527C36.6925 106.715 37.005 105.605 37.005 104.199C37.005 102.949 36.7706 101.941 36.3019 101.175C35.8487 100.394 35.083 100.003 34.0048 100.003C33.5204 100.003 33.0282 100.136 32.5282 100.402C32.0438 100.667 31.5203 101.05 30.9578 101.55V107.527C31.4734 107.965 31.9735 108.277 32.4579 108.465C32.9423 108.637 33.372 108.723 33.747 108.723ZM42.0371 110.059V98.6673H43.9591V110.059H42.0371ZM43.0215 96.3234C42.6465 96.3234 42.334 96.214 42.0839 95.9952C41.8496 95.7609 41.7324 95.4483 41.7324 95.0577C41.7324 94.6827 41.8496 94.378 42.0839 94.1436C42.334 93.9092 42.6465 93.792 43.0215 93.792C43.3965 93.792 43.7012 93.9092 43.9356 94.1436C44.1856 94.378 44.3106 94.6827 44.3106 95.0577C44.3106 95.4483 44.1856 95.7609 43.9356 95.9952C43.7012 96.214 43.3965 96.3234 43.0215 96.3234ZM51.1336 110.34C49.9304 110.34 49.0475 109.965 48.485 109.215C47.9224 108.449 47.6412 107.34 47.6412 105.886V98.6673H49.5866V105.629C49.5866 106.691 49.7507 107.465 50.0788 107.949C50.4226 108.433 50.9695 108.676 51.7195 108.676C52.3133 108.676 52.8368 108.527 53.2899 108.23C53.7587 107.918 54.2588 107.426 54.79 106.754V98.6673H56.712V110.059H55.1182L54.9541 108.277H54.8838C54.3525 108.902 53.79 109.402 53.1962 109.777C52.6024 110.152 51.9149 110.34 51.1336 110.34ZM60.5547 110.059V98.6673H62.1486L62.3126 100.308H62.383C62.883 99.7611 63.4299 99.3079 64.0237 98.9485C64.6175 98.5735 65.2503 98.386 65.9222 98.386C66.7973 98.386 67.477 98.5813 67.9614 98.972C68.4615 99.347 68.8287 99.8783 69.0631 100.566C69.6568 99.9252 70.2584 99.4017 70.8679 98.9954C71.4773 98.5892 72.1257 98.386 72.8133 98.386C73.9852 98.386 74.8525 98.7688 75.415 99.5345C75.9932 100.285 76.2822 101.386 76.2822 102.839V110.059H74.3602V103.097C74.3602 102.035 74.1884 101.261 73.8446 100.777C73.5008 100.292 72.9695 100.05 72.2507 100.05C71.4069 100.05 70.4538 100.636 69.3912 101.808V110.059H67.4692V103.097C67.4692 102.035 67.2973 101.261 66.9536 100.777C66.6098 100.292 66.0707 100.05 65.3363 100.05C64.4925 100.05 63.5393 100.636 62.4767 101.808V110.059H60.5547Z" fill="#40495E"/>
<defs>
<clipPath id="clip0_1507_29108">
<rect width="71" height="71.2851" fill="white" transform="translate(4.12061 4)"/>
</clipPath>
</defs>
</svg>
