<svg width="81" height="81" viewBox="0 0 81 81" fill="none" xmlns="http://www.w3.org/2000/svg">
<path d="M40.0953 40.2668C40.0953 34.8913 44.4532 30.5112 49.8508 30.5112C55.2263 30.5112 59.6063 34.8691 59.6063 40.2668C59.6063 45.6423 55.2484 50.0223 49.8508 50.0223C44.4753 50.0223 40.0953 45.6423 40.0953 40.2668Z" fill="#1ABCFE"/>
<path d="M20.6064 59.755C20.6064 54.3795 24.9643 49.9995 30.3619 49.9995H40.1174V59.755C40.1174 65.1305 35.7595 69.5106 30.3619 69.5106C24.9643 69.5106 20.6064 65.1527 20.6064 59.755Z" fill="#0ACF83"/>
<path d="M40.0953 11.0221V30.5111H49.8508C55.2263 30.5111 59.6063 26.1531 59.6063 20.7555C59.6063 15.38 55.2484 11 49.8508 11H40.0953V11.0221Z" fill="#FF7262"/>
<path d="M20.6064 20.7775C20.6064 26.153 24.9643 30.533 30.3619 30.533H40.1174V11.022H30.3619C24.9643 11.022 20.6064 15.3799 20.6064 20.7775Z" fill="#F24E1E"/>
<path d="M20.6064 40.2668C20.6064 45.6423 24.9643 50.0223 30.3619 50.0223H40.1174V30.5112H30.3619C24.9643 30.5112 20.6064 34.8913 20.6064 40.2668Z" fill="#A259FF"/>
</svg>
