<svg width="81" height="81" viewBox="0 0 81 81" fill="none" xmlns="http://www.w3.org/2000/svg">
<g clip-path="url(#clip0_1454_10332)">
<path d="M20.7184 51.3737L9.09204 39.7474L46.8425 2H70.092M70.092 36.8332H46.8425L38.1334 45.5422L49.7597 57.1685" fill="#42A5F5" fill-opacity="0.8"/>
<path d="M38.1335 68.7917L46.8426 77.5008H70.0922L49.7599 57.1685" fill="#0D47A1"/>
<path d="M26.5347 57.1745L38.1427 45.5635L49.7507 57.1715L38.1427 68.7825L26.5347 57.1745Z" fill="#42A5F5"/>
<path d="M38.1426 68.7828L49.7506 57.1748L51.3709 58.7952L39.7629 70.4032L38.1426 68.7828Z" fill="url(#paint0_linear_1454_10332)"/>
<path d="M38.1335 68.7918L55.3838 62.8322L49.7599 57.1655" fill="url(#paint1_linear_1454_10332)"/>
</g>
<defs>
<linearGradient id="paint0_linear_1454_10332" x1="43.9488" y1="62.9767" x2="45.5693" y2="64.5971" gradientUnits="userSpaceOnUse">
<stop offset="0.2" stop-opacity="0.15"/>
<stop offset="0.85" stop-color="#616161" stop-opacity="0.01"/>
</linearGradient>
<linearGradient id="paint1_linear_1454_10332" x1="38.1377" y1="62.979" x2="55.3877" y2="62.979" gradientUnits="userSpaceOnUse">
<stop offset="0.2" stop-opacity="0.55"/>
<stop offset="0.85" stop-color="#616161" stop-opacity="0.01"/>
</linearGradient>
<clipPath id="clip0_1454_10332">
<rect width="61" height="75.5008" fill="white" transform="translate(9.09204 2)"/>
</clipPath>
</defs>
</svg>
