<svg width="81" height="81" viewBox="0 0 81 81" fill="none" xmlns="http://www.w3.org/2000/svg">
<g clip-path="url(#clip0_1476_11341)">
<path d="M66.1076 7.05859H12.8924C9.63809 7.05859 7 9.69668 7 12.951V66.1662C7 69.4205 9.63809 72.0586 12.8924 72.0586H66.1076C69.3619 72.0586 72 69.4205 72 66.1662V12.951C72 9.69668 69.3619 7.05859 66.1076 7.05859Z" fill="#DC395F"/>
<path d="M28.7229 27.5097C30.8836 27.5097 32.6937 25.8161 32.6937 23.5965C32.6937 21.3784 30.8836 19.6851 28.7229 19.6851C26.5621 19.6851 24.7525 21.3784 24.7525 23.5965C24.7525 25.8159 26.5621 27.5097 28.7229 27.5097ZM20.4897 48.462C20.2564 49.4548 20.1393 50.5268 20.1393 51.4013C20.1393 54.847 22.0078 57.1345 25.9786 57.1345C29.2718 57.1345 31.9416 55.1789 33.864 52.021L32.6901 56.7318H39.2295L42.967 41.7414C43.9014 37.946 45.7115 35.9759 48.4562 35.9759C50.6167 35.9759 51.9596 37.3196 51.9596 39.5377C51.9596 40.1804 51.9012 40.8804 51.6676 41.6398L49.7405 48.5301C49.4485 49.5229 49.3322 50.5161 49.3322 51.4497C49.3322 54.7208 51.2586 57.1134 55.2878 57.1134C58.7331 57.1134 61.4773 54.8955 62.9956 49.5815L60.4266 48.5897C59.1418 52.1498 58.0323 52.7934 57.1563 52.7934C56.2803 52.7934 55.8131 52.2099 55.8131 51.0427C55.8131 50.5172 55.9304 49.9339 56.1051 49.2316L57.9741 42.5189C58.4411 40.9426 58.6165 39.5448 58.6165 38.2606C58.6165 33.2388 55.5798 30.618 51.9012 30.618C48.4562 30.618 44.9523 33.7256 43.2009 36.9961L44.4851 31.1258H34.5005L33.0989 36.2964H37.7706L34.8938 47.8136C32.6348 52.8353 28.4852 52.9168 27.9644 52.8003C27.1093 52.6073 26.5624 52.2826 26.5624 51.1715C26.5624 50.5303 26.6792 49.6094 26.9712 48.4991L31.351 31.1258H20.2564L18.8548 36.2964H23.4675L20.4897 48.462Z" fill="white"/>
</g>
<defs>
<clipPath id="clip0_1476_11341">
<rect width="65" height="65" fill="white" transform="translate(7 7.05859)"/>
</clipPath>
</defs>
</svg>
