<svg width="81" height="81" viewBox="0 0 81 81" fill="none" xmlns="http://www.w3.org/2000/svg">
<path d="M40.4767 24.8896C31.8107 24.8896 24.7842 31.9162 24.7842 40.5822C24.7842 49.2482 31.8107 56.2748 40.4767 56.2748C49.1428 56.2748 56.1693 49.2482 56.1693 40.5822C56.1224 31.9162 49.0959 24.8896 40.4767 24.8896Z" fill="#3880FF"/>
<path d="M62.9615 26.295C66.9197 26.295 70.1285 23.0862 70.1285 19.128C70.1285 15.1697 66.9197 11.9609 62.9615 11.9609C59.0032 11.9609 55.7944 15.1697 55.7944 19.128C55.7944 23.0862 59.0032 26.295 62.9615 26.295Z" fill="#3880FF"/>
<path d="M71.7682 26.295L71.4871 25.6392L71.0187 26.2013C69.8476 27.5129 68.3486 28.5434 66.7091 29.1524L66.2407 29.3398L66.428 29.8082C67.8802 33.2278 68.5828 36.8816 68.5828 40.5822C68.5828 56.0874 55.982 68.7351 40.4299 68.7351C24.8779 68.7351 12.3239 56.0874 12.3239 40.5822C12.3239 25.077 24.9248 12.4293 40.4768 12.4293C44.6927 12.4293 48.7212 13.3662 52.5155 15.1462L52.9371 15.3336L53.1245 14.8652C53.8272 13.2256 54.9046 11.8203 56.3099 10.6961L56.872 10.2277L56.2162 9.89975C51.2976 7.37021 46.0043 6.05859 40.4299 6.05859C21.4583 6.05859 6 21.5169 6 40.4885C6 59.4601 21.4583 74.9184 40.4299 74.9184C59.4015 74.9184 74.8599 59.4601 74.8599 40.4885C74.8599 35.6168 73.8293 30.8388 71.7682 26.295Z" fill="#3880FF"/>
</svg>
