<svg width="81" height="81" viewBox="0 0 81 81" fill="none" xmlns="http://www.w3.org/2000/svg">
<g clip-path="url(#clip0_1454_10367)">
<path d="M30.8596 58.2664C30.8596 58.2664 28.0808 59.8823 32.8371 60.4291C38.5993 61.0865 41.5443 60.9922 47.8942 59.7904C47.8942 59.7904 49.5636 60.8372 51.8952 61.7438C37.6603 67.8446 19.6789 61.3905 30.8596 58.2664ZM29.1202 50.3052C29.1202 50.3052 26.0035 52.6122 30.7634 53.1045C36.9187 53.7395 41.7796 53.7915 50.191 52.1718C50.191 52.1718 51.3546 53.3513 53.184 53.9963C35.973 59.0289 16.8033 54.3932 29.1202 50.3052Z" fill="#5382A1"/>
<path d="M43.784 36.8001C47.2914 40.8384 42.8626 44.4724 42.8626 44.4724C42.8626 44.4724 51.7683 39.8749 47.6783 34.1176C43.8583 28.7484 40.9288 26.081 56.7878 16.8833C56.788 16.8831 31.8943 23.1003 43.784 36.8001Z" fill="#E76F00"/>
<path d="M62.6107 64.1549C62.6107 64.1549 64.6671 65.8495 60.3461 67.1601C52.1295 69.6492 26.1479 70.4008 18.9303 67.2595C16.3358 66.1305 21.2013 64.5642 22.7318 64.2355C24.3279 63.8894 25.2401 63.9539 25.2401 63.9539C22.3547 61.9212 6.59012 67.9448 17.2325 69.6701C46.2556 74.3769 70.1392 67.5507 62.6107 64.1549ZM32.1958 42.0565C32.1958 42.0565 18.9799 45.1955 27.5157 46.3354C31.1198 46.8179 38.3045 46.7088 44.9966 46.148C50.4659 45.6867 55.958 44.7059 55.958 44.7059C55.958 44.7059 54.0295 45.5318 52.6342 46.4844C39.2137 50.0142 13.2877 48.372 20.7515 44.7616C27.0636 41.7104 32.1958 42.0565 32.1958 42.0565ZM55.9035 55.3083C69.5461 48.2191 63.2385 41.4062 58.8356 42.3242C57.7564 42.5488 57.2753 42.7435 57.2753 42.7435C57.2753 42.7435 57.6761 42.1159 58.4408 41.8443C67.1509 38.7821 73.8495 50.8757 55.6291 55.6658C55.6291 55.6658 55.8406 55.4772 55.9035 55.3083Z" fill="#5382A1"/>
<path d="M47.6783 2.03125C47.6783 2.03125 55.2338 9.58907 40.5122 21.2114C28.7071 30.5341 37.8203 35.8498 40.5073 41.9233C33.6167 35.7059 28.5597 30.233 31.9523 25.1392C36.9317 17.662 50.7267 14.0367 47.6783 2.03125Z" fill="#E76F00"/>
<path d="M33.5364 74.5181C46.6316 75.3563 66.7407 74.053 67.2167 67.8569C67.2167 67.8569 66.3015 70.2057 56.3943 72.0713C45.2175 74.1745 31.432 73.9291 23.2559 72.5811C23.2563 72.5807 24.9298 73.9662 33.5364 74.5181Z" fill="#5382A1"/>
</g>
<defs>
<clipPath id="clip0_1454_10367">
<rect width="57" height="74.7386" fill="white" transform="translate(12.0142 2.05859)"/>
</clipPath>
</defs>
</svg>
