<svg width="81" height="81" viewBox="0 0 81 81" fill="none" xmlns="http://www.w3.org/2000/svg">
<path d="M15.1626 28.1231C14.7849 28.3119 14.1238 28.9729 13.3684 29.9172L14.0294 31.2392C14.5016 30.5782 15.0681 29.9172 15.5403 29.3506C15.3514 29.5395 14.8793 30.1061 14.1238 31.2392C14.8793 31.2392 15.918 31.0504 16.8623 30.8615C17.1456 29.3506 16.579 28.6896 16.579 28.6896C16.579 28.6896 15.918 27.6509 15.1626 28.1231Z" fill="url(#paint0_linear_1507_29069)"/>
<path d="M12.9929 38.1319H13.1806C13.1806 38.0381 13.0868 38.0381 12.9929 38.1319Z" fill="#BE202E"/>
<path opacity="0.35" d="M12.9929 38.1319H13.1806C13.1806 38.0381 13.0868 38.0381 12.9929 38.1319Z" fill="#BE202E"/>
<path d="M11.952 34.6385C12.1408 34.2608 12.4241 33.883 12.613 33.5053C12.8018 33.1276 13.0851 32.7499 13.274 32.3722V32.2777C13.4629 31.9 13.7461 31.5223 13.935 31.239L13.274 29.917L13.0851 30.1059C12.8963 30.3891 12.7074 30.6724 12.4241 30.9557C12.1408 31.239 11.952 31.6167 11.6687 31.9944C11.4798 32.3722 11.1965 32.6555 10.9133 33.0332C10.7244 33.3165 10.5355 33.6942 10.3467 33.9775L11.291 35.7716C11.5743 35.3939 11.7631 35.0162 11.952 34.6385Z" fill="url(#paint1_linear_1507_29069)"/>
<path d="M7.79694 44.8371C7.70251 45.2148 7.51365 45.4981 7.41922 45.8758C7.41922 45.9702 7.41922 45.9702 7.32479 46.0646C7.23036 46.2535 7.13593 46.5368 7.0415 47.0089C7.32479 47.1034 7.51365 47.4811 7.70251 47.8588C7.70251 47.4811 7.51365 47.1034 7.23036 46.8201C8.55238 46.9145 9.68553 46.5368 10.2521 45.5925C10.3465 45.4981 10.3465 45.4036 10.441 45.3092C10.1577 45.6869 9.87439 45.7814 9.21339 45.7814C10.1577 45.4036 10.6298 44.9315 11.0076 44.2705C11.102 44.0816 11.1964 43.9872 11.2908 43.7983C10.441 44.6482 9.5911 44.8371 8.55238 44.6482L7.79694 44.7426C7.89137 44.7426 7.79694 44.7426 7.79694 44.8371Z" fill="url(#paint2_linear_1507_29069)"/>
<path d="M8.17475 43.2319C8.36361 42.8542 8.45803 42.3821 8.64689 42.0044C8.83575 41.6266 8.93018 41.1545 9.11904 40.7768C9.3079 40.3991 9.49676 39.9269 9.59119 39.5492C9.78005 39.1715 9.96891 38.6993 10.1578 38.3216C10.3466 37.9439 10.5355 37.4717 10.7243 37.094C10.8188 36.9052 10.8188 36.8107 10.9132 36.6219C11.0076 36.3386 11.1965 36.1497 11.2909 35.8664L10.3466 34.0723V34.1667C10.1578 34.5444 9.87448 34.8277 9.68562 35.2054C9.49676 35.5831 9.3079 35.9609 9.02461 36.3386C8.83575 36.6219 8.64689 36.9996 8.55246 37.2829C8.55246 37.3773 8.45803 37.3773 8.45803 37.4717C8.26917 37.8495 8.08031 38.3216 7.89145 38.6993C7.70259 39.1715 7.51374 39.5492 7.41931 39.9269C7.41931 40.1158 7.32488 40.3991 7.32488 40.5879C7.23045 40.7768 7.23045 40.9656 7.13602 41.1545C7.04159 41.6266 6.85273 42.0988 6.7583 42.5709L7.7026 44.3651C7.79703 44.0818 7.98588 43.7041 8.08031 43.4208C8.08031 43.4208 8.08032 43.3264 8.17475 43.2319Z" fill="url(#paint3_linear_1507_29069)"/>
<path d="M6.75836 42.665L6.47507 44.3648V44.4592C6.19178 43.9871 5.43634 43.5149 5.43634 43.5149C6.00292 44.2703 6.38064 45.1202 6.47507 45.8756C6.19178 45.9701 5.81406 45.8756 5.34192 45.6868C5.81406 46.1589 6.19178 46.2534 6.38064 46.2534C5.90849 46.2534 5.43634 46.6311 4.9642 46.9144C5.6252 46.6311 6.19178 46.5367 6.5695 46.6311C5.90849 48.4252 5.34192 50.4083 4.68091 52.4857C4.86977 52.3913 4.9642 52.2969 5.05862 52.108C5.15305 51.7303 5.90849 49.2751 7.04165 45.9701C7.04165 45.8756 7.13608 45.7812 7.13608 45.6868V45.5924C7.23051 45.2146 7.41937 44.9314 7.5138 44.5536C7.5138 44.4592 7.60823 44.3648 7.60823 44.2703L6.75836 42.665Z" fill="url(#paint4_linear_1507_29069)"/>
<path d="M11.4799 35.9606C11.4799 36.055 11.3855 36.055 11.3855 36.1494C11.2911 36.3383 11.1966 36.5271 11.1022 36.6216L10.8189 37.1882C10.8189 37.2826 10.7245 37.377 10.7245 37.4714C10.6301 37.7547 10.4412 38.038 10.3468 38.4157C10.1579 38.7935 9.96905 39.1712 9.78019 39.6433C9.59134 40.021 9.40248 40.4932 9.30805 40.8709C9.11919 41.2486 8.93033 41.7208 8.8359 42.0985C8.64704 42.4762 8.55261 42.8539 8.36375 43.3261V43.4205C8.17489 43.7982 8.08046 44.2704 7.8916 44.6481L8.64704 44.5537C9.49691 44.4592 10.7245 43.7982 11.4799 42.9484C11.8577 42.5706 12.1409 42.0985 12.4242 41.6263C12.6131 41.2486 12.8019 40.7765 13.0852 40.3043C13.2741 39.9266 13.463 39.4545 13.5574 38.9823C13.3685 39.0767 13.0852 39.1712 12.8964 39.2656H12.6131C13.463 38.9823 13.9351 38.3213 14.3128 37.5659C14.124 37.7547 13.7462 37.9436 13.2741 38.038H13.0852C13.3685 37.9436 13.6518 37.7547 13.8407 37.6603L13.9351 37.5659L14.124 37.377L14.2184 37.2826C14.3128 37.1882 14.4072 37.0937 14.4072 36.9993C14.4072 36.9993 14.4072 36.9049 14.5017 36.9049C14.5017 36.8104 14.5961 36.8104 14.5961 36.716C14.6905 36.5271 14.785 36.2439 14.8794 36.055C14.8794 35.9606 14.9738 35.8661 14.9738 35.7717V35.6773C14.9738 35.5828 15.0683 35.4884 15.0683 35.4884C15.0683 35.394 15.0683 35.2996 15.1627 35.2051C15.2571 35.1107 15.0683 35.2051 15.0683 35.2996C14.785 35.4884 14.4072 35.5828 14.0295 35.6773L14.6905 35.5828L13.9351 35.6773H13.8407L11.4799 35.9606Z" fill="url(#paint5_linear_1507_29069)"/>
<path d="M14.1238 31.2394C13.935 31.5227 13.6517 31.9004 13.4628 32.2782V32.3726C13.274 32.7503 12.9907 33.128 12.8018 33.5057C12.6129 33.8835 12.4241 34.2612 12.1408 34.7333L11.5742 35.8665L13.935 35.5832C14.596 35.2999 14.8793 35.0166 15.1625 34.5445C15.257 34.45 15.3514 34.3556 15.3514 34.1667C15.6347 33.789 15.8236 33.4113 16.0124 32.9392C16.2013 32.5614 16.3901 32.1837 16.4846 31.806C16.579 31.6171 16.6734 31.3339 16.6734 31.145C16.6734 30.9561 16.7678 30.8617 16.7678 30.6729C16.0124 31.0506 14.8793 31.2394 14.1238 31.2394Z" fill="url(#paint6_linear_1507_29069)"/>
<path d="M14.105 35.6548V36.0137H14.0346V35.6548H13.8892V35.582H14.2481V35.6524L14.105 35.6548Z" fill="#B0AFB0"/>
<path d="M14.6071 35.7251L14.4639 35.941H14.3936L14.2481 35.7251V36.0137H14.1777V35.582H14.3185L14.4639 35.7979L14.6071 35.582H14.7525V36.0137H14.6798L14.6071 35.7251Z" fill="#B0AFB0"/>
<path d="M17.9686 51.9805H17.0302C16.7956 51.9805 16.561 51.9805 16.3264 51.7459V49.3999C16.561 49.3999 16.7956 49.3998 17.0302 49.6344H18.4378C18.6724 49.6344 18.907 49.3999 19.1417 49.3999L19.6108 48.9307C19.6108 48.6961 19.8454 48.4614 19.8454 47.9922V35.3237H22.6607V47.9922C22.6607 48.696 22.6607 49.3998 22.4261 49.869C22.1915 50.3383 21.9569 50.8075 21.4877 51.2767C21.0185 51.7459 20.5493 51.9805 20.0801 51.9805C19.1417 51.7459 18.4378 51.9805 17.9686 51.9805Z" fill="url(#paint7_linear_1507_29069)"/>
<path d="M28.995 47.9922L26.1797 37.6697V47.9922H23.5991V34.8545H27.3528L30.168 44.9424L33.2178 34.8545H36.9714V47.9922H34.3908V41.8926V41.4233V40.7195V40.0157V39.3119V37.6697L31.341 47.9922H28.995ZM42.8365 39.7811C42.3673 39.7811 41.8981 40.0157 41.6635 40.2503C41.4289 40.4849 41.1943 41.1887 41.1943 41.8926H44.7133V40.9541C44.7133 40.7195 44.4787 40.4849 44.4787 40.2503L44.0095 39.7811H42.8365ZM43.0711 48.2268C42.3673 48.2268 41.6635 48.2268 41.1943 47.9922C40.4905 47.7576 40.0213 47.523 39.5521 47.0538C39.0829 46.5846 38.8483 46.1154 38.6137 45.4116C38.379 44.7078 38.1444 44.004 38.1444 43.0656C38.1444 42.1272 38.1444 41.4233 38.379 40.7195C38.6136 40.0157 38.8483 39.5465 39.3175 39.0773C39.7867 38.6081 40.2559 38.3735 40.7251 38.1389C41.1943 37.9043 41.8981 37.9043 42.6019 37.9043C43.3057 37.9043 43.7749 37.9043 44.4787 38.1389C44.9479 38.3735 45.4171 38.6081 45.8863 39.0773C46.3555 39.5465 46.5901 40.0157 46.8247 40.4849C47.0593 40.9541 47.0593 41.658 47.0593 42.3618V43.7694H40.9597C40.9597 44.2386 40.9597 44.4732 41.1943 44.7078C41.1943 44.9424 41.4289 45.177 41.6635 45.4116C41.8981 45.6462 42.1327 45.8808 42.3673 45.8808C42.6019 45.8808 43.0711 46.1154 43.3057 46.1154H44.2441C44.4787 46.1154 44.7133 46.1154 44.9479 45.8808C45.1825 45.8808 45.4171 45.6462 45.6517 45.6462C45.8863 45.6462 46.1209 45.4116 46.3555 45.4116V47.523C46.1209 47.7576 45.8863 47.7576 45.6517 47.7576C45.4171 47.7576 45.1825 47.9922 44.9479 47.9922C44.7133 47.9922 44.4787 47.9922 44.0095 48.2268H43.0711ZM52.6898 46.1154H53.3936C53.6282 46.1154 53.8628 45.8808 54.0974 45.8808V47.9922C53.8628 48.2268 53.6282 48.2268 53.159 48.2268C52.6898 48.2268 52.4552 48.4614 51.986 48.4614C51.5168 48.4614 51.0476 48.4614 50.813 48.2268C50.5784 47.9922 50.1091 47.9922 49.8745 47.7576C49.6399 47.523 49.4053 47.0538 49.1707 46.8192C48.9361 46.35 48.9361 45.8808 48.9361 45.177V40.0157H47.5285V38.8427L48.9361 37.9043L49.6399 35.7929H51.2822V37.9043H53.6282V40.0157H51.2822V44.9424C51.2822 45.4116 51.2822 45.6462 51.5168 45.8808C51.986 45.8808 52.2206 46.1154 52.6898 46.1154ZM59.2586 39.7811C58.7894 39.7811 58.3202 40.0157 58.0856 40.2503C57.851 40.4849 57.6164 41.1887 57.6164 41.8926H61.1354V40.9541C61.1354 40.7195 60.9008 40.4849 60.9008 40.2503L60.4316 39.7811H59.2586ZM59.4932 48.2268C58.7894 48.2268 58.0856 48.2268 57.6164 47.9922C57.1472 47.7576 56.4434 47.523 55.9742 47.0538C55.505 46.5846 55.2704 46.1154 55.0358 45.4116C54.8012 44.7078 54.5666 44.004 54.5666 43.0656C54.5666 42.1272 54.5666 41.4233 54.8012 40.7195C55.0358 40.0157 55.2704 39.5465 55.7396 39.0773C56.2088 38.6081 56.678 38.3735 57.1472 38.1389C57.6164 37.9043 58.3202 37.9043 59.024 37.9043C59.7278 37.9043 60.197 37.9043 60.9008 38.1389C61.37 38.3735 61.8392 38.6081 62.3085 39.0773C62.7777 39.5465 63.0123 40.0157 63.2469 40.4849C63.4815 40.9541 63.4815 41.658 63.4815 42.3618V43.7694H57.3818C57.3818 44.2386 57.3818 44.4732 57.6164 44.7078C57.6164 44.9424 57.851 45.177 58.0856 45.4116C58.3202 45.6462 58.5548 45.8808 58.7894 45.8808C59.024 45.8808 59.4932 46.1154 59.7278 46.1154H60.6662C60.9008 46.1154 61.1354 46.1154 61.37 45.8808C61.6046 45.8808 61.8392 45.6462 62.0739 45.6462C62.3085 45.6462 62.5431 45.4116 62.7777 45.4116V47.523C62.5431 47.7576 62.3085 47.7576 62.0739 47.7576C61.8392 47.7576 61.6046 47.9922 61.37 47.9922C61.1354 47.9922 60.9008 47.9922 60.4316 48.2268H59.4932ZM69.5811 37.9043H70.5195V40.4849H69.5811C69.1119 40.4849 68.8773 40.4849 68.6427 40.7195C68.4081 40.7195 68.1735 40.9541 67.9389 41.1887C67.7043 41.4233 67.4697 41.658 67.4697 41.8926C67.4697 42.1272 67.2351 42.5964 67.2351 43.0656V48.2268H64.4199V38.1389H66.2967L66.7659 39.5465H67.0005C67.2351 39.3119 67.2351 39.0773 67.4697 38.8427L67.9389 38.3735C68.1735 38.1389 68.4081 38.1389 68.6427 38.1389C68.8773 37.9043 69.1119 37.9043 69.5811 37.9043Z" fill="black"/>
<path d="M71.6925 37.9046H70.9887V35.5586H70.2849V35.0894H72.3963V35.5586H71.6925V37.9046Z" fill="url(#paint8_linear_1507_29069)"/>
<path d="M74.0387 37.9043L73.3349 35.5583V38.1389H72.8657V35.3237H73.8041L74.5079 37.4352L75.2117 35.3237H75.6809V38.1389H75.2117V36.7313V36.4967V36.2621V35.7929L74.5079 38.1389H74.0387" fill="url(#paint9_linear_1507_29069)"/>
<path d="M19.5146 33.0175L21.4783 28.3559H21.8865L23.8501 33.0175H23.3574L22.7873 31.5442H20.6595L20.0871 33.0175H19.5146ZM21.6425 28.8463L20.6595 31.136H22.541L21.6425 28.8463ZM24.3404 33.0175V28.3559H26.304C27.1204 28.3559 27.6929 29.0926 27.6929 29.8269C27.6929 30.5612 27.1204 31.3002 26.3838 31.3002H24.8307V33.0175H24.3404ZM24.7486 30.8099H26.2219C26.7943 30.8099 27.1204 30.3172 27.1204 29.7448C27.1204 29.1724 26.7122 28.682 26.1398 28.682H24.6665V30.8099H24.7486ZM27.3668 33.0175L29.3281 28.3559H29.7363L31.6999 33.0175H31.2072L30.6371 31.5442H28.5116L27.9392 33.0175H27.3668ZM29.572 28.8463L28.5914 31.136H30.4729L29.572 28.8463ZM33.9075 28.2738C34.7262 28.2738 35.3808 28.682 35.6248 29.2545L35.2166 29.5008C34.8881 28.8463 34.3157 28.682 33.8254 28.682C32.6805 28.682 32.1081 29.665 32.1081 30.6457C32.1081 31.7084 32.8447 32.6069 33.8254 32.6069C34.318 32.6069 34.9702 32.3629 35.2987 31.7084L35.7069 31.8726C35.3784 32.6069 34.562 32.9354 33.8254 32.9354C32.5186 32.9354 31.6201 31.7084 31.6201 30.4814C31.6999 29.5008 32.5186 28.2738 33.9075 28.2738ZM40.04 28.2738V32.9354H39.5497V30.7278H36.8517V32.933H36.3591V28.2762H36.8517V30.3196H39.6318V28.2785L40.04 28.2738ZM44.2933 32.5272V32.9354H41.1848V28.2715H44.2933V28.6797H41.6728V30.397H43.9625V30.8075H41.6728V32.6046H44.291L44.2933 32.5272Z" fill="#D22128"/>
<defs>
<linearGradient id="paint0_linear_1507_29069" x1="13.9619" y1="30.1253" x2="16.0347" y2="29.549" gradientUnits="userSpaceOnUse">
<stop stop-color="#F69923"/>
<stop offset="0.312" stop-color="#F79A23"/>
<stop offset="0.838" stop-color="#E97826"/>
</linearGradient>
<linearGradient id="paint1_linear_1507_29069" x1="2.68045" y1="53.2329" x2="6.89647" y2="44.1912" gradientUnits="userSpaceOnUse">
<stop offset="0.323" stop-color="#9E2064"/>
<stop offset="0.63" stop-color="#C92037"/>
<stop offset="0.751" stop-color="#CD2335"/>
<stop offset="1" stop-color="#E97826"/>
</linearGradient>
<linearGradient id="paint2_linear_1507_29069" x1="6.20222" y1="51.5736" x2="8.71451" y2="46.1857" gradientUnits="userSpaceOnUse">
<stop stop-color="#282662"/>
<stop offset="0.095" stop-color="#662E8D"/>
<stop offset="0.788" stop-color="#9F2064"/>
<stop offset="0.949" stop-color="#CD2032"/>
</linearGradient>
<linearGradient id="paint3_linear_1507_29069" x1="3.0612" y1="51.8742" x2="7.27722" y2="42.8326" gradientUnits="userSpaceOnUse">
<stop offset="0.323" stop-color="#9E2064"/>
<stop offset="0.63" stop-color="#C92037"/>
<stop offset="0.751" stop-color="#CD2335"/>
<stop offset="1" stop-color="#E97826"/>
</linearGradient>
<linearGradient id="paint4_linear_1507_29069" x1="4.13314" y1="50.3792" x2="6.34861" y2="45.6279" gradientUnits="userSpaceOnUse">
<stop stop-color="#282662"/>
<stop offset="0.095" stop-color="#662E8D"/>
<stop offset="0.788" stop-color="#9F2064"/>
<stop offset="0.949" stop-color="#CD2032"/>
</linearGradient>
<linearGradient id="paint5_linear_1507_29069" x1="5.38619" y1="52.958" x2="9.6022" y2="43.9163" gradientUnits="userSpaceOnUse">
<stop offset="0.323" stop-color="#9E2064"/>
<stop offset="0.63" stop-color="#C92037"/>
<stop offset="0.751" stop-color="#CD2335"/>
<stop offset="1" stop-color="#E97826"/>
</linearGradient>
<linearGradient id="paint6_linear_1507_29069" x1="4.62369" y1="54.2992" x2="8.83939" y2="45.2582" gradientUnits="userSpaceOnUse">
<stop offset="0.323" stop-color="#9E2064"/>
<stop offset="0.63" stop-color="#C92037"/>
<stop offset="0.751" stop-color="#CD2335"/>
<stop offset="1" stop-color="#E97826"/>
</linearGradient>
<linearGradient id="paint7_linear_1507_29069" x1="407.501" y1="-786.962" x2="410.124" y2="-792.586" gradientUnits="userSpaceOnUse">
<stop stop-color="#F69923"/>
<stop offset="0.312" stop-color="#F79A23"/>
<stop offset="0.838" stop-color="#E97826"/>
</linearGradient>
<linearGradient id="paint8_linear_1507_29069" x1="70.3084" y1="36.4219" x2="72.3565" y2="36.4219" gradientUnits="userSpaceOnUse">
<stop offset="0.323" stop-color="#9E2064"/>
<stop offset="0.63" stop-color="#C92037"/>
<stop offset="0.751" stop-color="#CD2335"/>
<stop offset="1" stop-color="#E97826"/>
</linearGradient>
<linearGradient id="paint9_linear_1507_29069" x1="72.7977" y1="36.4217" x2="75.749" y2="36.4217" gradientUnits="userSpaceOnUse">
<stop offset="0.323" stop-color="#9E2064"/>
<stop offset="0.63" stop-color="#C92037"/>
<stop offset="0.751" stop-color="#CD2335"/>
<stop offset="1" stop-color="#E97826"/>
</linearGradient>
</defs>
</svg>
