<svg width="81" height="81" viewBox="0 0 81 81" fill="none" xmlns="http://www.w3.org/2000/svg">
<g clip-path="url(#clip0_1454_10342)">
<path d="M78.5454 2.5H41.2016L5.54224 40H40.9797L41.1454 39.8312L78.5454 2.5Z" fill="url(#paint0_linear_1454_10342)"/>
<path d="M41.1459 39.8311L40.9803 39.9998H41.3147L41.1459 39.8311Z" fill="url(#paint1_linear_1454_10342)"/>
<path d="M41.2021 2.5H3.5459V42.1V40H5.54277L41.2021 2.5Z" fill="url(#paint2_linear_1454_10342)"/>
<path d="M40.9803 40H5.54277L3.5459 42.1V77.5L40.9803 40Z" fill="url(#paint3_linear_1454_10342)"/>
<path d="M41.3147 40H40.9803L3.5459 77.5H78.5459L41.3147 40Z" fill="url(#paint4_linear_1454_10342)"/>
<path d="M5.54277 40H3.5459V42.1L5.54277 40Z" fill="url(#paint5_linear_1454_10342)"/>
</g>
<defs>
<linearGradient id="paint0_linear_1454_10342" x1="-9.84062" y1="71.0397" x2="59.9508" y2="1.24825" gradientUnits="userSpaceOnUse">
<stop stop-color="#C757BC"/>
<stop offset="0.108" stop-color="#C757BC"/>
<stop offset="0.173" stop-color="#CD5CA9"/>
<stop offset="0.492" stop-color="#E8744F"/>
<stop offset="0.716" stop-color="#F88316"/>
<stop offset="0.823" stop-color="#FF8900"/>
<stop offset="1" stop-color="#FF8900"/>
</linearGradient>
<linearGradient id="paint1_linear_1454_10342" x1="27.7738" y1="91.0095" x2="61.7914" y2="56.992" gradientUnits="userSpaceOnUse">
<stop stop-color="#00AFFF"/>
<stop offset="0.296" stop-color="#00AFFF"/>
<stop offset="0.694" stop-color="#5282FF"/>
<stop offset="1" stop-color="#945DFF"/>
</linearGradient>
<linearGradient id="paint2_linear_1454_10342" x1="2.75491" y1="23.2272" x2="26.6187" y2="-0.637218" gradientUnits="userSpaceOnUse">
<stop stop-color="#00AFFF"/>
<stop offset="0.296" stop-color="#00AFFF"/>
<stop offset="0.694" stop-color="#5282FF"/>
<stop offset="1" stop-color="#945DFF"/>
</linearGradient>
<linearGradient id="paint3_linear_1454_10342" x1="-9.42134" y1="71.4584" x2="60.3701" y2="1.66699" gradientUnits="userSpaceOnUse">
<stop stop-color="#AD4CA4"/>
<stop offset="0.108" stop-color="#AD4CA4"/>
<stop offset="0.173" stop-color="#B25093"/>
<stop offset="0.492" stop-color="#CA6545"/>
<stop offset="0.716" stop-color="#D87213"/>
<stop offset="0.823" stop-color="#DE7700"/>
<stop offset="1" stop-color="#DE7700"/>
</linearGradient>
<linearGradient id="paint4_linear_1454_10342" x1="27.7738" y1="91.0097" x2="61.7914" y2="56.9922" gradientUnits="userSpaceOnUse">
<stop stop-color="#0098DE"/>
<stop offset="0.296" stop-color="#0098DE"/>
<stop offset="0.694" stop-color="#4771DE"/>
<stop offset="1" stop-color="#8151DE"/>
</linearGradient>
<linearGradient id="paint5_linear_1454_10342" x1="12.1336" y1="32.6056" x2="35.9973" y2="8.74124" gradientUnits="userSpaceOnUse">
<stop stop-color="#0098DE"/>
<stop offset="0.296" stop-color="#0098DE"/>
<stop offset="0.694" stop-color="#4771DE"/>
<stop offset="1" stop-color="#8151DE"/>
</linearGradient>
<clipPath id="clip0_1454_10342">
<rect width="75" height="75" fill="white" transform="translate(3.5459 2.5)"/>
</clipPath>
</defs>
</svg>
