<svg width="81" height="81" viewBox="0 0 81 81" fill="none" xmlns="http://www.w3.org/2000/svg">
<path d="M22.7359 9.05859H57.8735C65.2863 9.05859 71.3047 15.0769 71.3047 22.4898V57.6274C71.3047 65.0402 65.2863 71.0586 57.8735 71.0586H22.7359C15.323 71.0586 9.30469 65.0402 9.30469 57.6274V22.4898C9.30469 15.0769 15.323 9.05859 22.7359 9.05859Z" fill="#FFD02F"/>
<path d="M52.3873 16.8022H45.5799L51.2497 26.7655L38.7726 16.8022H31.9653L38.2038 28.9857L25.1579 16.8022H18.3506L25.1579 32.3068L18.3506 63.316H25.1579L38.2038 30.0866L31.9653 63.316H38.7726L51.2497 27.8848L45.5799 63.316H52.3873L64.8643 24.5454L52.3873 16.8022Z" fill="#050038"/>
</svg>
