<svg width="108" height="117" viewBox="0 0 108 117" fill="none" xmlns="http://www.w3.org/2000/svg">
<path d="M33.1355 10.0586H72.5313C78.5042 10.0586 83.3334 14.8878 83.3334 20.8607V58.7315C83.3334 64.7044 78.5042 69.5336 72.5313 69.5336H33.1355C27.1625 69.5336 22.3334 64.7044 22.3334 58.7315V20.8607C22.3334 14.8878 27.1625 10.0586 33.1355 10.0586Z" fill="#001E36"/>
<path d="M36.0583 51.7675V25.6137C36.0583 25.4358 36.1345 25.3341 36.3125 25.3341C36.7445 25.3341 37.1512 25.3341 37.7358 25.3087C38.3458 25.2833 38.9812 25.2833 39.6675 25.2579C40.3537 25.2325 41.0908 25.2325 41.8787 25.2071C42.6666 25.1816 43.4291 25.1816 44.1916 25.1816C46.2758 25.1816 48.0041 25.4358 49.4275 25.9696C50.6983 26.4016 51.8675 27.1133 52.8333 28.0537C53.6466 28.8671 54.282 29.8583 54.6887 30.9512C55.07 32.0187 55.2733 33.1116 55.2733 34.2554C55.2733 36.4412 54.765 38.2458 53.7483 39.6691C52.7316 41.0925 51.3083 42.16 49.6562 42.77C47.9279 43.4054 46.0216 43.6341 43.9375 43.6341C43.3275 43.6341 42.9208 43.6341 42.6666 43.6087C42.4125 43.5833 42.0566 43.5833 41.5737 43.5833V51.7421C41.5991 51.92 41.472 52.0725 41.2941 52.0979H36.3633C36.16 52.0979 36.0583 51.9962 36.0583 51.7675ZM41.5991 30.2396V38.7796C41.955 38.805 42.2854 38.8304 42.5904 38.8304H43.9375C44.9287 38.8304 45.92 38.6779 46.8604 38.3729C47.6737 38.1441 48.3854 37.6612 48.9445 37.0258C49.4783 36.3904 49.7325 35.5262 49.7325 34.4079C49.7579 33.62 49.5545 32.8321 49.1479 32.1458C48.7158 31.485 48.1058 30.9766 47.3687 30.6971C46.4283 30.3158 45.4116 30.1633 44.3695 30.1887C43.7087 30.1887 43.1241 30.1887 42.6412 30.2141C42.1329 30.1887 41.777 30.2141 41.5991 30.2396ZM71.1333 37.2291C70.3708 36.8225 69.5575 36.5429 68.6933 36.365C67.7529 36.1616 66.8125 36.0346 65.8466 36.0346C65.3383 36.0091 64.8045 36.0854 64.3216 36.2125C63.9912 36.2887 63.7116 36.4666 63.5337 36.7208C63.4066 36.9241 63.3304 37.1783 63.3304 37.4071C63.3304 37.6358 63.432 37.8646 63.5845 38.0679C63.8133 38.3475 64.1183 38.5762 64.4487 38.7541C65.0333 39.0591 65.6433 39.3387 66.2533 39.5929C67.6258 40.0504 68.9475 40.6858 70.1675 41.4483C71.0062 41.9821 71.6925 42.6937 72.1754 43.5579C72.582 44.3712 72.7854 45.2608 72.76 46.1758C72.7854 47.3704 72.4295 48.565 71.7687 49.5562C71.057 50.5729 70.0658 51.3608 68.922 51.8183C67.6766 52.3521 66.1516 52.6316 64.3216 52.6316C63.1525 52.6316 62.0087 52.53 60.865 52.3012C59.9754 52.1487 59.0858 51.8691 58.2725 51.4879C58.0945 51.3862 57.9675 51.2083 57.9929 51.005V46.5825C57.9929 46.5062 58.0183 46.4046 58.0945 46.3537C58.1708 46.3029 58.247 46.3283 58.3233 46.3791C59.3145 46.9637 60.3566 47.3704 61.475 47.6246C62.4408 47.8787 63.4575 48.0058 64.4741 48.0058C65.44 48.0058 66.1262 47.8787 66.5837 47.65C66.9904 47.4721 67.27 47.04 67.27 46.5825C67.27 46.2266 67.0666 45.8962 66.66 45.5658C66.2533 45.2354 65.4145 44.8541 64.1691 44.3712C62.8729 43.9137 61.6783 43.3037 60.56 42.5412C59.772 41.9821 59.1112 41.245 58.6283 40.3808C58.2216 39.5675 58.0183 38.6779 58.0437 37.7883C58.0437 36.6954 58.3487 35.6533 58.9079 34.7129C59.5433 33.6962 60.4837 32.8829 61.5766 32.3746C62.7712 31.7646 64.2708 31.485 66.0754 31.485C67.1175 31.485 68.185 31.5612 69.227 31.7137C69.9895 31.8154 70.7266 32.0187 71.4129 32.2983C71.5145 32.3237 71.6162 32.4254 71.667 32.5271C71.6925 32.6287 71.7179 32.7304 71.7179 32.8321V36.975C71.7179 37.0766 71.667 37.1783 71.5908 37.2291C71.362 37.28 71.235 37.28 71.1333 37.2291Z" fill="#31A8FF"/>
<path d="M2.44282 110.117V94.7413H6.82589C7.98221 94.7413 8.99009 94.8819 9.84951 95.1632C10.7089 95.4444 11.3809 95.921 11.8653 96.5929C12.3497 97.2492 12.5919 98.1399 12.5919 99.265C12.5919 100.874 12.0684 102.07 11.0215 102.851C9.97452 103.632 8.60725 104.023 6.91965 104.023H4.38825V110.117H2.44282ZM4.38825 102.429H6.68526C8.02909 102.429 9.02134 102.179 9.662 101.679C10.3183 101.164 10.6464 100.359 10.6464 99.265C10.6464 98.1555 10.3027 97.3899 9.61512 96.968C8.94321 96.5304 7.93533 96.3117 6.5915 96.3117H4.38825V102.429ZM15.5313 110.117V93.4287H17.4532V97.9758L17.3829 100.32C17.9298 99.8041 18.5002 99.3665 19.094 99.0071C19.7034 98.6321 20.3987 98.4446 21.18 98.4446C22.3832 98.4446 23.2583 98.8274 23.8052 99.5931C24.3677 100.343 24.649 101.445 24.649 102.898V110.117H22.727V103.156C22.727 102.093 22.5551 101.32 22.2113 100.835C21.8676 100.351 21.3207 100.109 20.5706 100.109C19.9925 100.109 19.469 100.257 19.0002 100.554C18.5471 100.851 18.0314 101.289 17.4532 101.867V110.117H15.5313ZM32.7107 110.398C31.7888 110.398 30.9215 110.164 30.109 109.695C29.3121 109.227 28.6636 108.547 28.1635 107.656C27.6791 106.765 27.4369 105.695 27.4369 104.445C27.4369 103.164 27.6791 102.078 28.1635 101.187C28.6636 100.296 29.3121 99.6166 30.109 99.1478C30.9215 98.679 31.7888 98.4446 32.7107 98.4446C33.6483 98.4446 34.5155 98.679 35.3124 99.1478C36.1093 99.6166 36.75 100.296 37.2344 101.187C37.7344 102.078 37.9845 103.164 37.9845 104.445C37.9845 105.695 37.7344 106.765 37.2344 107.656C36.75 108.547 36.1093 109.227 35.3124 109.695C34.5155 110.164 33.6483 110.398 32.7107 110.398ZM32.7107 108.805C33.6951 108.805 34.4842 108.406 35.078 107.609C35.6874 106.797 35.9921 105.742 35.9921 104.445C35.9921 103.132 35.6874 102.07 35.078 101.257C34.4842 100.445 33.6951 100.038 32.7107 100.038C31.7419 100.038 30.9528 100.445 30.3434 101.257C29.734 102.07 29.4292 103.132 29.4292 104.445C29.4292 105.742 29.734 106.797 30.3434 107.609C30.9528 108.406 31.7419 108.805 32.7107 108.805ZM44.1815 110.398C42.9627 110.398 42.111 110.047 41.6266 109.344C41.1579 108.641 40.9235 107.726 40.9235 106.601V100.296H39.2359V98.8431L41.0172 98.7259L41.2516 95.5382H42.8689V98.7259H45.9394V100.296H42.8689V106.625C42.8689 107.328 42.9939 107.875 43.2439 108.266C43.5096 108.641 43.9705 108.828 44.6268 108.828C44.83 108.828 45.0487 108.797 45.2831 108.734C45.5175 108.656 45.7284 108.586 45.916 108.523L46.291 109.977C45.9785 110.086 45.6347 110.18 45.2597 110.258C44.9003 110.352 44.5409 110.398 44.1815 110.398ZM52.6246 110.398C51.7027 110.398 50.8354 110.164 50.0229 109.695C49.226 109.227 48.5775 108.547 48.0775 107.656C47.5931 106.765 47.3509 105.695 47.3509 104.445C47.3509 103.164 47.5931 102.078 48.0775 101.187C48.5775 100.296 49.226 99.6166 50.0229 99.1478C50.8354 98.679 51.7027 98.4446 52.6246 98.4446C53.5622 98.4446 54.4294 98.679 55.2263 99.1478C56.0233 99.6166 56.6639 100.296 57.1483 101.187C57.6484 102.078 57.8984 103.164 57.8984 104.445C57.8984 105.695 57.6484 106.765 57.1483 107.656C56.6639 108.547 56.0233 109.227 55.2263 109.695C54.4294 110.164 53.5622 110.398 52.6246 110.398ZM52.6246 108.805C53.6091 108.805 54.3982 108.406 54.9919 107.609C55.6014 106.797 55.9061 105.742 55.9061 104.445C55.9061 103.132 55.6014 102.07 54.9919 101.257C54.3982 100.445 53.6091 100.038 52.6246 100.038C51.6558 100.038 50.8667 100.445 50.2573 101.257C49.6479 102.07 49.3432 103.132 49.3432 104.445C49.3432 105.742 49.6479 106.797 50.2573 107.609C50.8667 108.406 51.6558 108.805 52.6246 108.805ZM63.8751 110.398C63.0626 110.398 62.2891 110.25 61.5547 109.953C60.8202 109.641 60.1796 109.266 59.6327 108.828L60.5937 107.539C61.0937 107.93 61.6094 108.258 62.1406 108.523C62.6719 108.773 63.2735 108.898 63.9454 108.898C64.6955 108.898 65.258 108.726 65.633 108.383C66.0081 108.023 66.1956 107.601 66.1956 107.117C66.1956 106.726 66.0627 106.398 65.7971 106.133C65.5471 105.867 65.2189 105.648 64.8127 105.476C64.422 105.289 64.0157 105.117 63.5938 104.961C63.0626 104.757 62.5391 104.531 62.0234 104.281C61.5078 104.015 61.0859 103.679 60.7577 103.273C60.4296 102.851 60.2655 102.32 60.2655 101.679C60.2655 100.757 60.6093 99.9916 61.2968 99.3822C62 98.7571 62.9688 98.4446 64.2033 98.4446C64.9064 98.4446 65.5627 98.5696 66.1721 98.8196C66.7815 99.0696 67.305 99.3744 67.7425 99.7337L66.805 100.953C66.4143 100.656 66.0081 100.413 65.5862 100.226C65.1643 100.038 64.7033 99.9447 64.2033 99.9447C63.4845 99.9447 62.9532 100.109 62.6094 100.437C62.2813 100.765 62.1172 101.148 62.1172 101.585C62.1172 101.945 62.2344 102.242 62.4688 102.476C62.7032 102.695 63.0079 102.89 63.3829 103.062C63.7579 103.218 64.1564 103.382 64.5783 103.554C65.1252 103.757 65.6643 103.992 66.1956 104.257C66.7268 104.507 67.1644 104.851 67.5081 105.289C67.8675 105.711 68.0472 106.281 68.0472 107C68.0472 107.609 67.8832 108.172 67.555 108.687C67.2425 109.203 66.7737 109.617 66.1487 109.93C65.5393 110.242 64.7814 110.398 63.8751 110.398ZM70.718 110.117V93.4287H72.64V97.9758L72.5697 100.32C73.1166 99.8041 73.6869 99.3665 74.2807 99.0071C74.8901 98.6321 75.5855 98.4446 76.3668 98.4446C77.57 98.4446 78.445 98.8274 78.9919 99.5931C79.5545 100.343 79.8357 101.445 79.8357 102.898V110.117H77.9137V103.156C77.9137 102.093 77.7419 101.32 77.3981 100.835C77.0543 100.351 76.5074 100.109 75.7574 100.109C75.1792 100.109 74.6557 100.257 74.187 100.554C73.7338 100.851 73.2181 101.289 72.64 101.867V110.117H70.718ZM87.8974 110.398C86.9755 110.398 86.1083 110.164 85.2957 109.695C84.4988 109.227 83.8503 108.547 83.3503 107.656C82.8659 106.765 82.6237 105.695 82.6237 104.445C82.6237 103.164 82.8659 102.078 83.3503 101.187C83.8503 100.296 84.4988 99.6166 85.2957 99.1478C86.1083 98.679 86.9755 98.4446 87.8974 98.4446C88.835 98.4446 89.7022 98.679 90.4992 99.1478C91.2961 99.6166 91.9367 100.296 92.4212 101.187C92.9212 102.078 93.1712 103.164 93.1712 104.445C93.1712 105.695 92.9212 106.765 92.4212 107.656C91.9367 108.547 91.2961 109.227 90.4992 109.695C89.7022 110.164 88.835 110.398 87.8974 110.398ZM87.8974 108.805C88.8819 108.805 89.671 108.406 90.2648 107.609C90.8742 106.797 91.1789 105.742 91.1789 104.445C91.1789 103.132 90.8742 102.07 90.2648 101.257C89.671 100.445 88.8819 100.038 87.8974 100.038C86.9286 100.038 86.1395 100.445 85.5301 101.257C84.9207 102.07 84.616 103.132 84.616 104.445C84.616 105.742 84.9207 106.797 85.5301 107.609C86.1395 108.406 86.9286 108.805 87.8974 108.805ZM96.1712 114.922V98.7259H97.765L97.9291 100.038H97.9994C98.5151 99.6009 99.0776 99.2259 99.687 98.9134C100.312 98.6009 100.961 98.4446 101.632 98.4446C103.101 98.4446 104.219 98.9759 104.984 100.038C105.75 101.085 106.133 102.492 106.133 104.257C106.133 105.539 105.898 106.64 105.43 107.562C104.976 108.484 104.375 109.187 103.625 109.672C102.89 110.156 102.086 110.398 101.211 110.398C100.679 110.398 100.148 110.281 99.6167 110.047C99.1011 109.812 98.5776 109.492 98.0463 109.086L98.0932 111.078V114.922H96.1712ZM100.882 108.781C101.82 108.781 102.593 108.383 103.203 107.586C103.828 106.773 104.14 105.664 104.14 104.257C104.14 103.007 103.906 102 103.437 101.234C102.984 100.453 102.218 100.062 101.14 100.062C100.656 100.062 100.164 100.195 99.6636 100.46C99.1792 100.726 98.6557 101.109 98.0932 101.609V107.586C98.6088 108.023 99.1089 108.336 99.5933 108.523C100.078 108.695 100.507 108.781 100.882 108.781Z" fill="#40495E"/>
</svg>
