<svg width="81" height="81" viewBox="0 0 81 81" fill="none" xmlns="http://www.w3.org/2000/svg">
<path d="M9.73619 8.00003C9.03985 8.00003 8.40182 8.29375 7.96897 8.77508C7.57899 9.18263 7.33657 9.73704 7.319 10.3399V10.5001C7.32673 10.7861 7.38294 11.0545 7.48343 11.3012C7.48764 11.323 7.49678 11.3405 7.50451 11.3623C7.58321 11.5485 7.68228 11.7214 7.80806 11.8823C7.85092 11.9434 7.89941 11.9996 7.95141 12.0509C7.96145 12.0652 7.97299 12.0784 7.98584 12.0903L15.6906 21.2377L18.4725 24.5395L26.802 34.4247L29.5839 37.7217L37.0413 46.5753L39.8183 49.8723V72.9993C41.3921 73.0034 42.9053 72.3924 44.035 71.2968C44.04 71.2968 44.04 71.2968 44.04 71.2918L44.8586 70.3172L64.8615 46.5753L71.7084 38.4454C71.7428 38.411 71.773 38.3716 71.8039 38.333C71.9508 38.151 72.0674 37.9465 72.1539 37.7217C72.2628 37.4532 72.319 37.1588 72.319 36.8461V10.4179C72.319 9.7806 72.0717 9.19528 71.6648 8.77086C71.4399 8.52634 71.1664 8.33147 70.8619 8.19874C70.5573 8.066 70.2284 7.99832 69.8962 8.00003H9.73619Z" fill="black"/>
<path d="M9.73619 8.00003C9.03984 8.00003 8.40182 8.29375 7.96897 8.77508C7.57899 9.18263 7.33657 9.73704 7.319 10.3399V10.5001C7.32673 10.7861 7.38294 11.0545 7.48343 11.3012C7.48764 11.323 7.49678 11.3405 7.50451 11.3623C7.58321 11.5485 7.68228 11.7214 7.80806 11.8823C7.85092 11.9434 7.89941 11.9996 7.95141 12.0509C7.96145 12.0652 7.97299 12.0784 7.98584 12.0903L15.6906 21.2377L18.4725 24.5395L26.802 34.4247L29.5839 37.7217L37.0413 46.5753L39.8183 49.8723V72.9993C41.3921 73.0034 42.9053 72.3924 44.035 71.2968C44.04 71.2968 44.04 71.2968 44.04 71.2918L44.8586 70.3172L64.8615 46.5753L71.7084 38.4454C71.7428 38.411 71.773 38.3716 71.8039 38.333C71.9508 38.151 72.0674 37.9465 72.1539 37.7217C72.2628 37.4532 72.319 37.1588 72.319 36.8461V10.4179C72.319 9.7806 72.0717 9.19528 71.6648 8.77086C71.4399 8.52634 71.1664 8.33147 70.8619 8.19874C70.5573 8.066 70.2284 7.99832 69.8962 8.00003H9.73619Z" fill="url(#paint0_linear_1476_11274)"/>
<path d="M39.819 63.1114V72.9994C38.2456 73.0008 36.7333 72.39 35.6023 71.2961C35.598 71.2961 35.5981 71.2961 35.5981 71.2926L34.7794 70.3173L14.7765 46.5754L7.96897 38.4933C7.95158 38.4833 7.9378 38.468 7.92962 38.4497L7.82141 38.3246C7.81298 38.3155 7.80736 38.3071 7.80033 38.2979C7.66689 38.1225 7.5601 37.9284 7.48343 37.7217C7.38219 37.4693 7.32652 37.201 7.319 36.9291V36.7647C7.319 36.7127 7.32322 36.66 7.33235 36.608C7.37943 36.0627 7.61342 35.5765 7.96897 35.1956C8.1946 34.9524 8.46802 34.7584 8.77212 34.6258C9.07622 34.4931 9.40443 34.4247 9.73619 34.4248H15.6436L18.4212 37.7217L25.8787 46.5754L38.1066 61.0877L39.8141 63.1156L39.819 63.1114Z" fill="#FCD1CA"/>
<path d="M39.819 49.8745V63.1101L39.8148 63.1143L38.1087 61.0871L25.8808 46.5769L18.4219 37.7239L15.6436 34.4249L7.924 25.2676C7.73356 25.0541 7.58356 24.8076 7.48132 24.5404C7.38153 24.2852 7.32661 24.0146 7.319 23.7407V23.5777C7.33491 22.9941 7.56647 22.4371 7.96897 22.0143C8.19288 21.7685 8.46585 21.5724 8.77025 21.4387C9.07465 21.3049 9.40371 21.2365 9.73619 21.2378H15.692L18.4746 24.5404L26.8034 34.4249L29.5818 37.7239L37.0406 46.5762L39.819 49.8745Z" fill="#FF9D8D"/>
<defs>
<linearGradient id="paint0_linear_1476_11274" x1="6579.08" y1="-867.404" x2="947.943" y2="4826.66" gradientUnits="userSpaceOnUse">
<stop stop-color="#FF6660"/>
<stop offset="1" stop-color="#FB4444"/>
</linearGradient>
</defs>
</svg>
