<svg width="81" height="81" viewBox="0 0 81 81" fill="none" xmlns="http://www.w3.org/2000/svg">
<path d="M79.7881 39.6446C79.7881 34.4916 73.3349 29.608 63.4409 26.5796C65.7242 16.4954 64.7095 8.47242 60.2379 5.90378C59.2072 5.30126 58.0025 5.01585 56.6864 5.01585V8.5517C57.4157 8.5517 58.0025 8.6944 58.4939 8.96393C60.6502 10.2007 61.5859 14.9098 60.8562 20.9667C60.6821 22.4571 60.3967 24.0268 60.0479 25.6283C56.9399 24.8672 53.5468 24.2806 49.9794 23.9C47.839 20.9667 45.6191 18.3029 43.3833 15.9722C48.5523 11.1679 53.4043 8.53581 56.7023 8.53581V5C52.3417 5 46.6338 8.10773 40.8625 13.4986C35.0908 8.13943 29.3829 5.06343 25.0226 5.06343V8.59924C28.3047 8.59924 33.1723 11.2155 38.3413 15.988C36.1215 18.3188 33.9016 20.9667 31.7928 23.9C28.2093 24.2806 24.8163 24.8672 21.7087 25.6441C21.3438 24.0586 21.0744 22.5205 20.884 21.046C20.1391 14.9891 21.0584 10.2799 23.1992 9.02736C23.6747 8.74195 24.293 8.61512 25.0226 8.61512V5.07928C23.6906 5.07928 22.4855 5.36469 21.4392 5.96721C16.9836 8.53581 15.9848 16.5429 18.2837 26.5955C8.42156 29.6398 2 34.5075 2 39.6446C2 44.798 8.45325 49.6815 18.3472 52.7097C16.0639 62.7942 17.0786 70.8169 21.5502 73.3856C22.5809 73.988 23.7856 74.2734 25.1177 74.2734C29.4779 74.2734 35.1862 71.1658 40.9575 65.7749C46.7289 71.1342 52.4371 74.2103 56.7973 74.2103C58.129 74.2103 59.3342 73.9249 60.3808 73.3222C64.836 70.7534 65.8352 62.7463 63.5359 52.6941C73.3665 49.6656 79.7881 44.782 79.7881 39.6446ZM59.1441 29.069C58.5573 31.1145 57.828 33.223 57.0033 35.3319C56.3535 34.0636 55.6717 32.7951 54.9264 31.5265C54.1971 30.2582 53.4199 29.0214 52.6431 27.8164C54.8945 28.1493 57.0668 28.5616 59.1441 29.069ZM51.8819 45.9552C50.6452 48.096 49.377 50.1254 48.0609 52.0123C45.6982 52.2183 43.3043 52.3293 40.894 52.3293C38.4998 52.3293 36.1055 52.2183 33.7591 52.0279C32.443 50.141 31.1585 48.1275 29.9218 46.0027C28.7167 43.9258 27.6229 41.8169 26.6238 39.6925C27.607 37.5676 28.7167 35.4428 29.9062 33.3659C31.1429 31.2255 32.4111 29.1958 33.7272 27.309C36.0899 27.1028 38.4838 26.9919 40.894 26.9919C43.2883 26.9919 45.6826 27.1028 48.029 27.2931C49.3451 29.18 50.6296 31.1936 51.8663 33.3184C53.0714 35.3953 54.1652 37.5042 55.1643 39.629C54.1652 41.7535 53.0714 43.8783 51.8819 45.9552ZM57.0033 43.8942C57.8357 45.9605 58.566 48.0665 59.1916 50.2045C57.1143 50.7118 54.9264 51.1401 52.6591 51.4731C53.4359 50.2523 54.2127 48.9997 54.9423 47.7152C55.6717 46.447 56.3535 45.1624 57.0033 43.8942ZM40.9256 60.8122C39.451 59.2898 37.9765 57.5933 36.5178 55.7383C37.9449 55.8018 39.4035 55.8493 40.8781 55.8493C42.3686 55.8493 43.8432 55.8177 45.2862 55.7383C43.9252 57.5069 42.4695 59.2007 40.9256 60.8122ZM29.129 51.4731C26.8777 51.1401 24.7053 50.7278 22.6284 50.2204C23.2148 48.175 23.9445 46.0662 24.7688 43.9573C25.419 45.2259 26.1008 46.4945 26.8457 47.7627C27.591 49.0313 28.3522 50.2679 29.129 51.4731ZM40.8465 18.4774C42.3211 19.9995 43.7957 21.6961 45.2543 23.5512C43.8272 23.4878 42.3686 23.4402 40.894 23.4402C39.4035 23.4402 37.929 23.4719 36.4863 23.5512C37.8472 21.7826 39.3027 20.0888 40.8465 18.4774ZM29.1131 27.8164C28.3363 29.0373 27.5594 30.2898 26.8301 31.574C26.1008 32.8426 25.419 34.1111 24.7688 35.3794C23.9364 33.3131 23.2062 31.2071 22.5809 29.069C24.6578 28.5774 26.8457 28.1493 29.1131 27.8164ZM14.7638 47.6677C9.15094 45.2734 5.51997 42.1342 5.51997 39.6446C5.51997 37.1553 9.15094 34.0002 14.7638 31.6219C16.1274 31.0351 17.6179 30.5118 19.1559 30.0203C20.0597 33.128 21.2488 36.3625 22.7234 39.6765C21.2648 42.9745 20.0912 46.1931 19.2034 49.2851C17.6338 48.7934 16.1433 48.2545 14.7638 47.6677ZM23.2942 70.3255C21.1379 69.0888 20.2022 64.3797 20.9319 58.3226C21.1063 56.8324 21.3914 55.2625 21.7402 53.661C24.8482 54.4222 28.2412 55.009 31.8087 55.3894C33.9491 58.3226 36.169 60.9863 38.4048 63.3171C33.2358 68.1216 28.3838 70.7534 25.0858 70.7534C24.3724 70.7378 23.77 70.595 23.2942 70.3255ZM60.9041 58.2435C61.649 64.3003 60.7297 69.0094 58.5889 70.262C58.1134 70.5475 57.4951 70.6744 56.7654 70.6744C53.4834 70.6744 48.6158 68.0582 43.4468 63.2856C45.6666 60.9548 47.8865 58.307 49.9953 55.3735C53.5788 54.993 56.9718 54.4062 60.0794 53.6294C60.4442 55.2309 60.7296 56.769 60.9041 58.2435ZM67.0084 47.6677C65.6448 48.2545 64.1542 48.7778 62.6162 49.2692C61.7125 46.1616 60.5233 42.927 59.0487 39.613C60.5077 36.315 61.6809 33.0964 62.5687 30.0044C64.1386 30.496 65.6288 31.0351 67.0243 31.6219C72.6372 34.0158 76.2681 37.1553 76.2681 39.6446C76.2522 42.1342 72.6212 45.2894 67.0084 47.6677Z" fill="#61DAFB"/>
<circle cx="41.2261" cy="39.5952" r="7.26075" fill="#61DAFB"/>
</svg>
