<svg width="81" height="81" viewBox="0 0 81 81" fill="none" xmlns="http://www.w3.org/2000/svg">
<g clip-path="url(#clip0_1507_29101)">
<g clip-path="url(#clip1_1507_29101)">
<path d="M27.0702 45.1366C26.5766 45.132 26.0838 45.0937 25.5955 45.0218C25.0662 44.9498 24.5413 44.8483 24.0233 44.7177V43.9201C24.5357 44.0497 25.0548 44.1512 25.5783 44.2242C26.0532 44.2958 26.5325 44.3341 27.0128 44.339C27.6771 44.3811 28.3378 44.2124 28.9006 43.857C29.1147 43.7005 29.2866 43.4932 29.4007 43.2538C29.5149 43.0145 29.5678 42.7505 29.5547 42.4856C29.5681 42.2065 29.5097 41.9286 29.3851 41.6785C29.2606 41.4284 29.074 41.2144 28.8432 41.0568C28.6141 40.8912 28.3655 40.7543 28.103 40.6494C27.8046 40.5385 27.4852 40.4333 27.1448 40.3338C26.6868 40.2025 26.2398 40.0356 25.8078 39.8346C25.4752 39.6838 25.169 39.4804 24.9012 39.2321C24.673 39.0182 24.4965 38.7553 24.3848 38.4632C24.2705 38.1429 24.2142 37.8048 24.2183 37.4648C24.2131 37.0827 24.2935 36.7043 24.4536 36.3574C24.6105 36.024 24.8399 35.73 25.125 35.4967C25.4315 35.2379 25.7865 35.0428 26.1693 34.9228C26.6117 34.7997 27.0701 34.7436 27.5292 34.7564C28.3821 34.7734 29.2305 34.8831 30.0597 35.0835V35.8983C29.6383 35.79 29.2111 35.7057 28.7801 35.6458C28.3999 35.5919 28.0165 35.5632 27.6325 35.5598C27.0019 35.5269 26.3788 35.7089 25.8652 36.0762C25.6442 36.2331 25.465 36.4417 25.343 36.6837C25.221 36.9257 25.1599 37.1938 25.1651 37.4648C25.1608 37.7018 25.2017 37.9374 25.2856 38.1591C25.3723 38.3794 25.5099 38.5761 25.6873 38.7329C25.9052 38.9209 26.151 39.0739 26.416 39.1862C26.7884 39.3444 27.172 39.4748 27.5636 39.5764C27.9882 39.7026 28.3823 39.8384 28.7457 39.9838C29.087 40.114 29.4064 40.2959 29.6924 40.5232C29.958 40.7381 30.1734 41.0083 30.3236 41.315C30.4862 41.6752 30.5647 42.0677 30.5532 42.4627C30.5745 42.8428 30.5043 43.2225 30.3485 43.57C30.1928 43.9174 29.956 44.2225 29.658 44.4595C28.8951 44.9676 27.9842 45.2059 27.0702 45.1366ZM35.3444 45.1079C34.8922 45.1399 34.4384 45.0733 34.0144 44.9128C33.5904 44.7523 33.2063 44.5017 32.8885 44.1783C32.2873 43.4129 31.989 42.4528 32.0508 41.4814C31.9881 40.4594 32.2777 39.4467 32.8713 38.6124C33.1615 38.2712 33.5274 38.0027 33.9399 37.8284C34.3524 37.654 34.8 37.5786 35.2469 37.6083C35.6195 37.583 35.9929 37.6439 36.3382 37.7862C36.6835 37.9285 36.9913 38.1484 37.238 38.4288C37.7253 39.1172 37.964 39.9509 37.9151 40.7929V41.3208C37.9102 41.4446 37.8929 41.5676 37.8634 41.688H32.9459C32.9264 42.4156 33.1642 43.1267 33.6173 43.6963C33.8598 43.9271 34.148 44.1045 34.4633 44.2171C34.7785 44.3298 35.1139 44.3752 35.4477 44.3505C35.798 44.3483 36.1474 44.3157 36.492 44.2529C36.869 44.185 37.2395 44.0852 37.5995 43.9545L37.6683 44.6833C37.297 44.8255 36.9126 44.9312 36.5207 44.9989C36.1327 45.0704 35.739 45.1069 35.3444 45.1079ZM35.2182 38.2853C33.8105 38.2853 33.0569 39.192 32.9574 41.0052H37.0601C37.1169 40.2821 36.9614 39.5582 36.6125 38.9223C36.453 38.7068 36.2414 38.5353 35.9976 38.4239C35.7537 38.3125 35.4855 38.2648 35.2182 38.2853ZM39.9464 34.022H40.853V44.9874H39.9464V34.022ZM46.2123 45.1079C45.7601 45.1399 45.3063 45.0733 44.8823 44.9128C44.4583 44.7523 44.0741 44.5017 43.7564 44.1783C43.1572 43.4121 42.861 42.4521 42.9244 41.4814C42.8617 40.4594 43.1513 39.4467 43.7449 38.6124C44.0351 38.2712 44.401 38.0027 44.8135 37.8284C45.226 37.654 45.6736 37.5786 46.1205 37.6083C46.4931 37.583 46.8665 37.6439 47.2118 37.7862C47.5571 37.9285 47.865 38.1484 48.1116 38.4288C48.5888 39.1209 48.8173 39.9542 48.76 40.7929V41.3208C48.7551 41.4446 48.7379 41.5676 48.7084 41.688H43.8138C43.7948 42.4155 44.0325 43.1265 44.4852 43.6963C44.7284 43.9278 45.0175 44.1057 45.3338 44.2183C45.6501 44.331 45.9865 44.376 46.3213 44.3505C46.6716 44.3483 47.021 44.3157 47.3657 44.2529C47.7426 44.185 48.1131 44.0851 48.4731 43.9545L48.542 44.6833C48.1706 44.8255 47.7862 44.9312 47.3943 44.9989C47.0044 45.0707 46.6088 45.1072 46.2123 45.1079ZM46.0918 38.2853C44.6841 38.2853 43.9305 39.192 43.831 41.0052H47.9337C47.9906 40.2821 47.835 39.5582 47.4862 38.9223C47.3267 38.7068 47.1151 38.5353 46.8712 38.4239C46.6273 38.3125 46.3591 38.2648 46.0918 38.2853ZM50.7741 37.6771H51.5315L51.6003 38.5321H51.6692C52.0288 38.3599 52.3578 38.2108 52.6561 38.0845C52.9545 37.9583 53.228 37.855 53.4767 37.7747C53.7015 37.6985 53.9317 37.6391 54.1653 37.5968C54.3738 37.5618 54.585 37.5445 54.7964 37.5451C55.0548 37.5257 55.3144 37.5594 55.5591 37.6443C55.8039 37.7292 56.0287 37.8634 56.2195 38.0386C56.5706 38.4594 56.7417 39.0016 56.6957 39.5477V45.0046H55.7834V39.8404C55.818 39.4325 55.7061 39.0256 55.4678 38.6927C55.3398 38.5699 55.1872 38.4756 55.02 38.4163C54.8528 38.3569 54.6749 38.3338 54.4981 38.3485C54.0599 38.3587 53.6261 38.4381 53.2127 38.5837C52.6873 38.7608 52.1752 38.9756 51.6807 39.2264V44.9644H50.7741V37.6771ZM59.5189 36.0418C59.4393 36.0533 59.3581 36.0467 59.2815 36.0225C59.2048 35.9982 59.1346 35.957 59.0761 35.9018C59.0176 35.8466 58.9724 35.779 58.9437 35.7038C58.915 35.6287 58.9037 35.5481 58.9106 35.468C58.9106 35.3066 58.9747 35.1519 59.0888 35.0379C59.2028 34.9238 59.3575 34.8597 59.5189 34.8597C59.6802 34.8597 59.8349 34.9238 59.9489 35.0379C60.063 35.1519 60.1271 35.3066 60.1271 35.468C60.134 35.5481 60.1227 35.6287 60.094 35.7038C60.0654 35.779 60.0201 35.8466 59.9616 35.9018C59.9031 35.957 59.8329 35.9982 59.7563 36.0225C59.6796 36.0467 59.5984 36.0533 59.5189 36.0418ZM59.0598 37.6771H59.9664V44.9874H59.0598V37.6771ZM64.1437 45.1194C62.9426 45.1194 62.342 44.4557 62.342 43.1283V37.6771H63.2486V42.8414C63.2099 43.2439 63.3068 43.6479 63.524 43.989C63.6395 44.1125 63.7818 44.2079 63.94 44.2676C64.0982 44.3273 64.2681 44.3497 64.4364 44.3333C64.9237 44.3307 65.4063 44.2373 65.8594 44.0578C66.3376 43.8742 66.833 43.6562 67.3456 43.4037V37.6771H68.2694V44.9874H67.512L67.4431 44.0808H67.3915L66.3988 44.5456C66.1157 44.6756 65.8518 44.7846 65.6069 44.8726C65.3772 44.9546 65.1411 45.018 64.9011 45.062C64.6509 45.1039 64.3974 45.1231 64.1437 45.1194ZM70.6679 37.6771H71.4138L71.4942 38.5321H71.5458C72.02 38.2453 72.5149 37.994 73.0262 37.7804C73.3908 37.6312 73.78 37.5514 74.1738 37.5451C74.5329 37.4982 74.8974 37.5727 75.2093 37.7567C75.5212 37.9408 75.7627 38.2238 75.8953 38.5608H75.9641C76.2701 38.3695 76.5475 38.2108 76.7961 38.0845C77.0201 37.9693 77.2499 37.8659 77.4847 37.7747C77.6706 37.6992 77.8625 37.6397 78.0585 37.5968C78.2477 37.561 78.4398 37.5437 78.6323 37.5451C78.887 37.5265 79.1429 37.5596 79.3845 37.6425C79.6261 37.7253 79.8484 37.8561 80.0381 38.0271C80.3892 38.4479 80.5603 38.9901 80.5144 39.5362V44.9931H79.6193V39.8289C79.6591 39.4205 79.5467 39.0118 79.3037 38.6813C79.1746 38.5603 79.0216 38.4677 78.8546 38.4094C78.6876 38.3511 78.5102 38.3284 78.3339 38.3427C77.9832 38.3541 77.6373 38.4279 77.3126 38.5608C76.8827 38.7342 76.4681 38.9435 76.0731 39.1862V44.9817H75.1551V39.8174C75.1949 39.409 75.0825 39.0003 74.8395 38.6698C74.7104 38.5489 74.5574 38.4563 74.3904 38.3979C74.2234 38.3396 74.046 38.3169 73.8697 38.3313C73.5029 38.342 73.1412 38.4198 72.8025 38.5608C72.376 38.7337 71.9652 38.943 71.5745 39.1862V44.9874H70.6679V37.6771ZM12.8685 42.3479C12.5099 42.337 12.1604 42.4614 11.8893 42.6963C11.6182 42.9312 11.4454 43.2595 11.4053 43.616C11.4035 43.6229 11.4033 43.6301 11.4048 43.6371C11.4063 43.6441 11.4094 43.6506 11.4139 43.6562C11.4183 43.6617 11.424 43.6662 11.4305 43.6692C11.437 43.6722 11.444 43.6736 11.4512 43.6734H14.2915C14.2981 43.6734 14.3045 43.6721 14.3105 43.6694C14.3165 43.6668 14.3218 43.6629 14.3262 43.658C14.3305 43.6531 14.3338 43.6473 14.3357 43.6411C14.3377 43.6348 14.3382 43.6282 14.3374 43.6217C14.3095 43.2588 14.1396 42.9215 13.8646 42.6831C13.5896 42.4446 13.2317 42.3242 12.8685 42.3479Z" fill="#01A71C"/>
<path d="M18.9565 32.8228L12.9315 39.5879C12.9144 39.6065 12.8935 39.6214 12.8703 39.6315C12.8471 39.6417 12.822 39.6469 12.7967 39.6469C12.7714 39.6469 12.7463 39.6417 12.7231 39.6315C12.6999 39.6214 12.6791 39.6065 12.6619 39.5879L9.58626 36.4148C9.56019 36.3822 9.54598 36.3417 9.54598 36.3C9.54598 36.2583 9.56019 36.2178 9.58626 36.1853L10.6019 34.8827C10.6189 34.859 10.6413 34.8397 10.6672 34.8264C10.6932 34.8131 10.7219 34.8061 10.7511 34.8061C10.7802 34.8061 10.809 34.8131 10.8349 34.8264C10.8609 34.8397 10.8833 34.859 10.9003 34.8827L12.6217 36.7877C12.6389 36.8083 12.6604 36.8248 12.6847 36.8361C12.709 36.8474 12.7355 36.8532 12.7623 36.8532C12.7891 36.8532 12.8155 36.8474 12.8398 36.8361C12.8641 36.8248 12.8856 36.8083 12.9029 36.7877L17.6999 30.2119C17.7132 30.1925 17.7211 30.1699 17.7227 30.1463C17.7244 30.1228 17.7197 30.0993 17.7091 30.0782C17.6986 30.0571 17.6826 30.0392 17.6628 30.0264C17.643 30.0136 17.6201 30.0064 17.5966 30.0054H0.703754C0.665708 30.0054 0.629221 30.0205 0.602319 30.0474C0.575416 30.0743 0.560303 30.1108 0.560303 30.1488V49.3713C0.560303 49.4093 0.575416 49.4458 0.602319 49.4727C0.629221 49.4996 0.665708 49.5148 0.703754 49.5148H19.0655C19.1036 49.5148 19.1401 49.4996 19.167 49.4727C19.1939 49.4458 19.209 49.4093 19.209 49.3713V32.9088C19.2204 32.8753 19.218 32.8387 19.2024 32.807C19.1868 32.7752 19.1593 32.751 19.1258 32.7396C19.0923 32.7281 19.0557 32.7305 19.0239 32.7461C18.9922 32.7617 18.9679 32.7893 18.9565 32.8228ZM5.75898 47.3745C4.55358 47.4352 3.37199 47.0235 2.46534 46.2268C2.43669 46.1944 2.42089 46.1525 2.42089 46.1092C2.42089 46.0659 2.43669 46.0241 2.46534 45.9916L3.18259 44.9874C3.19444 44.9669 3.21028 44.9489 3.22918 44.9345C3.24808 44.9202 3.26967 44.9097 3.29266 44.9039C3.31565 44.898 3.33959 44.8968 3.36306 44.9003C3.38653 44.9038 3.40906 44.912 3.42933 44.9243C4.08456 45.5318 4.94582 45.8681 5.83931 45.8653C6.78035 45.8653 7.2394 45.4293 7.2394 44.9702C7.2394 43.5472 2.60305 44.5226 2.60305 41.493C2.60305 40.156 3.75066 39.0428 5.65569 39.0428C6.74896 39.0039 7.81924 39.3627 8.66817 40.0527C8.70008 40.0858 8.71791 40.1301 8.71791 40.1761C8.71791 40.2221 8.70008 40.2663 8.66817 40.2994L7.96239 41.2806C7.94782 41.3002 7.92939 41.3165 7.90825 41.3286C7.88712 41.3407 7.86372 41.3483 7.83951 41.351C7.8153 41.3537 7.7908 41.3514 7.76752 41.3442C7.74424 41.337 7.72268 41.3252 7.70418 41.3093C7.07821 40.8118 6.30033 40.5444 5.50077 40.5519C4.7663 40.5519 4.35316 40.879 4.35316 41.361C4.35316 42.6406 8.97803 41.7856 8.97803 44.8038C8.97803 46.2613 7.92796 47.3745 5.75324 47.3745H5.75898ZM15.8694 44.58C15.8702 44.6013 15.8666 44.6226 15.8588 44.6425C15.8511 44.6623 15.8392 44.6803 15.8242 44.6954C15.8091 44.7105 15.791 44.7223 15.7712 44.7301C15.7513 44.7379 15.7301 44.7415 15.7088 44.7407H11.4626C11.4558 44.7414 11.4492 44.7435 11.4432 44.7467C11.4372 44.75 11.4319 44.7545 11.4277 44.7598C11.4234 44.7651 11.4202 44.7713 11.4183 44.7778C11.4165 44.7844 11.4159 44.7913 11.4167 44.7981C11.4856 45.1949 11.7004 45.5515 12.019 45.7979C12.3375 46.0442 12.7368 46.1625 13.1381 46.1293C13.6648 46.1182 14.1762 45.9503 14.6071 45.6473C14.6239 45.6332 14.6435 45.6228 14.6646 45.6169C14.6857 45.611 14.7079 45.6096 14.7296 45.6128C14.7513 45.6161 14.772 45.6239 14.7905 45.6358C14.8089 45.6477 14.8246 45.6633 14.8366 45.6817L15.353 46.4334C15.3745 46.4668 15.3829 46.507 15.3766 46.5462C15.3702 46.5854 15.3495 46.6209 15.3186 46.6457C14.6368 47.1433 13.8097 47.4015 12.966 47.3802C12.5445 47.4037 12.1227 47.3389 11.7278 47.1899C11.3328 47.0409 10.9733 46.811 10.6724 46.5149C10.3715 46.2188 10.1358 45.8632 9.98035 45.4707C9.82492 45.0782 9.75323 44.6576 9.76988 44.2357C9.75818 43.824 9.83007 43.4143 9.98121 43.0311C10.1323 42.648 10.3596 42.2995 10.6492 42.0067C10.9388 41.7138 11.2848 41.4828 11.6662 41.3274C12.0477 41.172 12.4566 41.0956 12.8684 41.1028C14.653 41.1028 15.8637 42.4397 15.8637 44.3964L15.8694 44.58Z" fill="#01A71C"/>
</g>
</g>
<defs>
<clipPath id="clip0_1507_29101">
<rect width="80.362" height="80.362" fill="white" transform="translate(0.560303)"/>
</clipPath>
<clipPath id="clip1_1507_29101">
<rect width="80" height="19.52" fill="white" transform="translate(0.560303 30)"/>
</clipPath>
</defs>
</svg>
