<svg width="81" height="81" viewBox="0 0 81 81" fill="none" xmlns="http://www.w3.org/2000/svg">
<g clip-path="url(#clip0_1476_11292)">
<path fill-rule="evenodd" clip-rule="evenodd" d="M19.4358 30.7676L40.1396 71.2911L5.34021 30.7676H19.4358Z" fill="#EA6C00"/>
<path fill-rule="evenodd" clip-rule="evenodd" d="M60.8494 30.7676L40.1456 71.2911L74.9449 30.7676H60.8494Z" fill="#EA6C00"/>
<path fill-rule="evenodd" clip-rule="evenodd" d="M19.4351 30.7676H60.8427L40.1389 71.2911L19.4351 30.7676Z" fill="#FDAD00"/>
<path fill-rule="evenodd" clip-rule="evenodd" d="M40.1389 8.30957L20.5248 10.3829L19.4351 30.7677L40.1389 8.30957Z" fill="#FDD231"/>
<path fill-rule="evenodd" clip-rule="evenodd" d="M40.1388 8.30957L59.7529 10.3829L60.8427 30.7677L40.1388 8.30957Z" fill="#FDD231"/>
<path fill-rule="evenodd" clip-rule="evenodd" d="M74.9449 30.7676L59.7597 10.3828L60.8494 30.7676H74.9449Z" fill="#FDAD00"/>
<path fill-rule="evenodd" clip-rule="evenodd" d="M5.34021 30.7676L20.5255 10.3828L19.4358 30.7676H5.34021Z" fill="#FDAD00"/>
<path fill-rule="evenodd" clip-rule="evenodd" d="M40.1389 8.30957L19.4351 30.7677H60.8427L40.1389 8.30957Z" fill="#FEEEB7"/>
</g>
<defs>
<clipPath id="clip0_1476_11292">
<rect width="70" height="63.364" fill="white" transform="translate(5.21265 8)"/>
</clipPath>
</defs>
</svg>
