<svg width="82" height="81" viewBox="0 0 82 81" fill="none" xmlns="http://www.w3.org/2000/svg">
<path d="M23.902 5C21.7414 5.00461 19.6264 6.21082 18.5389 8.05071L1.62205 36.9493C0.551113 38.7941 0.551113 41.2056 1.62205 43.0504L18.5389 71.9493C19.6264 73.7892 21.7414 74.9957 23.902 75H57.7358C59.8964 74.9954 62.0114 73.7892 63.0989 71.9493L80.0158 43.0504C81.0867 41.2056 81.0864 38.7941 80.0158 36.9493L63.0989 8.05071C62.0114 6.21051 59.8964 5.0043 57.7358 5L23.902 5ZM24.2092 21.9063C24.2558 21.9017 24.3045 21.9017 24.3511 21.9063H30.1867C30.3164 21.9104 30.4429 21.9467 30.5545 22.0118C30.666 22.077 30.759 22.1688 30.8248 22.2787L40.7245 39.6272C40.7745 39.7133 40.8064 39.8085 40.8183 39.9069C40.8308 39.8085 40.8627 39.7133 40.9127 39.6272L50.7886 22.2787C50.8566 22.1656 50.9534 22.0719 51.0693 22.0066C51.1853 21.9413 51.3165 21.9067 51.4501 21.9063H57.2861C57.8027 21.9106 58.1898 22.5507 57.9476 23.0006L48.2842 40L57.9476 56.976C58.2126 57.4284 57.8164 58.098 57.2861 58.0937H51.4501C51.3142 58.0909 51.1814 58.0528 51.0652 57.9833C50.9491 57.9138 50.8536 57.8153 50.7886 57.6979L40.9127 40.3491C40.8627 40.2634 40.8308 40.1678 40.8186 40.0698C40.8064 40.1682 40.7745 40.2633 40.7245 40.3494L30.8245 57.6979C30.7616 57.812 30.6699 57.9083 30.5583 57.9776C30.4467 58.047 30.3189 58.0869 30.187 58.0937H24.3508C23.8205 58.0983 23.4242 57.4284 23.6892 56.976L33.3527 40L23.6892 23.0006C23.4577 22.59 23.7405 21.9939 24.2092 21.9063Z" fill="#3498DB"/>
</svg>
