<svg width="81" height="117" viewBox="0 0 81 117" fill="none" xmlns="http://www.w3.org/2000/svg">
<g clip-path="url(#clip0_1476_11327)">
<path d="M17.12 50.5337L13.563 51.8333L13.3737 62.4142L25.6864 57.9163C21.4597 56.5008 18.3773 54.006 17.12 50.5337Z" fill="#FDBD39"/>
<path d="M18.9819 39.3428L6.63806 43.852L13.5629 51.8364L17.12 50.5367C15.8656 47.0757 16.6397 43.1683 18.9819 39.3428Z" fill="#F69833"/>
<path d="M39.7508 24.0717C24.0335 29.8128 13.8991 41.6622 17.1199 50.5338L74.0362 29.7422C70.8153 20.8706 55.4681 18.3307 39.7508 24.0717Z" fill="#FECF33"/>
<path d="M51.4024 56.2071C67.1197 50.4661 77.2711 38.6703 74.0333 29.7451L17.1171 50.5339C20.3549 59.4619 35.6851 61.9482 51.4024 56.2071Z" fill="#EE6723"/>
<path d="M74.0334 29.7422L17.12 50.5338C18.2332 53.6077 22.4853 55.1221 28.4467 55.1221C34.2613 55.1221 41.7032 53.684 49.4615 50.8502C65.1788 45.1091 76.2343 35.811 74.0334 29.7422Z" fill="#F69833"/>
<path d="M62.7067 25.1567C56.895 25.1567 49.4502 26.5948 41.6919 29.4286C25.9746 35.1697 14.9191 44.465 17.12 50.5338L74.0362 29.7422C72.9202 26.6683 68.6709 25.1567 62.7067 25.1567Z" fill="#FDBD39"/>
<path d="M59.5621 62.9765C57.8867 62.9765 55.4174 61.465 52.2191 58.4814C48.436 54.9526 44.1047 49.7823 40.0165 43.9254C35.9311 38.0684 32.5746 32.2144 30.5629 27.4367C28.3733 22.2325 28.0597 19.0342 29.6334 17.9267C29.9979 17.6781 30.4302 17.5509 30.8709 17.5622C32.1508 17.5622 34.6484 18.5144 39.2621 23.0575L39.3638 23.1564L39.3497 23.2976C39.3186 23.6254 39.2904 23.9531 39.265 24.278L39.2141 24.9194L38.762 24.4645C33.7895 19.4552 31.6027 18.9155 30.8907 18.9155C30.6873 18.9155 30.5262 18.9551 30.4104 19.037C29.7267 19.5173 29.6814 21.868 31.8061 26.9112C33.781 31.6013 37.0895 37.3678 41.1212 43.1484C45.1558 48.9318 49.422 54.0231 53.1401 57.4898C57.1465 61.2277 58.9518 61.6317 59.5423 61.6317C59.7458 61.6317 59.9096 61.5893 60.0339 61.5017C60.7544 60.996 60.7544 58.4786 58.3868 53.0483L58.2766 52.7997L58.5139 52.6697C58.7512 52.5398 58.9829 52.4126 59.1976 52.2883L59.483 52.1273L59.6158 52.4268C61.294 56.2749 62.8649 61.1655 60.8053 62.6121C60.4408 62.8607 60.0057 62.9878 59.5621 62.9765Z" fill="#EE6723"/>
<path d="M51.784 56.043L51.7614 56.3369C51.363 61.2529 50.3176 67.1635 47.5884 67.4037C47.5319 67.4093 47.4754 67.4093 47.4217 67.4093C45.5683 67.4093 43.8137 64.7535 42.2118 59.5182C40.6918 54.5626 39.5136 47.9117 38.8948 40.7891C38.2733 33.6664 38.2817 26.9111 38.9203 21.7662C39.6153 16.1607 40.9376 13.2337 42.8531 13.0641C42.9096 13.0585 42.969 13.0557 43.0255 13.0557C44.3703 13.0557 46.3961 14.5785 48.4699 21.6701L47.1165 21.93C46.4243 19.5624 45.67 17.6355 44.9213 16.3076C44.2291 15.0842 43.5538 14.409 43.0255 14.409C43.0085 14.409 42.9916 14.409 42.9718 14.4118C42.1411 14.4853 40.9319 16.4969 40.2595 21.9328C39.6323 26.9845 39.6238 33.641 40.2369 40.6704C40.85 47.7027 42.0084 54.2546 43.5001 59.1198C44.1669 61.2981 44.8987 63.0951 45.6191 64.3128C46.2803 65.4372 46.9216 66.056 47.4217 66.056C47.4386 66.056 47.4556 66.056 47.4725 66.0532C48.2665 65.9854 49.7639 63.889 50.3939 56.5177L51.784 56.043Z" fill="#EE6723"/>
</g>
<path d="M10.8738 110.117V108.945L18.9603 96.382H11.6004V94.7413H21.3979V95.8898L13.2881 108.453H21.4682V110.117H10.8738ZM28.49 110.398C27.4743 110.398 26.5524 110.164 25.7242 109.695C24.8961 109.211 24.2398 108.523 23.7554 107.633C23.271 106.742 23.0288 105.679 23.0288 104.445C23.0288 103.195 23.271 102.125 23.7554 101.234C24.2554 100.343 24.8961 99.6556 25.6773 99.1712C26.4586 98.6868 27.279 98.4446 28.1384 98.4446C29.5916 98.4446 30.7089 98.929 31.4902 99.8978C32.2871 100.867 32.6856 102.164 32.6856 103.789C32.6856 103.992 32.6778 104.195 32.6621 104.398C32.6621 104.586 32.6465 104.75 32.6153 104.89H24.9273C25.0054 106.094 25.3805 107.055 26.0524 107.773C26.7399 108.492 27.6306 108.851 28.7244 108.851C29.2713 108.851 29.7713 108.773 30.2245 108.617C30.6933 108.445 31.1386 108.226 31.5605 107.961L32.2402 109.227C31.7558 109.539 31.2011 109.812 30.5761 110.047C29.9667 110.281 29.2713 110.398 28.49 110.398ZM24.9039 103.507H30.998C30.998 102.351 30.748 101.476 30.2479 100.882C29.7635 100.273 29.076 99.9681 28.1853 99.9681C27.3884 99.9681 26.6696 100.281 26.0289 100.906C25.4039 101.515 25.0289 102.382 24.9039 103.507ZM35.5005 114.922V98.7259H37.0943L37.2584 100.038H37.3287C37.8443 99.6009 38.4069 99.2259 39.0163 98.9134C39.6413 98.6009 40.2898 98.4446 40.9617 98.4446C42.4306 98.4446 43.5478 98.9759 44.3135 100.038C45.0792 101.085 45.462 102.492 45.462 104.257C45.462 105.539 45.2276 106.64 44.7588 107.562C44.3057 108.484 43.7041 109.187 42.954 109.672C42.2196 110.156 41.4149 110.398 40.5398 110.398C40.0085 110.398 39.4773 110.281 38.946 110.047C38.4303 109.812 37.9068 109.492 37.3756 109.086L37.4224 111.078V114.922H35.5005ZM40.2117 108.781C41.1492 108.781 41.9227 108.383 42.5321 107.586C43.1572 106.773 43.4697 105.664 43.4697 104.257C43.4697 103.007 43.2353 102 42.7665 101.234C42.3134 100.453 41.5477 100.062 40.4695 100.062C39.9851 100.062 39.4929 100.195 38.9929 100.46C38.5084 100.726 37.985 101.109 37.4224 101.609V107.586C37.9381 108.023 38.4381 108.336 38.9225 108.523C39.4069 108.695 39.8367 108.781 40.2117 108.781ZM50.5409 110.398C49.8221 110.398 49.2986 110.18 48.9705 109.742C48.658 109.289 48.5017 108.648 48.5017 107.82V93.4287H50.4237V107.961C50.4237 108.258 50.4784 108.476 50.5878 108.617C50.6972 108.742 50.8222 108.805 50.9628 108.805C51.0253 108.805 51.08 108.805 51.1269 108.805C51.1894 108.789 51.2753 108.773 51.3847 108.758L51.6425 110.211C51.5175 110.273 51.3691 110.32 51.1972 110.352C51.0253 110.383 50.8066 110.398 50.5409 110.398ZM54.4759 110.117V98.7259H56.3979V110.117H54.4759ZM55.4603 96.382C55.0853 96.382 54.7728 96.2726 54.5228 96.0538C54.2884 95.8194 54.1712 95.5069 54.1712 95.1163C54.1712 94.7413 54.2884 94.4366 54.5228 94.2022C54.7728 93.9678 55.0853 93.8506 55.4603 93.8506C55.8354 93.8506 56.1401 93.9678 56.3745 94.2022C56.6245 94.4366 56.7495 94.7413 56.7495 95.1163C56.7495 95.5069 56.6245 95.8194 56.3745 96.0538C56.1401 96.2726 55.8354 96.382 55.4603 96.382ZM60.2441 110.117V98.7259H61.8379L62.002 100.367H62.0723C62.6192 99.8197 63.1974 99.3665 63.8068 99.0071C64.4162 98.6321 65.1116 98.4446 65.8929 98.4446C67.096 98.4446 67.9711 98.8274 68.518 99.5931C69.0805 100.343 69.3618 101.445 69.3618 102.898V110.117H67.4398V103.156C67.4398 102.093 67.2679 101.32 66.9242 100.835C66.5804 100.351 66.0335 100.109 65.2834 100.109C64.7053 100.109 64.1818 100.257 63.713 100.554C63.2599 100.851 62.7442 101.289 62.1661 101.867V110.117H60.2441Z" fill="#40495E"/>
<defs>
<clipPath id="clip0_1476_11327">
<rect width="68" height="54.3537" fill="white" transform="translate(6.63806 13.0586)"/>
</clipPath>
</defs>
</svg>
