<svg width="48" height="48" viewBox="0 0 48 48" fill="none" xmlns="http://www.w3.org/2000/svg">
<rect width="48.0004" height="48.0004" rx="4.86264" fill="#3FBA00" fill-opacity="0.2"/>
<path d="M34.6792 35.2211C31.8181 35.2211 28.9811 34.5222 26.168 33.1242C23.355 31.7263 20.8206 29.9072 18.5649 27.6669C16.3092 25.4266 14.483 22.8928 13.0863 20.0656C11.6896 17.2383 10.9912 14.4055 10.9912 11.567C10.9912 10.9137 11.2165 10.3617 11.667 9.91118C12.1176 9.46063 12.6695 9.23535 13.3228 9.23535H18.0537C18.7433 9.23535 19.3099 9.41557 19.7536 9.77602C20.1973 10.1365 20.4979 10.6659 20.6556 11.3642L21.568 15.0813C21.6806 15.6896 21.6718 16.2147 21.5414 16.6568C21.4111 17.099 21.1609 17.4749 20.7908 17.7846L17.2765 20.9949C18.4028 22.7745 19.6201 24.3124 20.9282 25.6084C22.2363 26.9044 23.6999 28.0023 25.3189 28.9021L28.698 25.4891C29.1035 25.0836 29.5372 24.8077 29.999 24.6612C30.4608 24.5148 30.9733 24.5092 31.5365 24.6444L34.8481 25.4554C35.5535 25.644 36.0903 25.9615 36.4585 26.4079C36.8267 26.8542 37.0108 27.4265 37.0108 28.1249V32.8557C37.0108 33.5316 36.7855 34.0948 36.335 34.5453C35.8844 34.9959 35.3325 35.2211 34.6792 35.2211ZM15.6883 18.1901L18.3916 15.6558L17.6482 12.4118H14.2352C14.1902 13.1785 14.2854 14.0284 14.521 14.9616C14.7566 15.8948 15.1456 16.971 15.6883 18.1901ZM28.225 30.5241C29.036 30.9296 29.9314 31.2563 30.9114 31.5041C31.8914 31.7519 32.8544 31.9096 33.8006 31.9771V28.4966L30.8269 27.8208L28.225 30.5241Z" fill="#3FBA00"/>
</svg>
