<svg width="48" height="48" viewBox="0 0 48 48" fill="none" xmlns="http://www.w3.org/2000/svg">
<rect width="48.0004" height="48.0004" rx="4.86264" fill="#3FBA00" fill-opacity="0.2"/>
<path d="M12.8141 35.9365C11.9344 35.9365 11.1851 35.627 10.5661 35.008C9.94717 34.3891 9.6377 33.6398 9.6377 32.76V15.7966C9.6377 14.9076 9.94717 14.1503 10.5661 13.5248C11.1851 12.8992 11.9344 12.5864 12.8141 12.5864H35.1842C36.0732 12.5864 36.8305 12.8992 37.456 13.5248C38.0816 14.1503 38.3944 14.9076 38.3944 15.7966V32.76C38.3944 33.6398 38.0816 34.3891 37.456 35.008C36.8305 35.627 36.0732 35.9365 35.1842 35.9365H12.8141ZM23.9992 25.9679L12.8141 18.4324V32.76H35.1842V18.4324L23.9992 25.9679ZM23.9992 23.1632L35.049 15.7966H12.9831L23.9992 23.1632ZM12.8141 18.4324V15.7966V32.76V18.4324Z" fill="#3FBA00"/>
</svg>
