<svg width="22" height="23" viewBox="0 0 22 23" fill="none" xmlns="http://www.w3.org/2000/svg">
<path fill-rule="evenodd" clip-rule="evenodd" d="M0 11.5C0 5.42487 4.92487 0.5 11 0.5C17.0751 0.5 22 5.42487 22 11.5C22 17.5751 17.0751 22.5 11 22.5C4.92487 22.5 0 17.5751 0 11.5Z" fill="#3FBA00"/>
<path fill-rule="evenodd" clip-rule="evenodd" d="M16.3107 7.54297C16.7012 7.93349 16.7012 8.56666 16.3107 8.95718L10.1036 15.4572C9.71307 15.8477 9.0799 15.8477 8.68938 15.4572L5.68938 12.4572C5.29885 12.0667 5.29885 11.4335 5.68938 11.043C6.0799 10.6524 6.71307 10.6524 7.10359 11.043L9.39648 13.3359L14.8965 7.54297C15.287 7.15244 15.9202 7.15244 16.3107 7.54297Z" fill="white"/>
</svg>
