<svg width="48" height="48" viewBox="0 0 48 48" fill="none" xmlns="http://www.w3.org/2000/svg">
<rect width="48.0004" height="48.0004" rx="4.86264" fill="#3FBA00" fill-opacity="0.2"/>
<path d="M24.0096 24.1782C24.7472 24.1782 25.3695 23.9275 25.8763 23.4261C26.3832 22.9247 26.6366 22.3052 26.6366 21.5675C26.6366 20.8299 26.3836 20.2076 25.8775 19.7008C25.3715 19.1939 24.7463 18.9404 24.0021 18.9404C23.2579 18.9404 22.638 19.1935 22.1424 19.6996C21.6467 20.2056 21.3989 20.8308 21.3989 21.575C21.3989 22.3192 21.6496 22.9391 22.151 23.4347C22.6524 23.9303 23.2719 24.1782 24.0096 24.1782ZM24.0009 34.4508C26.8845 31.8601 29.019 29.5623 30.4044 27.5573C31.7899 25.5523 32.4826 23.615 32.4826 21.7452C32.4826 19.2104 31.6644 17.135 30.0279 15.5188C28.3914 13.9026 26.3841 13.0945 24.006 13.0945C21.6278 13.0945 19.6188 13.9026 17.979 15.5188C16.3391 17.135 15.5192 19.2104 15.5192 21.7452C15.5192 23.615 16.2288 25.5467 17.6481 27.5404C19.0673 29.5341 21.1849 31.8376 24.0009 34.4508ZM24.0009 38.641C20.1036 35.397 17.1862 32.4289 15.2489 29.7369C13.3115 27.0448 12.3428 24.3809 12.3428 21.7452C12.3428 18.147 13.5147 15.2707 15.8584 13.1161C18.2022 10.9616 20.9163 9.88428 24.0009 9.88428C27.0758 9.88428 29.7932 10.9616 32.153 13.1161C34.5129 15.2707 35.6928 18.147 35.6928 21.7452C35.6928 24.3809 34.7185 27.0448 32.7698 29.7369C30.8212 32.4289 27.8982 35.397 24.0009 38.641Z" fill="#3FBA00"/>
</svg>
