<svg width="63" height="62" viewBox="0 0 63 62" fill="none" xmlns="http://www.w3.org/2000/svg">
<path opacity="0.3" d="M10.9743 39.262C22.0594 20.0679 35.578 8.42995 54.5655 5.20337C54.9391 5.13671 55.3234 5.16131 55.6855 5.27508C56.0476 5.38885 56.3768 5.58842 56.6452 5.8568C56.9136 6.12519 57.1132 6.45445 57.2269 6.81655C57.3407 7.17865 57.3653 7.56288 57.2986 7.93654C54.0721 26.924 42.4341 40.4426 23.24 51.5277L10.9743 39.262ZM10.3672 44.7878L7.30339 52.8245C7.1769 53.1562 7.14906 53.5173 7.22322 53.8644C7.29738 54.2115 7.47038 54.5297 7.72135 54.7807C7.97232 55.0316 8.29054 55.2046 8.63763 55.2788C8.98473 55.353 9.34585 55.3251 9.67747 55.1986L17.7194 52.1322L10.3672 44.7878ZM43.1265 15.4954C42.3601 15.4954 41.6109 15.7226 40.9736 16.1484C40.3364 16.5742 39.8397 17.1794 39.5464 17.8875C39.2532 18.5955 39.1764 19.3747 39.3259 20.1263C39.4755 20.878 39.8445 21.5685 40.3864 22.1104C40.9284 22.6523 41.6188 23.0214 42.3705 23.1709C43.1222 23.3204 43.9013 23.2437 44.6094 22.9504C45.3174 22.6571 45.9226 22.1604 46.3484 21.5232C46.7742 20.886 47.0015 20.1368 47.0015 19.3704C47.0015 18.3427 46.5932 17.357 45.8665 16.6303C45.1398 15.9036 44.1542 15.4954 43.1265 15.4954Z" fill="#3FBA00"/>
<path d="M10.9738 39.2616L6.30567 34.5935C6.06754 34.3554 5.88779 34.0653 5.78054 33.7461C5.67328 33.4269 5.64142 33.0872 5.68747 32.7536C5.73352 32.42 5.85622 32.1016 6.04594 31.8233C6.23567 31.5451 6.48726 31.3146 6.781 31.1499L24.1462 21.4133C19.0319 26.7933 14.6071 32.7887 10.9738 39.2616ZM23.2342 51.5221L27.9023 56.1902C28.1404 56.4283 28.4305 56.608 28.7497 56.7153C29.0689 56.8226 29.4087 56.8544 29.7423 56.8084C30.0759 56.7623 30.3943 56.6396 30.6725 56.4499C30.9507 56.2602 31.1812 56.0086 31.3459 55.7148L41.0825 38.3471C35.7033 43.4629 29.7077 47.8886 23.2342 51.5221ZM18.6876 46.9728L33.007 32.6534C33.407 32.229 33.6259 31.6654 33.6173 31.0823C33.6087 30.4991 33.3732 29.9423 32.9608 29.5299C32.5484 29.1175 31.9915 28.882 31.4084 28.8734C30.8252 28.8647 30.2617 29.0836 29.8372 29.4837L15.5178 43.8031L18.6876 46.9728Z" fill="#3FBA00"/>
</svg>
