<svg width="81" height="81" viewBox="0 0 81 81" fill="none" xmlns="http://www.w3.org/2000/svg">
<circle cx="40.8187" cy="40.181" r="40.181" fill="#34A9EB"/>
<g clip-path="url(#clip0_294_8393)">
<path d="M30.6421 13.5742H36.4747V15.9644H33.081V18.3545H36.4747V20.7446H30.6421V13.5742ZM37.6398 13.5742H43.4747V15.6539H40.081V16.0686H43.4747V20.8488H37.6398V18.6671H41.0335V18.2503H37.6398V13.5742ZM44.6421 13.5742H50.4724V15.6539H47.0787V16.0686H50.4724V20.8488H44.6421V18.6671H48.0358V18.2503H44.6421V13.5742Z" fill="white"/>
<path fill-rule="evenodd" clip-rule="evenodd" d="M40.7987 66.7864L25.0883 62.5116L20.457 24.0322H61.181L56.5521 62.5072L40.7987 66.7864ZM29.6131 41.4505L30.0453 46.1687H46.7353L46.1765 52.2882L40.8054 53.7116H40.8009L35.4389 52.2926L35.095 48.53H30.2602L30.9344 55.9399L40.7987 58.6227L50.6788 55.9399L51.8824 42.7165L52 41.4505L52.8688 31.8966H28.7466L29.1855 36.617H47.5928L47.1539 41.4505H29.6131Z" fill="white"/>
</g>
<defs>
<clipPath id="clip0_294_8393">
<rect width="54.2986" height="53.2127" fill="white" transform="translate(13.6689 13.5742)"/>
</clipPath>
</defs>
</svg>
