<svg width="81" height="81" viewBox="0 0 81 81" fill="none" xmlns="http://www.w3.org/2000/svg">
<g clip-path="url(#clip0_294_8363)">
<path d="M80.6813 40.181C80.6813 17.9896 62.6917 0 40.5003 0C18.309 0 0.319336 17.9896 0.319336 40.181C0.319336 62.3723 18.309 80.362 40.5003 80.362C62.6917 80.362 80.6813 62.3723 80.6813 40.181Z" fill="#FFF1CB"/>
<g clip-path="url(#clip1_294_8363)">
<path d="M21.2002 57.2346L21.5264 56.7788L36.9148 27.5187L36.9474 27.209L30.1646 14.4387C30.0404 14.2052 29.8461 14.0167 29.6092 13.9C29.3723 13.7832 29.1048 13.7441 28.8444 13.7881C28.5841 13.8321 28.3442 13.9571 28.1586 14.1453C27.973 14.3335 27.8512 14.5754 27.8103 14.8368L21.2002 57.2346Z" fill="#FFC24A"/>
<path d="M21.3916 56.8885L21.6372 56.4077L36.8663 27.4515L30.1008 14.6312C29.9892 14.4083 29.8086 14.2275 29.586 14.1161C29.3633 14.0047 29.1106 13.9686 28.8658 14.0132C28.621 14.0579 28.3972 14.1808 28.2279 14.3636C28.0586 14.5465 27.953 14.7793 27.9269 15.0274L21.3916 56.8885Z" fill="#FFA712"/>
<path d="M41.892 36.8675L46.9421 31.6748L41.8901 22.0183C41.7789 21.8104 41.6135 21.6367 41.4116 21.5156C41.2097 21.3945 40.9789 21.3306 40.7436 21.3306C40.5083 21.3306 40.2775 21.3945 40.0756 21.5156C39.8737 21.6367 39.7083 21.8104 39.5971 22.0183L36.8975 27.1764V27.6168L41.892 36.8675Z" fill="#F4BD62"/>
<path d="M41.8012 36.6556L46.7113 31.6167L41.8012 22.2314C41.7209 22.0282 41.5836 21.8527 41.4059 21.726C41.2283 21.5993 41.0179 21.5268 40.8001 21.5172C40.5822 21.5076 40.3663 21.5614 40.1783 21.6721C39.9903 21.7828 39.8382 21.9456 39.7405 22.141L37.0274 27.3895L36.9468 27.6568L41.8012 36.6556Z" fill="#FFA50E"/>
<path d="M21.2041 57.236L21.3518 57.086L21.8872 56.8686L41.5736 37.2093L41.823 36.5285L36.9129 27.147L21.2041 57.236Z" fill="#F6820C"/>
<path d="M42.5214 67.1507L60.3427 57.1902L55.2504 25.7819C55.2139 25.5605 55.1172 25.3535 54.971 25.1835C54.8248 25.0135 54.6347 24.8873 54.4216 24.8185C54.2084 24.7497 53.9805 24.7412 53.7629 24.7937C53.5452 24.8463 53.3462 24.958 53.1877 25.1165L21.2002 57.2345L38.916 67.1488C39.4668 67.4568 40.087 67.6185 40.7177 67.6185C41.3484 67.6185 41.9687 67.4568 42.5194 67.1488" fill="#FDE068"/>
<path d="M60.1792 57.1075L55.129 25.9357C55.1201 25.724 55.0487 25.5196 54.9239 25.3485C54.799 25.1774 54.6264 25.0473 54.4277 24.9746C54.2291 24.9019 54.0134 24.89 53.8079 24.9402C53.6025 24.9904 53.4165 25.1006 53.2736 25.2568L21.3916 57.1748L38.9117 66.9833C39.4581 67.2889 40.0734 67.4492 40.699 67.4492C41.3247 67.4492 41.94 67.2889 42.4864 66.9833L60.1792 57.1075Z" fill="#FCCA3F"/>
<path d="M42.5214 66.8501C41.9706 67.1581 41.3504 67.3198 40.7197 67.3198C40.0889 67.3198 39.4687 67.1581 38.9179 66.8501L21.346 57.0839L21.2002 57.2339L38.916 67.1482C39.4668 67.4562 40.087 67.6179 40.7177 67.6179C41.3484 67.6179 41.9687 67.4562 42.5194 67.1482L60.3427 57.1897L60.2986 56.9204L42.5214 66.8501Z" fill="#EEAB37"/>
</g>
</g>
<defs>
<clipPath id="clip0_294_8363">
<rect width="80.362" height="80.362" fill="white" transform="translate(0.319336)"/>
</clipPath>
<clipPath id="clip1_294_8363">
<rect width="39.638" height="54.4051" fill="white" transform="translate(20.9521 13.0312)"/>
</clipPath>
</defs>
</svg>
