<svg width="82" height="81" viewBox="0 0 82 81" fill="none" xmlns="http://www.w3.org/2000/svg">
<circle cx="41.0687" cy="40.181" r="40.181" fill="#F7DF1E"/>
<path d="M24.0452 57.8395L29.393 54.6029C30.4249 56.4322 31.3635 57.9801 33.6148 57.9801C35.7728 57.9801 37.1336 57.136 37.1336 53.8525V31.5226H43.7009V53.9453C43.7009 60.7473 39.7136 63.8436 33.8962 63.8436C28.6426 63.8436 25.593 61.1227 24.0449 57.8389M47.268 57.1357L52.6153 54.0397C54.0231 56.3386 55.8527 58.0273 59.0892 58.0273C61.8106 58.0273 63.5457 56.6667 63.5457 54.7902C63.5457 52.5386 61.7631 51.7409 58.7608 50.4278L57.1193 49.7235C52.3811 47.707 49.2382 45.1736 49.2382 39.8258C49.2382 34.9 52.9909 31.147 58.855 31.147C63.0301 31.147 66.0324 32.6015 68.1901 36.4012L63.0765 39.6852C61.9504 37.6681 60.7312 36.8707 58.8547 36.8707C56.9312 36.8707 55.7115 38.0904 55.7115 39.6852C55.7115 41.6554 56.9312 42.4533 59.7457 43.673L61.3875 44.3765C66.9701 46.7693 70.113 49.2084 70.113 54.6966C70.113 60.6078 65.4689 63.8444 59.2298 63.8444C53.1315 63.8444 49.1909 60.936 47.2677 57.136" fill="black"/>
</svg>
