<svg width="81" height="81" viewBox="0 0 81 81" fill="none" xmlns="http://www.w3.org/2000/svg">
<circle cx="40.7498" cy="40.181" r="40.181" fill="#F5F8FD"/>
<g clip-path="url(#clip0_294_8379)">
<path d="M70.6741 40.1742C70.6741 44.1389 65.7091 47.8962 58.0969 50.2262C59.8536 57.9848 59.0728 64.1575 55.6327 66.1338C54.8398 66.5973 53.9126 66.8169 52.9001 66.8169V64.0965C53.4613 64.0965 53.9126 63.9867 54.2908 63.7793C55.9499 62.8278 56.6696 59.2047 56.1085 54.5447C55.9743 53.398 55.7547 52.1903 55.4863 50.9582C53.0953 51.5437 50.4847 51.9951 47.7399 52.2879C46.0931 54.5447 44.3852 56.5941 42.6651 58.3874C46.642 62.0837 50.3749 64.1087 52.9123 64.1087V66.8291C49.5576 66.8291 45.1659 64.4381 40.7255 60.2904C36.285 64.4137 31.8934 66.7803 28.5387 66.7803V64.0599C31.0639 64.0599 34.809 62.0471 38.7858 58.3752C37.078 56.5819 35.3701 54.5447 33.7476 52.2879C30.9907 51.9951 28.3801 51.5437 25.9891 50.946C25.7085 52.1659 25.5011 53.3492 25.3547 54.4837C24.7814 59.1437 25.4889 62.7668 27.1358 63.7306C27.5017 63.9501 27.9775 64.0477 28.5387 64.0477V66.7681C27.5139 66.7681 26.5868 66.5485 25.7817 66.085C22.3538 64.1087 21.5852 57.9482 23.3541 50.214C15.7663 47.8718 10.8257 44.1267 10.8257 40.1742C10.8257 36.2096 15.7907 32.4523 23.4029 30.1222C21.6462 22.3637 22.427 16.191 25.8671 14.2147C26.66 13.7512 27.5871 13.5316 28.6119 13.5316C31.9666 13.5316 36.3582 15.9226 40.7987 20.0703C45.2391 15.947 49.6308 13.5804 52.9855 13.5804C54.0102 13.5804 54.9373 13.8 55.7425 14.2635C59.1704 16.2398 59.9389 22.4003 58.1701 30.1344C65.7335 32.4645 70.6741 36.2218 70.6741 40.1742ZM54.791 48.311C54.3396 46.7373 53.7784 45.1148 53.1441 43.4924C52.6439 44.4683 52.1194 45.4442 51.546 46.4201C50.9849 47.3961 50.3871 48.3476 49.7894 49.2747C51.5216 49.0185 53.1929 48.7014 54.791 48.311ZM49.2038 35.319C48.2523 33.6722 47.2764 32.1107 46.2638 30.659C44.4462 30.5004 42.6041 30.415 40.7499 30.415C38.9078 30.415 37.0658 30.5004 35.2603 30.6468C34.2478 32.0985 33.2597 33.6478 32.3082 35.2824C31.381 36.8805 30.5393 38.503 29.7708 40.1376C30.5271 41.7723 31.381 43.407 32.296 45.0051C33.2475 46.6519 34.2234 48.2134 35.2359 49.6651C37.0536 49.8237 38.8956 49.9091 40.7499 49.9091C42.5919 49.9091 44.434 49.8237 46.2394 49.6773C47.252 48.2256 48.2401 46.6763 49.1916 45.0417C50.1187 43.4436 50.9605 41.8211 51.729 40.1864C50.9605 38.5518 50.1187 36.9171 49.2038 35.319ZM53.1441 36.9049C53.8028 35.2702 54.364 33.6356 54.8276 32.0497C53.2295 31.6593 51.546 31.33 49.8016 31.0738C50.3993 32.0131 50.9971 32.9768 51.5582 33.9649C52.1194 34.9409 52.6439 35.929 53.1441 36.9049ZM40.7743 23.8885C39.6398 25.0597 38.5053 26.365 37.383 27.7922C38.4809 27.7434 39.6032 27.7068 40.7377 27.7068C41.8844 27.7068 43.0189 27.7312 44.129 27.7922C43.0311 26.365 41.8966 25.0597 40.7743 23.8885ZM31.6982 31.0738C29.966 31.33 28.2947 31.6471 26.6966 32.0375C27.148 33.6112 27.7091 35.2336 28.3435 36.8561C28.8436 35.8802 29.3682 34.9043 29.9416 33.9283C30.5149 32.9524 31.1005 32.0009 31.6982 31.0738ZM40.7133 56.4599C41.8478 55.2888 42.9823 53.9835 44.1046 52.5562C43.0067 52.605 41.8844 52.6416 40.7499 52.6416C39.6032 52.6416 38.4687 52.6172 37.3586 52.5562C38.4565 53.9835 39.591 55.2888 40.7133 56.4599ZM31.686 49.2747C31.0883 48.3354 30.4905 47.3717 29.9294 46.3835C29.3682 45.4076 28.8436 44.4317 28.3435 43.4558C27.6847 45.0904 27.1236 46.7251 26.66 48.311C28.2581 48.6892 29.9416 49.0185 31.686 49.2747ZM20.6459 34.0015C16.3274 35.8436 13.5339 38.259 13.5339 40.1742C13.5339 42.0895 16.3274 44.5171 20.6459 46.3469C21.695 46.7983 22.8417 47.2009 24.025 47.579C24.7204 45.188 25.6353 42.6994 26.7698 40.1498C25.6475 37.6124 24.7448 35.136 24.0616 32.7572C22.8539 33.1354 21.7072 33.5502 20.6459 34.0015ZM27.209 16.5691C25.5499 17.5207 24.8302 21.1438 25.3913 25.8038C25.5255 26.9505 25.7451 28.1582 26.0135 29.3903C28.4045 28.8048 31.0151 28.3534 33.7598 28.0606C35.4067 25.8038 37.1146 23.7544 38.8346 21.9611C34.8578 18.2648 31.1249 16.2398 28.5875 16.2398C28.0385 16.252 27.5749 16.3618 27.209 16.5691ZM56.1451 25.8648C56.7184 21.2048 56.0109 17.5817 54.364 16.6179C53.998 16.3984 53.5223 16.3008 52.9611 16.3008C50.4359 16.3008 46.6908 18.3136 42.7139 21.9855C44.4218 23.7788 46.1297 25.816 47.7521 28.0728C50.5091 28.3656 53.1197 28.817 55.5107 29.4147C55.7913 28.1826 56.0109 26.9993 56.1451 25.8648ZM60.8417 34.0015C59.7926 33.5502 58.6459 33.1476 57.4625 32.7694C56.7672 35.1604 55.8523 37.649 54.7178 40.1986C55.8401 42.736 56.7428 45.2124 57.426 47.5912C58.6337 47.2131 59.7804 46.7983 60.8539 46.3469C65.1723 44.5049 67.9659 42.0895 67.9659 40.1742C67.9537 38.259 65.1601 35.8314 60.8417 34.0015Z" fill="#3DC3E8"/>
<path d="M40.7375 34.5996C43.8165 34.5996 46.3125 37.0956 46.3125 40.1746C46.3125 43.2535 43.8165 45.7495 40.7375 45.7495C37.6586 45.7495 35.1626 43.2535 35.1626 40.1746C35.1626 37.0956 37.6586 34.5996 40.7375 34.5996Z" fill="#3DC3E8"/>
</g>
<defs>
<clipPath id="clip0_294_8379">
<rect width="60.2715" height="60.2715" fill="white" transform="translate(10.6138 10.0449)"/>
</clipPath>
</defs>
</svg>
