<svg width="18" height="18" viewBox="0 0 18 18" fill="none" xmlns="http://www.w3.org/2000/svg">
<path d="M4.99934 0.323082C2.34124 0.323082 0.178711 2.48562 0.178711 5.14371V12.8567C0.178711 15.5148 2.34124 17.6773 4.99934 17.6773H12.7123C15.3704 17.6773 17.533 15.5148 17.533 12.8567V5.14371C17.533 2.48562 15.3704 0.323082 12.7123 0.323082H4.99934ZM4.99934 2.25133H12.7123C14.307 2.25133 15.6047 3.54905 15.6047 5.14371V12.8567C15.6047 14.4514 14.307 15.7491 12.7123 15.7491H4.99934C3.40468 15.7491 2.10696 14.4514 2.10696 12.8567V5.14371C2.10696 3.54905 3.40468 2.25133 4.99934 2.25133ZM13.6765 3.21546C13.4208 3.21546 13.1755 3.31704 12.9947 3.49784C12.8139 3.67865 12.7123 3.92388 12.7123 4.17958C12.7123 4.43529 12.8139 4.68052 12.9947 4.86132C13.1755 5.04213 13.4208 5.14371 13.6765 5.14371C13.9322 5.14371 14.1774 5.04213 14.3582 4.86132C14.539 4.68052 14.6406 4.43529 14.6406 4.17958C14.6406 3.92388 14.539 3.67865 14.3582 3.49784C14.1774 3.31704 13.9322 3.21546 13.6765 3.21546ZM8.85584 4.17958C6.19775 4.17958 4.03521 6.34212 4.03521 9.00021C4.03521 11.6583 6.19775 13.8208 8.85584 13.8208C11.5139 13.8208 13.6765 11.6583 13.6765 9.00021C13.6765 6.34212 11.5139 4.17958 8.85584 4.17958ZM8.85584 6.10784C10.4505 6.10784 11.7482 7.40555 11.7482 9.00021C11.7482 10.5949 10.4505 11.8926 8.85584 11.8926C7.26118 11.8926 5.96346 10.5949 5.96346 9.00021C5.96346 7.40555 7.26118 6.10784 8.85584 6.10784Z" fill="white"/>
</svg>
