<svg width="21" height="22" viewBox="0 0 21 22" fill="none" xmlns="http://www.w3.org/2000/svg">
<rect y="0.5" width="21" height="21" rx="4" fill="#090E8E"/>
<path d="M4.42828 7.20656C4.7798 7.40451 9.66274 10.2475 9.84489 10.3499C10.027 10.4523 10.2124 10.5001 10.5 10.5001C10.7876 10.5001 10.973 10.4523 11.1551 10.3499C11.3373 10.2475 16.2202 7.40451 16.5717 7.20656C16.7027 7.13489 16.9232 7.0052 16.9712 6.85844C17.0543 6.59905 16.9648 6.50008 16.6101 6.50008H4.38993C4.03521 6.50008 3.94574 6.60247 4.02882 6.85844C4.07676 7.00861 4.29726 7.13489 4.42828 7.20656Z" fill="white"/>
<path d="M16.7404 7.55229C16.4841 7.67872 14.1842 9.25612 12.6623 10.2044L15.231 12.9889C15.2935 13.0491 15.3216 13.1214 15.2873 13.1575C15.2498 13.1906 15.1685 13.1725 15.1029 13.1153L12.0217 10.6108C11.5561 10.8997 11.228 11.0984 11.1717 11.1285C10.9311 11.2459 10.7624 11.261 10.5311 11.261C10.2999 11.261 10.1311 11.2459 9.8905 11.1285C9.83113 11.0984 9.50614 10.8997 9.04052 10.6108L5.95933 13.1153C5.89684 13.1755 5.81246 13.1936 5.77496 13.1575C5.73746 13.1244 5.76559 13.0491 5.82809 12.9889L8.39366 10.2044C6.87182 9.25612 4.54686 7.67872 4.29062 7.55229C4.01562 7.41682 4 7.57637 4 7.69979V13.8709C4 14.1509 4.42812 14.5001 4.73436 14.5001H16.3279C16.6341 14.5001 16.9997 14.1479 16.9997 13.8709V7.69979C16.9997 7.57336 17.0185 7.41682 16.7404 7.55229Z" fill="white"/>
</svg>
