<svg width="13" height="9" viewBox="0 0 13 9" fill="none" xmlns="http://www.w3.org/2000/svg">
<path d="M0.428277 1.20656C0.779798 1.40451 5.66274 4.24752 5.84489 4.34991C6.02704 4.4523 6.21239 4.50008 6.5 4.50008C6.78761 4.50008 6.97295 4.4523 7.15511 4.34991C7.33726 4.24752 12.2202 1.40451 12.5717 1.20656C12.7027 1.13489 12.9232 1.0052 12.9712 0.858438C13.0543 0.599052 12.9648 0.500076 12.6101 0.500076H0.38993C0.0352132 0.500076 -0.0542649 0.602465 0.0288218 0.858438C0.0767564 1.00861 0.297256 1.13489 0.428277 1.20656Z" fill="white"/>
<path d="M12.7404 1.55229C12.4841 1.67872 10.1842 3.25612 8.66232 4.20437L11.231 6.9889C11.2935 7.04911 11.3216 7.12136 11.2873 7.15748C11.2498 7.19059 11.1685 7.17253 11.1029 7.11533L8.02171 4.61076C7.5561 4.89975 7.22798 5.09843 7.17173 5.12853C6.93111 5.24593 6.76236 5.26099 6.53112 5.26099C6.29987 5.26099 6.13112 5.24593 5.8905 5.12853C5.83113 5.09843 5.50614 4.89975 5.04052 4.61076L1.95933 7.11533C1.89684 7.17554 1.81246 7.1936 1.77496 7.15748C1.73746 7.12437 1.76559 7.04911 1.82809 6.9889L4.39366 4.20437C2.87182 3.25612 0.546864 1.67872 0.290619 1.55229C0.0156247 1.41682 0 1.57637 0 1.69979V7.87092C0 8.15088 0.428116 8.50008 0.73436 8.50008H12.3279C12.6341 8.50008 12.9997 8.14787 12.9997 7.87092V1.69979C12.9997 1.57336 13.0185 1.41682 12.7404 1.55229Z" fill="white"/>
</svg>
