<svg width="21" height="22" viewBox="0 0 21 22" fill="none" xmlns="http://www.w3.org/2000/svg">
<rect y="0.5" width="21" height="21" rx="4" fill="#090E8E"/>
<path d="M14.4375 13.282C14.4375 13.3826 14.4189 13.5141 14.3816 13.6763C14.3443 13.8385 14.3051 13.9662 14.2641 14.0594C14.1858 14.2458 13.9584 14.4434 13.5818 14.6523C13.2313 14.8424 12.8845 14.9375 12.5415 14.9375C12.4408 14.9375 12.342 14.931 12.245 14.9179C12.1481 14.9049 12.0409 14.8816 11.9234 14.848C11.806 14.8145 11.7184 14.7874 11.6606 14.7669C11.6028 14.7464 11.4993 14.7082 11.3501 14.6523C11.201 14.5963 11.1096 14.5628 11.0761 14.5516C10.7107 14.4211 10.3844 14.2663 10.0973 14.0874C9.62376 13.7928 9.13157 13.3901 8.62074 12.8793C8.10991 12.3684 7.70721 11.8762 7.41264 11.4027C7.23366 11.1156 7.07892 10.7893 6.94842 10.4239C6.93723 10.3904 6.90368 10.299 6.84775 10.1499C6.79181 10.0007 6.7536 9.89724 6.73309 9.83944C6.71258 9.78165 6.68555 9.69403 6.65199 9.57657C6.61843 9.45912 6.59513 9.35192 6.58208 9.25497C6.56903 9.15803 6.5625 9.05922 6.5625 8.95854C6.5625 8.6155 6.65758 8.26873 6.84775 7.91824C7.05655 7.54164 7.25417 7.31419 7.44061 7.23588C7.53382 7.19487 7.66153 7.15572 7.82373 7.11843C7.98593 7.08114 8.11737 7.0625 8.21804 7.0625C8.27024 7.0625 8.30939 7.06809 8.33549 7.07928C8.40261 7.10165 8.50142 7.24334 8.63192 7.50435C8.67294 7.5752 8.72887 7.67587 8.79972 7.80637C8.87056 7.93688 8.93581 8.05526 8.99547 8.16153C9.05513 8.2678 9.11293 8.36754 9.16886 8.46076C9.18004 8.47567 9.21267 8.52228 9.26673 8.60059C9.3208 8.67889 9.36088 8.74507 9.38699 8.79914C9.41309 8.8532 9.42614 8.90634 9.42614 8.95854C9.42614 9.03311 9.373 9.12633 9.26673 9.23819C9.16047 9.35005 9.04488 9.45259 8.91997 9.54581C8.79505 9.63903 8.67947 9.73784 8.5732 9.84224C8.46693 9.94664 8.4138 10.0324 8.4138 10.0995C8.4138 10.1331 8.42312 10.175 8.44176 10.2254C8.4604 10.2757 8.47625 10.3139 8.4893 10.34C8.50235 10.3661 8.52845 10.4109 8.5676 10.4743C8.60676 10.5376 8.6282 10.5731 8.63192 10.5805C8.91531 11.0914 9.2397 11.5295 9.60511 11.8949C9.97053 12.2603 10.4086 12.5847 10.9195 12.8681C10.9269 12.8718 10.9624 12.8932 11.0257 12.9324C11.0891 12.9715 11.1339 12.9976 11.16 13.0107C11.1861 13.0237 11.2243 13.0396 11.2746 13.0582C11.325 13.0769 11.3669 13.0862 11.4005 13.0862C11.4676 13.0862 11.5534 13.0331 11.6578 12.9268C11.7622 12.8205 11.861 12.7049 11.9542 12.58C12.0474 12.4551 12.1499 12.3395 12.2618 12.2333C12.3737 12.127 12.4669 12.0739 12.5415 12.0739C12.5937 12.0739 12.6468 12.0869 12.7009 12.113C12.7549 12.1391 12.8211 12.1792 12.8994 12.2333C12.9777 12.2873 13.0243 12.32 13.0392 12.3311C13.1325 12.3871 13.2322 12.4449 13.3385 12.5045C13.4447 12.5642 13.5631 12.6294 13.6936 12.7003C13.8241 12.7711 13.9248 12.8271 13.9956 12.8681C14.2567 12.9986 14.3983 13.0974 14.4207 13.1645C14.4319 13.1906 14.4375 13.2298 14.4375 13.282Z" fill="white"/>
</svg>
