<svg width="12" height="12" viewBox="0 0 9 8" fill="none" xmlns="http://www.w3.org/2000/svg">
<path d="M8.4375 6.28196C8.4375 6.38263 8.41886 6.51407 8.38157 6.67627C8.34428 6.83847 8.30513 6.96618 8.26412 7.05939C8.18581 7.24583 7.95836 7.44345 7.58176 7.65225C7.23127 7.84242 6.8845 7.9375 6.54146 7.9375C6.44078 7.9375 6.34197 7.93097 6.24503 7.91792C6.14808 7.90487 6.04088 7.88157 5.92343 7.84801C5.80597 7.81445 5.71835 7.78742 5.66056 7.76691C5.60276 7.7464 5.49929 7.70819 5.35014 7.65225C5.20099 7.59632 5.10964 7.56277 5.07608 7.55158C4.71067 7.42108 4.38441 7.26634 4.0973 7.08736C3.62376 6.79279 3.13157 6.39009 2.62074 5.87926C2.10991 5.36843 1.70721 4.87624 1.41264 4.4027C1.23366 4.11559 1.07892 3.78933 0.94842 3.42392C0.937234 3.39036 0.903675 3.29901 0.847745 3.14986C0.791815 3.00071 0.753596 2.89724 0.733088 2.83944C0.71258 2.78165 0.685547 2.69403 0.651989 2.57657C0.61843 2.45912 0.595126 2.35192 0.582076 2.25497C0.569025 2.15803 0.5625 2.05922 0.5625 1.95854C0.5625 1.6155 0.657582 1.26873 0.847745 0.918235C1.05655 0.541637 1.25417 0.314187 1.44061 0.235884C1.53382 0.194869 1.66153 0.155717 1.82373 0.11843C1.98593 0.0811435 2.11737 0.0625 2.21804 0.0625C2.27024 0.0625 2.30939 0.068093 2.33549 0.0792791C2.40261 0.101651 2.50142 0.243342 2.63192 0.50435C2.67294 0.575195 2.72887 0.67587 2.79972 0.806374C2.87056 0.936879 2.93581 1.05526 2.99547 1.16153C3.05513 1.2678 3.11293 1.36754 3.16886 1.46076C3.18004 1.47567 3.21267 1.52228 3.26673 1.60059C3.3208 1.67889 3.36088 1.74507 3.38699 1.79914C3.41309 1.8532 3.42614 1.90634 3.42614 1.95854C3.42614 2.03311 3.373 2.12633 3.26673 2.23819C3.16047 2.35005 3.04488 2.45259 2.91997 2.54581C2.79505 2.63903 2.67947 2.73784 2.5732 2.84224C2.46693 2.94664 2.4138 3.0324 2.4138 3.09952C2.4138 3.13308 2.42312 3.17503 2.44176 3.22536C2.4604 3.2757 2.47625 3.31392 2.4893 3.34002C2.50235 3.36612 2.52845 3.41087 2.5676 3.47425C2.60676 3.53764 2.6282 3.57306 2.63192 3.58052C2.91531 4.09135 3.2397 4.52947 3.60511 4.89489C3.97053 5.2603 4.40865 5.58469 4.91948 5.86807C4.92694 5.8718 4.96236 5.89324 5.02575 5.93239C5.08913 5.97155 5.13388 5.99765 5.15998 6.0107C5.18608 6.02375 5.2243 6.0396 5.27464 6.05824C5.32497 6.07688 5.36692 6.0862 5.40048 6.0862C5.4676 6.0862 5.55336 6.03307 5.65776 5.9268C5.76216 5.82053 5.86097 5.70494 5.95419 5.58003C6.04741 5.45512 6.14995 5.33953 6.26181 5.23326C6.37367 5.127 6.46689 5.07386 6.54146 5.07386C6.59366 5.07386 6.64679 5.08691 6.70086 5.11301C6.75493 5.13912 6.82111 5.1792 6.89941 5.23326C6.97772 5.28733 7.02432 5.31996 7.03924 5.33114C7.13246 5.38707 7.2322 5.44487 7.33847 5.50453C7.44474 5.56419 7.56312 5.62944 7.69363 5.70028C7.82413 5.77113 7.9248 5.82706 7.99565 5.86807C8.25666 5.99858 8.39835 6.09739 8.42072 6.16451C8.43191 6.19061 8.4375 6.22976 8.4375 6.28196Z" fill="white"/>
</svg>
