<svg width="20" height="16" viewBox="0 0 20 16" fill="none" xmlns="http://www.w3.org/2000/svg">
<path d="M19.7845 0.285896C19.0324 0.732286 17.5236 1.34065 16.6366 1.51612C16.6106 1.52287 16.5894 1.53155 16.5643 1.5383C15.7804 0.765067 14.7064 0.285896 13.5176 0.285896C11.1218 0.285896 9.17908 2.22861 9.17908 4.62446C9.17908 4.75076 9.16848 4.98312 9.17908 5.10652C5.94637 5.10652 3.48592 3.41352 1.72157 1.25002C1.52971 1.73208 1.44583 2.49374 1.44583 3.20913C1.44583 4.55987 2.50155 5.8865 4.14538 6.7089C3.84265 6.787 3.50906 6.84292 3.16198 6.84292C2.60182 6.84292 2.00888 6.6954 1.46608 6.24805C1.46608 6.26444 1.46608 6.27987 1.46608 6.29722C1.46608 8.18498 3.46953 9.47016 5.25124 9.82785C4.88969 10.0409 4.16081 10.0621 3.80505 10.0621C3.55437 10.0621 2.66738 9.9474 2.4302 9.90305C2.92576 11.4505 4.71325 12.3201 6.41686 12.351C5.08444 13.3961 4.15985 13.7837 1.43137 13.7837H0.501953C2.22581 14.8885 4.42112 15.7129 6.62126 15.7129C13.7847 15.7129 17.8562 10.253 17.8562 5.10652C17.8562 5.02361 17.8543 4.85007 17.8514 4.67556C17.8514 4.65821 17.8562 4.64182 17.8562 4.62446C17.8562 4.59843 17.8485 4.57336 17.8485 4.54733C17.8456 4.41621 17.8427 4.29377 17.8398 4.23013C18.6015 3.68058 19.2619 2.99509 19.7845 2.21415C19.0855 2.5246 18.3354 2.73285 17.5477 2.82733C18.3518 2.34527 19.4943 1.19603 19.7845 0.285896ZM15.928 5.10652C15.928 9.04016 13.077 13.2042 7.76568 13.7287C8.48491 13.2187 9.17908 12.4946 9.17908 12.4946C9.17908 12.4946 6.28671 9.92812 6.06978 6.57489C7.06765 6.87955 8.10698 7.03478 9.17908 7.03478H11.1073V4.62446C11.1093 3.29397 12.1872 2.21511 13.5176 2.21511C14.8491 2.21511 15.928 3.29397 15.928 4.62543C15.928 4.62543 15.928 5.03036 15.928 5.10652Z" fill="white"/>
</svg>
